font.ufo
<glyph name="dollar" format="2">
	<unicode hex="0024"/>
	<advance width="557"/>
	<outline>
		<contour>
			<point x="270" y="-12" type="curve" smooth="yes"/>
			<point x="410" y="-12"/>
			<point x="509" y="60"/>
			<point x="509" y="179" type="curve" smooth="yes"/>
			<point x="509" y="286"/>
			<point x="431" y="338"/>
			<point x="315" y="378" type="curve" smooth="yes"/>
			<point x="287" y="388" type="line" smooth="yes"/>
			<point x="213" y="415"/>
			<point x="174" y="447"/>
			<point x="174" y="501" type="curve" smooth="yes"/>
			<point x="174" y="556"/>
			<point x="214" y="599"/>
			<point x="298" y="599" type="curve" smooth="yes"/>
			<point x="340" y="599"/>
			<point x="383" y="591"/>
			<point x="412" y="583" type="curve"/>
			<point x="354" y="616" type="line"/>
			<point x="369" y="525" type="line" smooth="yes"/>
			<point x="376" y="484"/>
			<point x="399" y="467"/>
			<point x="431" y="467" type="curve" smooth="yes"/>
			<point x="463" y="467"/>
			<point x="479" y="487"/>
			<point x="486" y="517" type="curve"/>
			<point x="468" y="603"/>
			<point x="398" y="653"/>
			<point x="282" y="653" type="curve" smooth="yes"/>
			<point x="158" y="653"/>
			<point x="63" y="592"/>
			<point x="63" y="476" type="curve" smooth="yes"/>
			<point x="63" y="368"/>
			<point x="141" y="319"/>
			<point x="257" y="279" type="curve" smooth="yes"/>
			<point x="286" y="268" type="line" smooth="yes"/>
			<point x="367" y="238"/>
			<point x="398" y="208"/>
			<point x="398" y="152" type="curve" smooth="yes"/>
			<point x="398" y="92"/>
			<point x="353" y="43"/>
			<point x="249" y="43" type="curve" smooth="yes"/>
			<point x="201" y="43"/>
			<point x="157" y="51"/>
			<point x="128" y="59" type="curve"/>
			<point x="186" y="28" type="line"/>
			<point x="171" y="119" type="line" smooth="yes"/>
			<point x="164" y="160"/>
			<point x="141" y="177"/>
			<point x="109" y="177" type="curve" smooth="yes"/>
			<point x="77" y="177"/>
			<point x="60" y="157"/>
			<point x="54" y="127" type="curve"/>
			<point x="72" y="41"/>
			<point x="147" y="-12"/>
		</contour>
		<contour>
			<point x="255" y="-112" type="line"/>
			<point x="308" y="-112" type="line"/>
			<point x="308" y="319" type="line"/>
			<point x="255" y="319" type="line"/>
		</contour>
		<contour>
			<point x="259" y="320" type="line"/>
			<point x="312" y="320" type="line"/>
			<point x="312" y="753" type="line"/>
			<point x="259" y="753" type="line"/>
		</contour>
	</outline>
</glyph>
<glyph name="quotesingle" format="2">
	<unicode hex="0027"/>
	<advance width="205"/>
	<outline>
		<contour>
			<point x="103" y="735" type="curve" smooth="yes"/>
			<point x="62" y="735"/>
			<point x="36" y="711"/>
			<point x="36" y="665" type="curve" smooth="yes"/>
			<point x="36" y="616"/>
			<point x="48" y="545"/>
			<point x="59" y="483" type="curve" smooth="yes"/>
			<point x="72" y="412" type="line"/>
			<point x="133" y="412" type="line"/>
			<point x="146" y="483" type="line" smooth="yes"/>
			<point x="157" y="545"/>
			<point x="169" y="616"/>
			<point x="169" y="665" type="curve" smooth="yes"/>
			<point x="169" y="711"/>
			<point x="144" y="735"/>
		</contour>
	</outline>
</glyph>
<glyph name="parenleft" format="2">
	<unicode hex="0028"/>
	<advance width="410"/>
	<outline>
		<contour>
			<point x="212" y="279" type="curve" smooth="yes"/>
			<point x="212" y="437"/>
			<point x="254" y="560"/>
			<point x="354" y="702" type="curve"/>
			<point x="309" y="740" type="line"/>
			<point x="169" y="616"/>
			<point x="87" y="469"/>
			<point x="87" y="279" type="curve" smooth="yes"/>
			<point x="87" y="89"/>
			<point x="169" y="-57"/>
			<point x="309" y="-181" type="curve"/>
			<point x="354" y="-143" type="line"/>
			<point x="254" y="-1"/>
			<point x="212" y="121"/>
		</contour>
	</outline>
</glyph>
<glyph name="asterisk" format="2">
	<unicode hex="002A"/>
	<advance width="482"/>
	<outline>
		<contour>
			<point x="229" y="550" type="line"/>
			<point x="252" y="550" type="line"/>
			<point x="265" y="592" type="line" smooth="yes"/>
			<point x="279" y="635"/>
			<point x="290" y="668"/>
			<point x="290" y="696" type="curve" smooth="yes"/>
			<point x="290" y="725"/>
			<point x="272" y="745"/>
			<point x="241" y="745" type="curve" smooth="yes"/>
			<point x="209" y="745"/>
			<point x="192" y="725"/>
			<point x="192" y="696" type="curve" smooth="yes"/>
			<point x="192" y="668"/>
			<point x="202" y="635"/>
			<point x="217" y="592" type="curve" smooth="yes"/>
		</contour>
		<contour>
			<point x="205" y="516" type="line"/>
			<point x="213" y="538" type="line"/>
			<point x="177" y="563" type="line" smooth="yes"/>
			<point x="140" y="590"/>
			<point x="113" y="610"/>
			<point x="85" y="619" type="curve" smooth="yes"/>
			<point x="58" y="628"/>
			<point x="33" y="617"/>
			<point x="23" y="587" type="curve" smooth="yes"/>
			<point x="13" y="557"/>
			<point x="28" y="535"/>
			<point x="55" y="526" type="curve" smooth="yes"/>
			<point x="82" y="517"/>
			<point x="117" y="517"/>
			<point x="161" y="517" type="curve" smooth="yes"/>
		</contour>
		<contour>
			<point x="231" y="483" type="line"/>
			<point x="212" y="497" type="line"/>
			<point x="177" y="470" type="line" smooth="yes"/>
			<point x="140" y="444"/>
			<point x="112" y="424"/>
			<point x="95" y="401" type="curve" smooth="yes"/>
			<point x="79" y="378"/>
			<point x="81" y="350"/>
			<point x="107" y="331" type="curve" smooth="yes"/>
			<point x="132" y="313"/>
			<point x="158" y="320"/>
			<point x="174" y="343" type="curve" smooth="yes"/>
			<point x="191" y="366"/>
			<point x="202" y="398"/>
			<point x="216" y="442" type="curve" smooth="yes"/>
		</contour>
		<contour>
			<point x="269" y="497" type="line"/>
			<point x="251" y="483" type="line"/>
			<point x="266" y="442" type="line" smooth="yes"/>
			<point x="279" y="398"/>
			<point x="289" y="366"/>
			<point x="306" y="343" type="curve" smooth="yes"/>
			<point x="323" y="319"/>
			<point x="350" y="313"/>
			<point x="375" y="331" type="curve" smooth="yes"/>
			<point x="401" y="350"/>
			<point x="403" y="377"/>
			<point x="386" y="400" type="curve" smooth="yes"/>
			<point x="368" y="424"/>
			<point x="341" y="444"/>
			<point x="304" y="470" type="curve" smooth="yes"/>
		</contour>
		<contour>
			<point x="269" y="538" type="line"/>
			<point x="276" y="516" type="line"/>
			<point x="320" y="517" type="line" smooth="yes"/>
			<point x="365" y="517"/>
			<point x="399" y="516"/>
			<point x="427" y="525" type="curve" smooth="yes"/>
			<point x="454" y="534"/>
			<point x="468" y="557"/>
			<point x="458" y="587" type="curve" smooth="yes"/>
			<point x="448" y="617"/>
			<point x="423" y="627"/>
			<point x="396" y="618" type="curve" smooth="yes"/>
			<point x="369" y="609"/>
			<point x="341" y="590"/>
			<point x="305" y="563" type="curve" smooth="yes"/>
		</contour>
	</outline>
</glyph>
<glyph name="comma" format="2">
	<unicode hex="002C"/>
	<advance width="313"/>
	<outline>
		<contour>
			<point x="239" y="41" type="curve" smooth="yes"/>
			<point x="239" y="73"/>
			<point x="235" y="108"/>
			<point x="226" y="134" type="curve"/>
			<point x="213" y="142"/>
			<point x="189" y="150"/>
			<point x="162" y="150" type="curve" smooth="yes"/>
			<point x="111" y="150"/>
			<point x="77" y="118"/>
			<point x="77" y="69" type="curve" smooth="yes"/>
			<point x="77" y="23"/>
			<point x="109" y="-1"/>
			<point x="143" y="-20" type="curve" smooth="yes"/>
			<point x="178" y="-39" type="line"/>
			<point x="157" y="-19" type="line"/>
			<point x="141" y="-83"/>
			<point x="98" y="-133"/>
			<point x="18" y="-175" type="curve"/>
			<point x="46" y="-217" type="line"/>
			<point x="157" y="-168"/>
			<point x="239" y="-93"/>
		</contour>
	</outline>
</glyph>
<glyph name="period" format="2">
	<unicode hex="002E"/>
	<advance width="313"/>
	<outline>
		<contour>
			<point x="157" y="-12" type="curve" smooth="yes"/>
			<point x="204" y="-12"/>
			<point x="241" y="25"/>
			<point x="241" y="72" type="curve" smooth="yes"/>
			<point x="241" y="119"/>
			<point x="204" y="156"/>
			<point x="157" y="156" type="curve" smooth="yes"/>
			<point x="109" y="156"/>
			<point x="73" y="119"/>
			<point x="73" y="72" type="curve" smooth="yes"/>
			<point x="73" y="25"/>
			<point x="109" y="-12"/>
		</contour>
	</outline>
</glyph>
<glyph name="zero" format="2">
	<unicode hex="0030"/>
	<advance width="569"/>
	<outline>
		<contour>
			<point x="285" y="-12" type="curve" smooth="yes"/>
			<point x="428" y="-12"/>
			<point x="524" y="107"/>
			<point x="524" y="324" type="curve" smooth="yes"/>
			<point x="524" y="541"/>
			<point x="428" y="653"/>
			<point x="285" y="653" type="curve" smooth="yes"/>
			<point x="141" y="653"/>
			<point x="45" y="535"/>
			<point x="45" y="317" type="curve" smooth="yes"/>
			<point x="45" y="100"/>
			<point x="141" y="-12"/>
		</contour>
		<contour>
			<point x="285" y="48" type="curve" smooth="yes"/>
			<point x="205" y="48"/>
			<point x="185" y="143"/>
			<point x="185" y="321" type="curve" smooth="yes"/>
			<point x="185" y="498"/>
			<point x="205" y="593"/>
			<point x="285" y="593" type="curve" smooth="yes"/>
			<point x="364" y="593"/>
			<point x="384" y="498"/>
			<point x="384" y="321" type="curve" smooth="yes"/>
			<point x="384" y="143"/>
			<point x="364" y="48"/>
		</contour>
	</outline>
</glyph>
<glyph name="one" format="2">
	<unicode hex="0031"/>
	<advance width="569"/>
	<outline>
		<contour>
			<point x="86" y="0" type="line"/>
			<point x="483" y="0" type="line"/>
			<point x="483" y="69" type="line"/>
			<point x="323" y="69" type="line"/>
			<point x="254" y="69" type="line"/>
			<point x="86" y="69" type="line"/>
		</contour>
		<contour>
			<point x="220" y="0" type="curve"/>
			<point x="359" y="0" type="line"/>
			<point x="359" y="101"/>
			<point x="359" y="202"/>
			<point x="359" y="303" type="curve" smooth="yes"/>
			<point x="359" y="363" type="line"/>
			<point x="359" y="641" type="line"/>
			<point x="311" y="641" type="line"/>
			<point x="96" y="576" type="line"/>
			<point x="96" y="510" type="line"/>
			<point x="220" y="531" type="line"/>
			<point x="220" y="303" type="line" smooth="yes"/>
			<point x="220" y="202"/>
			<point x="220" y="101"/>
		</contour>
	</outline>
</glyph>
<glyph name="less" format="2">
	<unicode hex="003C"/>
	<advance width="558"/>
	<outline>
		<contour>
			<point x="60" y="292" type="line"/>
			<point x="456" y="75" type="line"/>
			<point x="495" y="148" type="line"/>
			<point x="105" y="345" type="line"/>
			<point x="105" y="304" type="line"/>
			<point x="495" y="501" type="line"/>
			<point x="456" y="575" type="line"/>
			<point x="60" y="357" type="line"/>
		</contour>
	</outline>
</glyph>
<glyph name="question" format="2">
	<unicode hex="003F"/>
	<advance width="428"/>
	<outline>
		<contour>
			<point x="155" y="-12" type="curve" smooth="yes"/>
			<point x="201" y="-12"/>
			<point x="237" y="24"/>
			<point x="237" y="71" type="curve" smooth="yes"/>
			<point x="237" y="117"/>
			<point x="201" y="153"/>
			<point x="155" y="153" type="curve" smooth="yes"/>
			<point x="108" y="153"/>
			<point x="72" y="117"/>
			<point x="72" y="71" type="curve" smooth="yes"/>
			<point x="72" y="24"/>
			<point x="108" y="-12"/>
		</contour>
		<contour>
			<point x="376" y="479" type="curve" smooth="yes"/>
			<point x="376" y="592"/>
			<point x="266" y="662"/>
			<point x="109" y="680" type="curve"/>
			<point x="82" y="672"/>
			<point x="57" y="649"/>
			<point x="57" y="616" type="curve" smooth="yes"/>
			<point x="57" y="583"/>
			<point x="81" y="557"/>
			<point x="129" y="557" type="curve" smooth="yes"/>
			<point x="313" y="557" type="line"/>
			<point x="274" y="598" type="line"/>
			<point x="296" y="569"/>
			<point x="307" y="543"/>
			<point x="307" y="510" type="curve" smooth="yes"/>
			<point x="307" y="471"/>
			<point x="286" y="451"/>
			<point x="217" y="422" type="curve" smooth="yes"/>
			<point x="185" y="410" type="line" smooth="yes"/>
			<point x="122" y="384"/>
			<point x="97" y="361"/>
			<point x="97" y="319" type="curve" smooth="yes"/>
			<point x="97" y="295"/>
			<point x="105" y="269"/>
			<point x="113" y="242" type="curve" smooth="yes"/>
			<point x="120" y="218" type="line"/>
			<point x="176" y="218" type="line"/>
			<point x="177" y="237" type="line" smooth="yes"/>
			<point x="178" y="279"/>
			<point x="194" y="292"/>
			<point x="226" y="308" type="curve" smooth="yes"/>
			<point x="250" y="316" type="line" smooth="yes"/>
			<point x="331" y="352"/>
			<point x="376" y="394"/>
		</contour>
	</outline>
</glyph>
<glyph name="B" format="2">
	<unicode hex="0042"/>
	<advance width="697"/>
	<outline>
		<contour>
			<point x="31" y="0" type="line"/>
			<point x="163" y="0" type="line"/>
			<point x="163" y="69" type="line"/>
			<point x="147" y="69" type="line"/>
			<point x="31" y="69" type="line"/>
		</contour>
		<contour>
			<point x="125" y="0" type="curve"/>
			<point x="269" y="0" type="line"/>
			<point x="269" y="101"/>
			<point x="269" y="202"/>
			<point x="269" y="303" type="curve" smooth="yes"/>
			<point x="269" y="363" type="line" smooth="yes"/>
			<point x="269" y="464"/>
			<point x="269" y="563"/>
			<point x="269" y="664" type="curve"/>
			<point x="125" y="664" type="line"/>
			<point x="125" y="563"/>
			<point x="125" y="464"/>
			<point x="125" y="363" type="curve" smooth="yes"/>
			<point x="125" y="303" type="line" smooth="yes"/>
			<point x="125" y="202"/>
			<point x="125" y="101"/>
		</contour>
		<contour>
			<point x="232" y="0" type="line"/>
			<point x="347" y="0" type="line" smooth="yes"/>
			<point x="545" y="0"/>
			<point x="656" y="68"/>
			<point x="656" y="191" type="curve" smooth="yes"/>
			<point x="656" y="303"/>
			<point x="542" y="336"/>
			<point x="388" y="336" type="curve"/>
			<point x="388" y="357" type="line"/>
			<point x="513" y="357"/>
			<point x="620" y="395"/>
			<point x="620" y="507" type="curve" smooth="yes"/>
			<point x="620" y="611"/>
			<point x="513" y="664"/>
			<point x="349" y="664" type="curve" smooth="yes"/>
			<point x="232" y="664" type="line"/>
			<point x="232" y="597" type="line"/>
			<point x="336" y="597" type="line" smooth="yes"/>
			<point x="428" y="597"/>
			<point x="476" y="563"/>
			<point x="476" y="489" type="curve" smooth="yes"/>
			<point x="476" y="416"/>
			<point x="428" y="376"/>
			<point x="333" y="376" type="curve" smooth="yes"/>
			<point x="212" y="376" type="line"/>
			<point x="212" y="312" type="line"/>
			<point x="341" y="312" type="line" smooth="yes"/>
			<point x="457" y="312"/>
			<point x="509" y="268"/>
			<point x="509" y="189" type="curve" smooth="yes"/>
			<point x="509" y="111"/>
			<point x="457" y="67"/>
			<point x="333" y="67" type="curve" smooth="yes"/>
			<point x="232" y="67" type="line"/>
		</contour>
		<contour>
			<point x="31" y="595" type="line"/>
			<point x="147" y="595" type="line"/>
			<point x="163" y="595" type="line"/>
			<point x="163" y="664" type="line"/>
			<point x="31" y="664" type="line"/>
		</contour>
	</outline>
	<anchor name="aboveUC" x="349" y="684"/>
	<anchor name="belowLC" x="349" y="-20"/>
</glyph>
<glyph name="H" format="2">
	<unicode hex="0048"/>
	<advance width="840"/>
	<outline>
		<contour>
			<point x="31" y="0" type="line"/>
			<point x="361" y="0" type="line"/>
			<point x="361" y="69" type="line"/>
			<point x="232" y="69" type="line"/>
			<point x="163" y="69" type="line"/>
			<point x="31" y="69" type="line"/>
		</contour>
		<contour>
			<point x="125" y="0" type="curve"/>
			<point x="269" y="0" type="line"/>
			<point x="269" y="105"/>
			<point x="269" y="211"/>
			<point x="269" y="316" type="curve" smooth="yes"/>
			<point x="269" y="356" type="line" smooth="yes"/>
			<point x="269" y="459"/>
			<point x="269" y="561"/>
			<point x="269" y="664" type="curve"/>
			<point x="125" y="664" type="line"/>
			<point x="125" y="563"/>
			<point x="125" y="464"/>
			<point x="125" y="363" type="curve" smooth="yes"/>
			<point x="125" y="303" type="line" smooth="yes"/>
			<point x="125" y="202"/>
			<point x="125" y="101"/>
		</contour>
		<contour>
			<point x="205" y="304" type="line"/>
			<point x="635" y="304" type="line"/>
			<point x="635" y="373" type="line"/>
			<point x="205" y="373" type="line"/>
		</contour>
		<contour>
			<point x="479" y="0" type="line"/>
			<point x="809" y="0" type="line"/>
			<point x="809" y="69" type="line"/>
			<point x="677" y="69" type="line"/>
			<point x="608" y="69" type="line"/>
			<point x="479" y="69" type="line"/>
		</contour>
		<contour>
			<point x="571" y="0" type="curve"/>
			<point x="715" y="0" type="line"/>
			<point x="715" y="101"/>
			<point x="715" y="202"/>
			<point x="715" y="303" type="curve" smooth="yes"/>
			<point x="715" y="363" type="line" smooth="yes"/>
			<point x="715" y="464"/>
			<point x="715" y="563"/>
			<point x="715" y="664" type="curve"/>
			<point x="571" y="664" type="line"/>
			<point x="571" y="561"/>
			<point x="571" y="459"/>
			<point x="571" y="356" type="curve" smooth="yes"/>
			<point x="571" y="316" type="line" smooth="yes"/>
			<point x="571" y="211"/>
			<point x="571" y="105"/>
		</contour>
		<contour>
			<point x="31" y="595" type="line"/>
			<point x="163" y="595" type="line"/>
			<point x="232" y="595" type="line"/>
			<point x="361" y="595" type="line"/>
			<point x="361" y="664" type="line"/>
			<point x="31" y="664" type="line"/>
		</contour>
		<contour>
			<point x="479" y="595" type="line"/>
			<point x="608" y="595" type="line"/>
			<point x="677" y="595" type="line"/>
			<point x="809" y="595" type="line"/>
			<point x="809" y="664" type="line"/>
			<point x="479" y="664" type="line"/>
		</contour>
	</outline>
	<anchor name="aboveUC" x="420" y="684"/>
	<anchor name="belowLC" x="420" y="-20"/>
</glyph>
<glyph name="M" format="2">
	<unicode hex="004D"/>
	<advance width="961"/>
	<outline>
		<contour>
			<point x="31" y="0" type="line"/>
			<point x="295" y="0" type="line"/>
			<point x="295" y="69" type="line"/>
			<point x="181" y="69" type="line"/>
			<point x="141" y="69" type="line"/>
			<point x="31" y="69" type="line"/>
		</contour>
		<contour>
			<point x="34" y="595" type="line"/>
			<point x="141" y="595" type="line"/>
			<point x="157" y="595" type="line"/>
			<point x="157" y="664" type="line"/>
			<point x="34" y="664" type="line"/>
		</contour>
		<contour>
			<point x="125" y="0" type="line"/>
			<point x="199" y="0" type="line"/>
			<point x="199" y="334" type="line"/>
			<point x="175" y="664" type="line"/>
			<point x="125" y="664" type="line"/>
		</contour>
		<contour>
			<point x="401" y="0" type="line"/>
			<point x="485" y="0" type="line"/>
			<point x="609" y="333" type="line"/>
			<point x="680" y="556" type="line"/>
			<point x="732" y="556" type="line"/>
			<point x="732" y="664" type="line"/>
			<point x="662" y="664" type="line"/>
			<point x="563" y="391" type="line"/>
			<point x="486" y="161" type="line"/>
			<point x="476" y="161" type="line"/>
			<point x="294" y="664" type="line"/>
			<point x="153" y="664" type="line"/>
			<point x="153" y="555" type="line"/>
			<point x="197" y="555" type="line"/>
		</contour>
		<contour>
			<point x="599" y="0" type="line"/>
			<point x="931" y="0" type="line"/>
			<point x="931" y="69" type="line"/>
			<point x="815" y="69" type="line"/>
			<point x="711" y="69" type="line"/>
			<point x="599" y="69" type="line"/>
		</contour>
		<contour>
			<point x="695" y="0" type="curve"/>
			<point x="836" y="0" type="line"/>
			<point x="836" y="101"/>
			<point x="836" y="202"/>
			<point x="836" y="303" type="curve" smooth="yes"/>
			<point x="836" y="363" type="line" smooth="yes"/>
			<point x="836" y="464"/>
			<point x="836" y="563"/>
			<point x="836" y="664" type="curve"/>
			<point x="695" y="664" type="line"/>
			<point x="695" y="334" type="line" smooth="yes"/>
			<point x="695" y="223"/>
			<point x="695" y="111"/>
		</contour>
		<contour>
			<point x="799" y="595" type="line"/>
			<point x="815" y="595" type="line"/>
			<point x="931" y="595" type="line"/>
			<point x="931" y="664" type="line"/>
			<point x="799" y="664" type="line"/>
		</contour>
	</outline>
	<anchor name="aboveUC" x="477" y="684"/>
	<anchor name="belowLC" x="451" y="-20"/>
</glyph>
<glyph name="N" format="2">
	<unicode hex="004E"/>
	<advance width="783"/>
	<outline>
		<contour>
			<point x="33" y="0" type="line"/>
			<point x="304" y="0" type="line"/>
			<point x="304" y="69" type="line"/>
			<point x="185" y="69" type="line"/>
			<point x="144" y="69" type="line"/>
			<point x="33" y="69" type="line"/>
		</contour>
		<contour>
			<point x="128" y="0" type="line"/>
			<point x="201" y="0" type="line"/>
			<point x="201" y="285" type="line"/>
			<point x="173" y="634" type="line"/>
			<point x="128" y="634" type="line"/>
		</contour>
		<contour>
			<point x="488" y="595" type="line"/>
			<point x="607" y="595" type="line"/>
			<point x="648" y="595" type="line"/>
			<point x="756" y="595" type="line"/>
			<point x="756" y="664" type="line"/>
			<point x="488" y="664" type="line"/>
		</contour>
		<contour>
			<point x="566" y="-5" type="line"/>
			<point x="664" y="-5" type="line"/>
			<point x="664" y="664" type="line"/>
			<point x="592" y="664" type="line"/>
			<point x="592" y="396" type="line"/>
			<point x="611" y="157" type="line"/>
			<point x="599" y="157" type="line"/>
			<point x="262" y="664" type="line"/>
			<point x="33" y="664" type="line"/>
			<point x="33" y="595" type="line"/>
			<point x="152" y="595" type="line"/>
			<point x="152" y="555" type="line"/>
			<point x="191" y="555" type="line"/>
		</contour>
	</outline>
	<anchor name="aboveUC" x="391" y="684"/>
	<anchor name="belowLC" x="391" y="-20"/>
</glyph>
<glyph name="O" format="2">
	<unicode hex="004F"/>
	<advance width="779"/>
	<outline>
		<contour>
			<point x="389" y="-16" type="curve" smooth="yes"/>
			<point x="583" y="-16"/>
			<point x="732" y="116"/>
			<point x="732" y="336" type="curve" smooth="yes"/>
			<point x="732" y="556"/>
			<point x="583" y="680"/>
			<point x="389" y="680" type="curve" smooth="yes"/>
			<point x="196" y="680"/>
			<point x="47" y="549"/>
			<point x="47" y="329" type="curve" smooth="yes"/>
			<point x="47" y="109"/>
			<point x="196" y="-16"/>
		</contour>
		<contour>
			<point x="389" y="53" type="curve" smooth="yes"/>
			<point x="260" y="53"/>
			<point x="196" y="171"/>
			<point x="196" y="333" type="curve" smooth="yes"/>
			<point x="196" y="496"/>
			<point x="260" y="611"/>
			<point x="389" y="611" type="curve" smooth="yes"/>
			<point x="519" y="611"/>
			<point x="583" y="495"/>
			<point x="583" y="332" type="curve" smooth="yes"/>
			<point x="583" y="169"/>
			<point x="519" y="53"/>
		</contour>
	</outline>
	<anchor name="aboveUC" x="390" y="684"/>
	<anchor name="belowLC" x="390" y="-20"/>
	<anchor name="hornLC" x="594" y="565"/>
	<anchor name="ogonek" x="489" y="0"/>
</glyph>
<glyph name="R" format="2">
	<unicode hex="0052"/>
	<advance width="749"/>
	<outline>
		<contour>
			<point x="31" y="0" type="line"/>
			<point x="361" y="0" type="line"/>
			<point x="361" y="69" type="line"/>
			<point x="232" y="69" type="line"/>
			<point x="163" y="69" type="line"/>
			<point x="31" y="69" type="line"/>
		</contour>
		<contour>
			<point x="125" y="0" type="curve"/>
			<point x="269" y="0" type="line"/>
			<point x="269" y="102"/>
			<point x="269" y="204"/>
			<point x="269" y="309" type="curve" smooth="yes"/>
			<point x="269" y="349" type="line" smooth="yes"/>
			<point x="269" y="457"/>
			<point x="269" y="560"/>
			<point x="269" y="664" type="curve"/>
			<point x="125" y="664" type="line"/>
			<point x="125" y="562"/>
			<point x="125" y="461"/>
			<point x="125" y="363" type="curve" smooth="yes"/>
			<point x="125" y="303" type="line" smooth="yes"/>
			<point x="125" y="204"/>
			<point x="125" y="102"/>
		</contour>
		<contour>
			<point x="628" y="-9" type="curve" smooth="yes"/>
			<point x="668" y="-9"/>
			<point x="704" y="-4"/>
			<point x="728" y="0" type="curve"/>
			<point x="728" y="65" type="line"/>
			<point x="581" y="76" type="line"/>
			<point x="645" y="28" type="line"/>
			<point x="598" y="200" type="line" smooth="yes"/>
			<point x="572" y="305"/>
			<point x="528" y="329"/>
			<point x="411" y="329" type="curve"/>
			<point x="411" y="350" type="line"/>
			<point x="539" y="353"/>
			<point x="641" y="397"/>
			<point x="641" y="497" type="curve" smooth="yes"/>
			<point x="641" y="603"/>
			<point x="544" y="664"/>
			<point x="363" y="664" type="curve" smooth="yes"/>
			<point x="232" y="664" type="line"/>
			<point x="232" y="597" type="line"/>
			<point x="347" y="597" type="line" smooth="yes"/>
			<point x="445" y="597"/>
			<point x="493" y="563"/>
			<point x="493" y="485" type="curve" smooth="yes"/>
			<point x="493" y="408"/>
			<point x="445" y="361"/>
			<point x="347" y="361" type="curve" smooth="yes"/>
			<point x="203" y="361" type="line"/>
			<point x="203" y="300" type="line"/>
			<point x="344" y="300" type="line" smooth="yes"/>
			<point x="409" y="300"/>
			<point x="437" y="279"/>
			<point x="455" y="205" type="curve" smooth="yes"/>
			<point x="481" y="96" type="line" smooth="yes"/>
			<point x="499" y="20"/>
			<point x="543" y="-9"/>
		</contour>
		<contour>
			<point x="31" y="595" type="line"/>
			<point x="147" y="595" type="line"/>
			<point x="163" y="595" type="line"/>
			<point x="163" y="664" type="line"/>
			<point x="31" y="664" type="line"/>
		</contour>
	</outline>
	<anchor name="aboveUC" x="354" y="684"/>
	<anchor name="belowLC" x="389" y="-20"/>
</glyph>
<glyph name="S" format="2">
	<unicode hex="0053"/>
	<advance width="594"/>
	<outline>
		<contour>
			<point x="269" y="-16" type="curve" smooth="yes"/>
			<point x="436" y="-16"/>
			<point x="545" y="60"/>
			<point x="545" y="185" type="curve" smooth="yes"/>
			<point x="545" y="308"/>
			<point x="453" y="355"/>
			<point x="334" y="401" type="curve" smooth="yes"/>
			<point x="305" y="412" type="line" smooth="yes"/>
			<point x="219" y="445"/>
			<point x="186" y="469"/>
			<point x="186" y="522" type="curve" smooth="yes"/>
			<point x="186" y="575"/>
			<point x="226" y="615"/>
			<point x="310" y="615" type="curve" smooth="yes"/>
			<point x="375" y="615"/>
			<point x="421" y="595"/>
			<point x="464" y="569" type="curve"/>
			<point x="464" y="631" type="line"/>
			<point x="398" y="631" type="line"/>
			<point x="430" y="485" type="line"/>
			<point x="501" y="485" type="line"/>
			<point x="501" y="636" type="line"/>
			<point x="469" y="655"/>
			<point x="397" y="680"/>
			<point x="305" y="680" type="curve" smooth="yes"/>
			<point x="162" y="680"/>
			<point x="53" y="613"/>
			<point x="53" y="491" type="curve" smooth="yes"/>
			<point x="53" y="372"/>
			<point x="145" y="326"/>
			<point x="264" y="280" type="curve" smooth="yes"/>
			<point x="293" y="268" type="line" smooth="yes"/>
			<point x="378" y="235"/>
			<point x="412" y="211"/>
			<point x="412" y="154" type="curve" smooth="yes"/>
			<point x="412" y="97"/>
			<point x="372" y="51"/>
			<point x="266" y="51" type="curve" smooth="yes"/>
			<point x="189" y="51"/>
			<point x="133" y="73"/>
			<point x="85" y="105" type="curve"/>
			<point x="85" y="43" type="line"/>
			<point x="150" y="43" type="line"/>
			<point x="117" y="192" type="line"/>
			<point x="45" y="192" type="line"/>
			<point x="45" y="32" type="line"/>
			<point x="88" y="11"/>
			<point x="170" y="-16"/>
		</contour>
	</outline>
	<anchor name="aboveUC" x="315" y="684"/>
	<anchor name="baseLC" x="273" y="0"/>
	<anchor name="belowLC" x="276" y="-20"/>
</glyph>
<glyph name="T" format="2">
	<unicode hex="0054"/>
	<advance width="682"/>
	<outline>
		<contour>
			<point x="162" y="0" type="line"/>
			<point x="520" y="0" type="line"/>
			<point x="520" y="69" type="line"/>
			<point x="374" y="69" type="line"/>
			<point x="305" y="69" type="line"/>
			<point x="162" y="69" type="line"/>
		</contour>
		<contour>
			<point x="269" y="0" type="curve"/>
			<point x="413" y="0" type="line"/>
			<point x="413" y="101"/>
			<point x="413" y="202"/>
			<point x="413" y="303" type="curve" smooth="yes"/>
			<point x="413" y="363" type="line" smooth="yes"/>
			<point x="413" y="464"/>
			<point x="413" y="563"/>
			<point x="413" y="664" type="curve"/>
			<point x="269" y="664" type="line"/>
			<point x="269" y="563"/>
			<point x="269" y="464"/>
			<point x="269" y="363" type="curve" smooth="yes"/>
			<point x="269" y="303" type="line" smooth="yes"/>
			<point x="269" y="202"/>
			<point x="269" y="101"/>
		</contour>
		<contour>
			<point x="24" y="469" type="line"/>
			<point x="95" y="469" type="line"/>
			<point x="133" y="639" type="line"/>
			<point x="85" y="596" type="line"/>
			<point x="597" y="596" type="line"/>
			<point x="549" y="639" type="line"/>
			<point x="588" y="469" type="line"/>
			<point x="658" y="469" type="line"/>
			<point x="652" y="664" type="line"/>
			<point x="31" y="664" type="line"/>
		</contour>
	</outline>
	<anchor name="aboveUC" x="341" y="684"/>
	<anchor name="belowLC" x="341" y="-20"/>
	<anchor name="baseLC" x="341" y="0"/>
</glyph>
<glyph name="X" format="2">
	<unicode hex="0058"/>
	<advance width="705"/>
	<outline>
		<contour>
			<point x="12" y="0" type="line"/>
			<point x="265" y="0" type="line"/>
			<point x="265" y="69" type="line"/>
			<point x="161" y="69" type="line"/>
			<point x="140" y="69" type="line"/>
			<point x="12" y="69" type="line"/>
		</contour>
		<contour>
			<point x="45" y="0" type="line"/>
			<point x="133" y="0" type="line"/>
			<point x="235" y="166" type="line"/>
			<point x="297" y="282" type="line"/>
			<point x="353" y="282" type="line"/>
			<point x="293" y="347" type="line"/>
		</contour>
		<contour>
			<point x="367" y="0" type="line"/>
			<point x="693" y="0" type="line"/>
			<point x="693" y="69" type="line"/>
			<point x="569" y="69" type="line"/>
			<point x="488" y="69" type="line"/>
			<point x="367" y="69" type="line"/>
		</contour>
		<contour>
			<point x="394" y="319" type="line"/>
			<point x="641" y="664" type="line"/>
			<point x="554" y="664" type="line"/>
			<point x="459" y="510" type="line"/>
			<point x="401" y="399" type="line"/>
			<point x="336" y="399" type="line"/>
		</contour>
		<contour>
			<point x="496" y="0" type="line"/>
			<point x="656" y="0" type="line"/>
			<point x="212" y="664" type="line"/>
			<point x="52" y="664" type="line"/>
		</contour>
		<contour>
			<point x="15" y="595" type="line"/>
			<point x="136" y="595" type="line"/>
			<point x="218" y="595" type="line"/>
			<point x="340" y="595" type="line"/>
			<point x="340" y="664" type="line"/>
			<point x="15" y="664" type="line"/>
		</contour>
		<contour>
			<point x="423" y="595" type="line"/>
			<point x="528" y="595" type="line"/>
			<point x="563" y="595" type="line"/>
			<point x="675" y="595" type="line"/>
			<point x="675" y="664" type="line"/>
			<point x="423" y="664" type="line"/>
		</contour>
	</outline>
	<anchor name="aboveUC" x="380" y="684"/>
	<anchor name="belowLC" x="336" y="-20"/>
</glyph>
<glyph name="Z" format="2">
	<unicode hex="005A"/>
	<advance width="627"/>
	<outline>
		<contour>
			<point x="28" y="0" type="line"/>
			<point x="595" y="0" type="line"/>
			<point x="601" y="196" type="line"/>
			<point x="531" y="196" type="line"/>
			<point x="489" y="25" type="line"/>
			<point x="540" y="64" type="line"/>
			<point x="339" y="64" type="line"/>
			<point x="185" y="50" type="line"/>
			<point x="185" y="94" type="line"/>
			<point x="167" y="40" type="line"/>
			<point x="581" y="611" type="line"/>
			<point x="581" y="664" type="line"/>
			<point x="49" y="664" type="line"/>
			<point x="43" y="469" type="line"/>
			<point x="113" y="469" type="line"/>
			<point x="155" y="639" type="line"/>
			<point x="104" y="600" type="line"/>
			<point x="273" y="600" type="line"/>
			<point x="423" y="614" type="line"/>
			<point x="423" y="570" type="line"/>
			<point x="441" y="624" type="line"/>
			<point x="28" y="53" type="line"/>
		</contour>
	</outline>
	<anchor name="aboveUC" x="310" y="684"/>
	<anchor name="belowLC" x="326" y="-20"/>
</glyph>
<glyph name="bracketleft" format="2">
	<unicode hex="005B"/>
	<advance width="378"/>
	<outline>
		<contour>
			<point x="115" y="-160" type="curve"/>
			<point x="218" y="-160" type="line"/>
			<point x="218" y="-54"/>
			<point x="218" y="52"/>
			<point x="218" y="158" type="curve" smooth="yes"/>
			<point x="218" y="398" type="line" smooth="yes"/>
			<point x="218" y="504"/>
			<point x="218" y="610"/>
			<point x="218" y="716" type="curve"/>
			<point x="115" y="716" type="line"/>
			<point x="115" y="610"/>
			<point x="115" y="504"/>
			<point x="115" y="398" type="curve" smooth="yes"/>
			<point x="115" y="158" type="line" smooth="yes"/>
			<point x="115" y="52"/>
			<point x="115" y="-54"/>
		</contour>
		<contour>
			<point x="165" y="-160" type="line"/>
			<point x="329" y="-160" type="line"/>
			<point x="329" y="-88" type="line"/>
			<point x="184" y="-88" type="line"/>
			<point x="165" y="-88" type="line"/>
		</contour>
		<contour>
			<point x="165" y="644" type="line"/>
			<point x="184" y="644" type="line"/>
			<point x="329" y="644" type="line"/>
			<point x="329" y="716" type="line"/>
			<point x="165" y="716" type="line"/>
		</contour>
	</outline>
</glyph>
<glyph name="backslash" format="2">
	<unicode hex="005C"/>
	<advance width="371"/>
	<outline>
		<contour>
			<point x="363" y="-160" type="line"/>
			<point x="100" y="710" type="line"/>
			<point x="8" y="710" type="line"/>
			<point x="272" y="-160" type="line"/>
		</contour>
	</outline>
</glyph>
<glyph name="underscore" format="2">
	<unicode hex="005F"/>
	<advance width="531"/>
	<outline>
		<contour>
			<point x="-5" y="-66" type="line"/>
			<point x="536" y="-66" type="line"/>
			<point x="536" y="27" type="line"/>
			<point x="-5" y="27" type="line"/>
		</contour>
	</outline>
</glyph>
<glyph name="e" format="2">
	<unicode hex="0065"/>
	<advance width="564"/>
	<outline>
		<contour>
			<point x="305" y="-13" type="curve" smooth="yes"/>
			<point x="420" y="-13"/>
			<point x="481" y="37"/>
			<point x="526" y="103" type="curve"/>
			<point x="481" y="139" type="line"/>
			<point x="448" y="99"/>
			<point x="408" y="71"/>
			<point x="338" y="71" type="curve" smooth="yes"/>
			<point x="244" y="71"/>
			<point x="178" y="140"/>
			<point x="178" y="264" type="curve" smooth="yes"/>
			<point x="178" y="403"/>
			<point x="220" y="463"/>
			<point x="297" y="463" type="curve" smooth="yes"/>
			<point x="362" y="463"/>
			<point x="400" y="423"/>
			<point x="400" y="350" type="curve" smooth="yes"/>
			<point x="400" y="329"/>
			<point x="399" y="316"/>
			<point x="398" y="293" type="curve" smooth="yes"/>
			<point x="146" y="293" type="line"/>
			<point x="146" y="240" type="line"/>
			<point x="512" y="240" type="line"/>
			<point x="517" y="259"/>
			<point x="520" y="288"/>
			<point x="520" y="317" type="curve" smooth="yes"/>
			<point x="520" y="444"/>
			<point x="436" y="524"/>
			<point x="298" y="524" type="curve" smooth="yes"/>
			<point x="145" y="524"/>
			<point x="44" y="411"/>
			<point x="44" y="249" type="curve" smooth="yes"/>
			<point x="44" y="89"/>
			<point x="141" y="-13"/>
		</contour>
	</outline>
	<anchor name="aboveLC" x="304" y="531"/>
	<anchor name="belowLC" x="308" y="-20"/>
	<anchor name="ogonek" x="386" y="0"/>
</glyph>
<glyph name="f" format="2">
	<unicode hex="0066"/>
	<advance width="391"/>
	<outline>
		<contour>
			<point x="39" y="0" type="line"/>
			<point x="340" y="0" type="line"/>
			<point x="340" y="65" type="line"/>
			<point x="226" y="65" type="line"/>
			<point x="137" y="65" type="line"/>
			<point x="39" y="65" type="line"/>
		</contour>
		<contour>
			<point x="116" y="0" type="curve"/>
			<point x="248" y="0" type="line"/>
			<point x="248" y="73"/>
			<point x="248" y="147"/>
			<point x="248" y="220" type="curve" smooth="yes"/>
			<point x="248" y="481" type="line"/>
			<point x="248" y="594"/>
			<point x="258" y="655"/>
			<point x="285" y="694" type="curve" smooth="yes"/>
			<point x="289" y="700"/>
			<point x="290" y="702"/>
			<point x="293" y="706" type="curve"/>
			<point x="267" y="689" type="line"/>
			<point x="327" y="689" type="line"/>
			<point x="296" y="709" type="line"/>
			<point x="329" y="663" type="line" smooth="yes"/>
			<point x="355" y="633"/>
			<point x="377" y="612"/>
			<point x="417" y="612" type="curve" smooth="yes"/>
			<point x="459" y="612"/>
			<point x="480" y="637"/>
			<point x="481" y="671" type="curve"/>
			<point x="466" y="715"/>
			<point x="424" y="735"/>
			<point x="355" y="735" type="curve" smooth="yes"/>
			<point x="294" y="735"/>
			<point x="241" y="716"/>
			<point x="206" y="684" type="curve" smooth="yes"/>
			<point x="168" y="648"/>
			<point x="129" y="605"/>
			<point x="120" y="500" type="curve"/>
			<point x="117" y="471" type="line"/>
			<point x="149" y="509" type="line"/>
			<point x="37" y="493" type="line"/>
			<point x="37" y="436" type="line"/>
			<point x="116" y="436" type="line"/>
			<point x="116" y="220" type="line" smooth="yes"/>
			<point x="116" y="147"/>
			<point x="116" y="73"/>
		</contour>
		<contour>
			<point x="195" y="436" type="line"/>
			<point x="361" y="436" type="line"/>
			<point x="361" y="505" type="line"/>
			<point x="195" y="505" type="line"/>
		</contour>
	</outline>
	<anchor name="aboveLC" x="334" y="733"/>
	<anchor name="belowLC" x="182" y="-20"/>
</glyph>
<glyph name="g" format="2">
	<unicode hex="0067"/>
	<advance width="616"/>
	<outline>
		<contour>
			<point x="274" y="-232" type="curve" smooth="yes"/>
			<point x="423" y="-232"/>
			<point x="562" y="-157"/>
			<point x="562" y="-42" type="curve" smooth="yes"/>
			<point x="562" y="37"/>
			<point x="504" y="96"/>
			<point x="380" y="96" type="curve" smooth="yes"/>
			<point x="247" y="96" type="line" smooth="yes"/>
			<point x="191" y="96"/>
			<point x="171" y="116"/>
			<point x="171" y="144" type="curve" smooth="yes"/>
			<point x="171" y="174"/>
			<point x="186" y="188"/>
			<point x="218" y="215" type="curve"/>
			<point x="155" y="213" type="line"/>
			<point x="155" y="173" type="line"/>
			<point x="95" y="168"/>
			<point x="54" y="147"/>
			<point x="54" y="97" type="curve" smooth="yes"/>
			<point x="54" y="45"/>
			<point x="97" y="28"/>
			<point x="155" y="23" type="curve"/>
			<point x="155" y="-16" type="line"/>
			<point x="175" y="-16"/>
			<point x="193" y="-16"/>
			<point x="214" y="-16" type="curve" smooth="yes"/>
			<point x="364" y="-16" type="line" smooth="yes"/>
			<point x="422" y="-16"/>
			<point x="448" y="-39"/>
			<point x="448" y="-77" type="curve" smooth="yes"/>
			<point x="448" y="-127"/>
			<point x="390" y="-172"/>
			<point x="287" y="-172" type="curve" smooth="yes"/>
			<point x="184" y="-172"/>
			<point x="147" y="-134"/>
			<point x="147" y="-93" type="curve" smooth="yes"/>
			<point x="147" y="-57"/>
			<point x="167" y="-25"/>
			<point x="193" y="-8" type="curve"/>
			<point x="186" y="-1" type="line"/>
			<point x="86" y="-15"/>
			<point x="28" y="-45"/>
			<point x="28" y="-109" type="curve" smooth="yes"/>
			<point x="28" y="-185"/>
			<point x="121" y="-232"/>
		</contour>
		<contour>
			<point x="269" y="183" type="curve" smooth="yes"/>
			<point x="399" y="183"/>
			<point x="484" y="251"/>
			<point x="484" y="355" type="curve" smooth="yes"/>
			<point x="484" y="386"/>
			<point x="478" y="408"/>
			<point x="466" y="427" type="curve"/>
			<point x="447" y="427" type="line"/>
			<point x="428" y="480"/>
			<point x="370" y="524"/>
			<point x="266" y="524" type="curve" smooth="yes"/>
			<point x="138" y="524"/>
			<point x="50" y="454"/>
			<point x="50" y="351" type="curve" smooth="yes"/>
			<point x="50" y="246"/>
			<point x="138" y="183"/>
		</contour>
		<contour>
			<point x="269" y="241" type="curve" smooth="yes"/>
			<point x="213" y="241"/>
			<point x="179" y="282"/>
			<point x="179" y="354" type="curve" smooth="yes"/>
			<point x="179" y="426"/>
			<point x="213" y="466"/>
			<point x="269" y="466" type="curve" smooth="yes"/>
			<point x="325" y="466"/>
			<point x="358" y="426"/>
			<point x="358" y="354" type="curve" smooth="yes"/>
			<point x="358" y="282"/>
			<point x="325" y="241"/>
		</contour>
		<contour>
			<point x="426" y="408" type="line"/>
			<point x="584" y="408" type="line"/>
			<point x="584" y="535" type="line"/>
			<point x="529" y="535" type="line"/>
			<point x="471" y="443" type="line"/>
			<point x="426" y="443" type="line"/>
		</contour>
	</outline>
	<anchor name="aboveLC" x="292" y="531"/>
	<anchor name="belowLC" x="291" y="-243"/>
</glyph>
<glyph name="j" format="2">
	<unicode hex="006A"/>
	<advance width="335"/>
	<outline>
		<contour>
			<point x="41" y="-235" type="curve" smooth="yes"/>
			<point x="117" y="-235"/>
			<point x="166" y="-199"/>
			<point x="195" y="-146" type="curve" smooth="yes"/>
			<point x="226" y="-91"/>
			<point x="240" y="-28"/>
			<point x="240" y="96" type="curve" smooth="yes"/>
			<point x="240" y="391" type="line"/>
			<point x="240" y="511" type="line"/>
			<point x="192" y="511" type="line"/>
			<point x="28" y="464" type="line"/>
			<point x="28" y="405" type="line"/>
			<point x="108" y="405" type="line"/>
			<point x="108" y="362"/>
			<point x="108" y="319"/>
			<point x="108" y="276" type="curve" smooth="yes"/>
			<point x="108" y="121" type="line" smooth="yes"/>
			<point x="108" y="-4"/>
			<point x="112" y="-72"/>
			<point x="108" y="-127" type="curve" smooth="yes"/>
			<point x="104" y="-159"/>
			<point x="102" y="-176"/>
			<point x="95" y="-198" type="curve"/>
			<point x="112" y="-185" type="line"/>
			<point x="69" y="-185" type="line"/>
			<point x="95" y="-197" type="line"/>
			<point x="80" y="-164" type="line" smooth="yes"/>
			<point x="66" y="-131"/>
			<point x="43" y="-108"/>
			<point x="0" y="-108" type="curve" smooth="yes"/>
			<point x="-44" y="-108"/>
			<point x="-67" y="-134"/>
			<point x="-73" y="-171" type="curve"/>
			<point x="-63" y="-202"/>
			<point x="-30" y="-235"/>
		</contour>
		<contour>
			<point x="173" y="597" type="curve" smooth="yes"/>
			<point x="218" y="597"/>
			<point x="252" y="630"/>
			<point x="252" y="673" type="curve" smooth="yes"/>
			<point x="252" y="717"/>
			<point x="218" y="750"/>
			<point x="173" y="750" type="curve" smooth="yes"/>
			<point x="128" y="750"/>
			<point x="95" y="717"/>
			<point x="95" y="673" type="curve" smooth="yes"/>
			<point x="95" y="630"/>
			<point x="128" y="597"/>
		</contour>
	</outline>
	<anchor name="aboveLC" x="175" y="750"/>
	<anchor name="belowLC" x="104" y="-243"/>
</glyph>
<glyph name="m" format="2">
	<unicode hex="006D"/>
	<advance width="1019"/>
	<outline>
		<contour>
			<point x="40" y="0" type="line"/>
			<point x="315" y="0" type="line"/>
			<point x="315" y="65" type="line"/>
			<point x="210" y="65" type="line"/>
			<point x="153" y="65" type="line"/>
			<point x="40" y="65" type="line"/>
		</contour>
		<contour>
			<point x="116" y="0" type="curve"/>
			<point x="248" y="0" type="line"/>
			<point x="248" y="73"/>
			<point x="248" y="147"/>
			<point x="248" y="220" type="curve" smooth="yes"/>
			<point x="248" y="409" type="line"/>
			<point x="237" y="409" type="line"/>
			<point x="221" y="511" type="line"/>
			<point x="176" y="511" type="line"/>
			<point x="36" y="464" type="line"/>
			<point x="36" y="405" type="line"/>
			<point x="116" y="405" type="line"/>
			<point x="116" y="362"/>
			<point x="116" y="319"/>
			<point x="116" y="276" type="curve" smooth="yes"/>
			<point x="116" y="220" type="line" smooth="yes"/>
			<point x="116" y="147"/>
			<point x="116" y="73"/>
		</contour>
		<contour>
			<point x="384" y="0" type="line"/>
			<point x="652" y="0" type="line"/>
			<point x="652" y="65" type="line"/>
			<point x="545" y="65" type="line"/>
			<point x="488" y="65" type="line"/>
			<point x="384" y="65" type="line"/>
		</contour>
		<contour>
			<point x="451" y="0" type="curve"/>
			<point x="582" y="0" type="line"/>
			<point x="582" y="73"/>
			<point x="582" y="147"/>
			<point x="582" y="220" type="curve" smooth="yes"/>
			<point x="582" y="353" type="line" smooth="yes"/>
			<point x="582" y="464"/>
			<point x="530" y="524"/>
			<point x="430" y="524" type="curve" smooth="yes"/>
			<point x="348" y="524"/>
			<point x="301" y="471"/>
			<point x="269" y="417" type="curve"/>
			<point x="224" y="417" type="line"/>
			<point x="224" y="361" type="line"/>
			<point x="275" y="397"/>
			<point x="324" y="420"/>
			<point x="371" y="420" type="curve" smooth="yes"/>
			<point x="427" y="420"/>
			<point x="451" y="392"/>
			<point x="451" y="325" type="curve" smooth="yes"/>
			<point x="451" y="220" type="line" smooth="yes"/>
			<point x="451" y="147"/>
			<point x="451" y="73"/>
		</contour>
		<contour>
			<point x="719" y="0" type="line"/>
			<point x="993" y="0" type="line"/>
			<point x="993" y="65" type="line"/>
			<point x="880" y="65" type="line"/>
			<point x="823" y="65" type="line"/>
			<point x="719" y="65" type="line"/>
		</contour>
		<contour>
			<point x="785" y="0" type="curve"/>
			<point x="917" y="0" type="line"/>
			<point x="917" y="73"/>
			<point x="917" y="147"/>
			<point x="917" y="220" type="curve" smooth="yes"/>
			<point x="917" y="353" type="line" smooth="yes"/>
			<point x="917" y="464"/>
			<point x="865" y="524"/>
			<point x="764" y="524" type="curve" smooth="yes"/>
			<point x="683" y="524"/>
			<point x="636" y="471"/>
			<point x="604" y="417" type="curve"/>
			<point x="559" y="417" type="line"/>
			<point x="559" y="361" type="line"/>
			<point x="609" y="397"/>
			<point x="659" y="420"/>
			<point x="706" y="420" type="curve" smooth="yes"/>
			<point x="761" y="420"/>
			<point x="785" y="392"/>
			<point x="785" y="325" type="curve" smooth="yes"/>
			<point x="785" y="220" type="line" smooth="yes"/>
			<point x="785" y="147"/>
			<point x="785" y="73"/>
		</contour>
	</outline>
	<anchor name="aboveLC" x="519" y="531"/>
	<anchor name="belowLC" x="523" y="-20"/>
</glyph>
<glyph name="n" format="2">
	<unicode hex="006E"/>
	<advance width="693"/>
	<outline>
		<contour>
			<point x="40" y="0" type="line"/>
			<point x="316" y="0" type="line"/>
			<point x="316" y="65" type="line"/>
			<point x="210" y="65" type="line"/>
			<point x="153" y="65" type="line"/>
			<point x="40" y="65" type="line"/>
		</contour>
		<contour>
			<point x="116" y="0" type="curve"/>
			<point x="248" y="0" type="line"/>
			<point x="248" y="73"/>
			<point x="248" y="147"/>
			<point x="248" y="220" type="curve" smooth="yes"/>
			<point x="248" y="409" type="line"/>
			<point x="237" y="409" type="line"/>
			<point x="221" y="511" type="line"/>
			<point x="176" y="511" type="line"/>
			<point x="36" y="464" type="line"/>
			<point x="36" y="405" type="line"/>
			<point x="116" y="405" type="line"/>
			<point x="116" y="362"/>
			<point x="116" y="319"/>
			<point x="116" y="276" type="curve" smooth="yes"/>
			<point x="116" y="220" type="line" smooth="yes"/>
			<point x="116" y="147"/>
			<point x="116" y="73"/>
		</contour>
		<contour>
			<point x="392" y="0" type="line"/>
			<point x="668" y="0" type="line"/>
			<point x="668" y="65" type="line"/>
			<point x="554" y="65" type="line"/>
			<point x="497" y="65" type="line"/>
			<point x="392" y="65" type="line"/>
		</contour>
		<contour>
			<point x="460" y="0" type="curve"/>
			<point x="592" y="0" type="line"/>
			<point x="592" y="73"/>
			<point x="592" y="147"/>
			<point x="592" y="220" type="curve" smooth="yes"/>
			<point x="592" y="353" type="line" smooth="yes"/>
			<point x="592" y="464"/>
			<point x="538" y="524"/>
			<point x="436" y="524" type="curve" smooth="yes"/>
			<point x="352" y="524"/>
			<point x="304" y="473"/>
			<point x="269" y="417" type="curve"/>
			<point x="226" y="417" type="line"/>
			<point x="226" y="361" type="line"/>
			<point x="277" y="397"/>
			<point x="328" y="420"/>
			<point x="377" y="420" type="curve" smooth="yes"/>
			<point x="435" y="420"/>
			<point x="460" y="392"/>
			<point x="460" y="325" type="curve" smooth="yes"/>
			<point x="460" y="220" type="line" smooth="yes"/>
			<point x="460" y="147"/>
			<point x="460" y="73"/>
		</contour>
	</outline>
	<anchor name="aboveLC" x="362" y="531"/>
	<anchor name="belowLC" x="359" y="-20"/>
</glyph>
<glyph name="q" format="2">
	<unicode hex="0071"/>
	<advance width="656"/>
	<outline>
		<contour>
			<point x="328" y="-223" type="line"/>
			<point x="628" y="-223" type="line"/>
			<point x="628" y="-158" type="line"/>
			<point x="514" y="-158" type="line"/>
			<point x="457" y="-158" type="line"/>
			<point x="328" y="-158" type="line"/>
		</contour>
		<contour>
			<point x="249" y="-13" type="curve" smooth="yes"/>
			<point x="337" y="-13"/>
			<point x="369" y="37"/>
			<point x="395" y="90" type="curve"/>
			<point x="452" y="90" type="line"/>
			<point x="452" y="169" type="line"/>
			<point x="406" y="112"/>
			<point x="368" y="78"/>
			<point x="307" y="78" type="curve" smooth="yes"/>
			<point x="233" y="78"/>
			<point x="182" y="132"/>
			<point x="182" y="257" type="curve" smooth="yes"/>
			<point x="182" y="383"/>
			<point x="233" y="436"/>
			<point x="307" y="436" type="curve" smooth="yes"/>
			<point x="368" y="436"/>
			<point x="405" y="403"/>
			<point x="452" y="345" type="curve"/>
			<point x="452" y="424" type="line"/>
			<point x="403" y="424" type="line"/>
			<point x="374" y="475"/>
			<point x="340" y="524"/>
			<point x="252" y="524" type="curve" smooth="yes"/>
			<point x="132" y="524"/>
			<point x="44" y="426"/>
			<point x="44" y="253" type="curve" smooth="yes"/>
			<point x="44" y="81"/>
			<point x="132" y="-13"/>
		</contour>
		<contour>
			<point x="420" y="-223" type="curve"/>
			<point x="552" y="-223" type="line"/>
			<point x="552" y="-158"/>
			<point x="552" y="-93"/>
			<point x="552" y="-28" type="curve" smooth="yes"/>
			<point x="552" y="395" type="line"/>
			<point x="552" y="513" type="line"/>
			<point x="489" y="513" type="line"/>
			<point x="427" y="411" type="line"/>
			<point x="420" y="411" type="line"/>
			<point x="420" y="99" type="line"/>
			<point x="428" y="99" type="line"/>
			<point x="420" y="-35" type="line" smooth="yes"/>
			<point x="420" y="-98"/>
			<point x="420" y="-161"/>
		</contour>
	</outline>
	<anchor name="aboveLC" x="328" y="531"/>
	<anchor name="belowLC" x="486" y="-243"/>
</glyph>
<glyph name="bar" format="2">
	<unicode hex="007C"/>
	<advance width="302"/>
	<outline>
		<contour>
			<point x="105" y="-225" type="line"/>
			<point x="197" y="-225" type="line"/>
			<point x="197" y="743" type="line"/>
			<point x="105" y="743" type="line"/>
		</contour>
	</outline>
</glyph>
<glyph name="cent" format="2">
	<unicode hex="00A2"/>
	<advance width="557"/>
	<outline>
		<contour>
			<point x="330" y="-39" type="line"/>
			<point x="330" y="664" type="line"/>
			<point x="276" y="664" type="line"/>
			<point x="276" y="-39" type="line"/>
		</contour>
		<contour>
			<point x="320" y="515" type="curve" smooth="yes"/>
			<point x="362" y="515"/>
			<point x="385" y="509"/>
			<point x="416" y="501" type="curve"/>
			<point x="368" y="544" type="line"/>
			<point x="384" y="457" type="line" smooth="yes"/>
			<point x="389" y="419"/>
			<point x="406" y="397"/>
			<point x="444" y="397" type="curve" smooth="yes"/>
			<point x="480" y="397"/>
			<point x="498" y="424"/>
			<point x="501" y="459" type="curve"/>
			<point x="480" y="513"/>
			<point x="420" y="567"/>
			<point x="290" y="567" type="curve" smooth="yes"/>
			<point x="146" y="567"/>
			<point x="44" y="459"/>
			<point x="44" y="305" type="curve" smooth="yes"/>
			<point x="44" y="153"/>
			<point x="138" y="59"/>
			<point x="283" y="59" type="curve" smooth="yes"/>
			<point x="409" y="59"/>
			<point x="466" y="119"/>
			<point x="498" y="169" type="curve"/>
			<point x="450" y="208" type="line"/>
			<point x="422" y="171"/>
			<point x="386" y="133"/>
			<point x="317" y="133" type="curve" smooth="yes"/>
			<point x="228" y="133"/>
			<point x="170" y="196"/>
			<point x="170" y="317" type="curve" smooth="yes"/>
			<point x="170" y="438"/>
			<point x="224" y="515"/>
		</contour>
	</outline>
</glyph>
<glyph name="sterling" format="2">
	<unicode hex="00A3"/>
	<advance width="558"/>
	<outline>
		<contour>
			<point x="64" y="285" type="line"/>
			<point x="415" y="285" type="line"/>
			<point x="415" y="339" type="line"/>
			<point x="64" y="339" type="line"/>
		</contour>
		<contour>
			<point x="56" y="0" type="line"/>
			<point x="501" y="0" type="line"/>
			<point x="501" y="108" type="line"/>
			<point x="150" y="108" type="line"/>
			<point x="150" y="133" type="line"/>
			<point x="140" y="119" type="line"/>
			<point x="211" y="147"/>
			<point x="248" y="191"/>
			<point x="248" y="262" type="curve" smooth="yes"/>
			<point x="248" y="336"/>
			<point x="210" y="389"/>
			<point x="210" y="472" type="curve" smooth="yes"/>
			<point x="210" y="555"/>
			<point x="251" y="600"/>
			<point x="319" y="600" type="curve" smooth="yes"/>
			<point x="355" y="600"/>
			<point x="387" y="600"/>
			<point x="419" y="600" type="curve"/>
			<point x="348" y="619" type="line"/>
			<point x="369" y="539" type="line" smooth="yes"/>
			<point x="383" y="484"/>
			<point x="409" y="471"/>
			<point x="440" y="471" type="curve" smooth="yes"/>
			<point x="473" y="471"/>
			<point x="489" y="491"/>
			<point x="497" y="517" type="curve"/>
			<point x="475" y="600"/>
			<point x="408" y="653"/>
			<point x="292" y="653" type="curve" smooth="yes"/>
			<point x="164" y="653"/>
			<point x="91" y="571"/>
			<point x="91" y="472" type="curve" smooth="yes"/>
			<point x="91" y="363"/>
			<point x="158" y="319"/>
			<point x="158" y="244" type="curve" smooth="yes"/>
			<point x="158" y="178"/>
			<point x="128" y="138"/>
			<point x="56" y="91" type="curve"/>
		</contour>
	</outline>
</glyph>
<glyph name="currency" format="2">
	<unicode hex="00A4"/>
	<advance width="520"/>
	<outline>
		<contour>
			<point x="378" y="425" type="line"/>
			<point x="429" y="454" type="line" smooth="yes"/>
			<point x="471" y="478"/>
			<point x="493" y="496"/>
			<point x="493" y="520" type="curve" smooth="yes"/>
			<point x="493" y="542"/>
			<point x="474" y="560"/>
			<point x="453" y="560" type="curve" smooth="yes"/>
			<point x="429" y="560"/>
			<point x="411" y="538"/>
			<point x="387" y="495" type="curve" smooth="yes"/>
			<point x="358" y="445" type="line"/>
		</contour>
		<contour>
			<point x="155" y="327" type="curve" smooth="yes"/>
			<point x="155" y="391"/>
			<point x="203" y="436"/>
			<point x="260" y="436" type="curve" smooth="yes"/>
			<point x="317" y="436"/>
			<point x="364" y="391"/>
			<point x="364" y="327" type="curve" smooth="yes"/>
			<point x="364" y="262"/>
			<point x="317" y="218"/>
			<point x="260" y="218" type="curve" smooth="yes"/>
			<point x="203" y="218"/>
			<point x="155" y="262"/>
		</contour>
		<contour>
			<point x="89" y="327" type="curve" smooth="yes"/>
			<point x="89" y="226"/>
			<point x="168" y="158"/>
			<point x="260" y="158" type="curve" smooth="yes"/>
			<point x="352" y="158"/>
			<point x="430" y="226"/>
			<point x="430" y="327" type="curve" smooth="yes"/>
			<point x="430" y="428"/>
			<point x="352" y="496"/>
			<point x="260" y="496" type="curve" smooth="yes"/>
			<point x="168" y="496"/>
			<point x="89" y="428"/>
		</contour>
		<contour>
			<point x="161" y="444" type="line"/>
			<point x="133" y="495" type="line" smooth="yes"/>
			<point x="108" y="538"/>
			<point x="91" y="560"/>
			<point x="67" y="560" type="curve" smooth="yes"/>
			<point x="45" y="560"/>
			<point x="27" y="541"/>
			<point x="27" y="520" type="curve" smooth="yes"/>
			<point x="27" y="496"/>
			<point x="49" y="478"/>
			<point x="91" y="454" type="curve" smooth="yes"/>
			<point x="142" y="425" type="line"/>
		</contour>
		<contour>
			<point x="142" y="228" type="line"/>
			<point x="91" y="200" type="line" smooth="yes"/>
			<point x="49" y="175"/>
			<point x="27" y="157"/>
			<point x="27" y="134" type="curve" smooth="yes"/>
			<point x="27" y="112"/>
			<point x="45" y="94"/>
			<point x="67" y="94" type="curve" smooth="yes"/>
			<point x="91" y="94"/>
			<point x="109" y="115"/>
			<point x="133" y="158" type="curve" smooth="yes"/>
			<point x="162" y="209" type="line"/>
		</contour>
		<contour>
			<point x="359" y="209" type="line"/>
			<point x="387" y="158" type="line" smooth="yes"/>
			<point x="412" y="115"/>
			<point x="429" y="94"/>
			<point x="453" y="94" type="curve" smooth="yes"/>
			<point x="475" y="94"/>
			<point x="493" y="112"/>
			<point x="493" y="134" type="curve" smooth="yes"/>
			<point x="493" y="157"/>
			<point x="471" y="175"/>
			<point x="429" y="200" type="curve" smooth="yes"/>
			<point x="378" y="228" type="line"/>
		</contour>
	</outline>
</glyph>
<glyph name="yen" format="2">
	<unicode hex="00A5"/>
	<advance width="557"/>
	<outline>
		<contour>
			<point x="320" y="248" type="line"/>
			<point x="506" y="649" type="line"/>
			<point x="432" y="649" type="line"/>
			<point x="298" y="317" type="line"/>
			<point x="319" y="317" type="line"/>
			<point x="196" y="649" type="line"/>
			<point x="53" y="649" type="line"/>
			<point x="241" y="248" type="line"/>
		</contour>
		<contour>
			<point x="93" y="585" type="line"/>
			<point x="203" y="585" type="line"/>
			<point x="280" y="585" type="line"/>
			<point x="280" y="649" type="line"/>
			<point x="27" y="649" type="line"/>
			<point x="27" y="585" type="line"/>
		</contour>
		<contour>
			<point x="249" y="64" type="line"/>
			<point x="127" y="64" type="line"/>
			<point x="127" y="0" type="line"/>
			<point x="434" y="0" type="line"/>
			<point x="434" y="64" type="line"/>
			<point x="312" y="64" type="line"/>
		</contour>
		<contour>
			<point x="222" y="166" type="line" smooth="yes"/>
			<point x="222" y="111"/>
			<point x="222" y="55"/>
			<point x="222" y="0" type="curve"/>
			<point x="339" y="0" type="line"/>
			<point x="339" y="55"/>
			<point x="339" y="110"/>
			<point x="339" y="165" type="curve" smooth="yes"/>
			<point x="339" y="320" type="line"/>
			<point x="222" y="320" type="line"/>
		</contour>
		<contour>
			<point x="416" y="585" type="line"/>
			<point x="464" y="585" type="line"/>
			<point x="531" y="585" type="line"/>
			<point x="531" y="649" type="line"/>
			<point x="348" y="649" type="line"/>
			<point x="348" y="585" type="line"/>
		</contour>
		<contour>
			<point x="85" y="142" type="line"/>
			<point x="476" y="142" type="line"/>
			<point x="476" y="195" type="line"/>
			<point x="85" y="195" type="line"/>
		</contour>
		<contour>
			<point x="85" y="268" type="line"/>
			<point x="476" y="268" type="line"/>
			<point x="476" y="321" type="line"/>
			<point x="85" y="321" type="line"/>
		</contour>
	</outline>
</glyph>
<glyph name="brokenbar" format="2">
	<unicode hex="00A6"/>
	<advance width="262"/>
	<outline>
		<contour>
			<point x="85" y="-225" type="line"/>
			<point x="177" y="-225" type="line"/>
			<point x="177" y="197" type="line"/>
			<point x="85" y="197" type="line"/>
		</contour>
		<contour>
			<point x="177" y="328" type="line"/>
			<point x="177" y="743" type="line"/>
			<point x="85" y="743" type="line"/>
			<point x="85" y="328" type="line"/>
		</contour>
	</outline>
</glyph>
<glyph name="section" format="2">
	<unicode hex="00A7"/>
	<advance width="517"/>
	<outline>
		<contour>
			<point x="243" y="-108" type="curve" smooth="yes"/>
			<point x="356" y="-108"/>
			<point x="441" y="-51"/>
			<point x="441" y="49" type="curve" smooth="yes"/>
			<point x="441" y="104"/>
			<point x="415" y="142"/>
			<point x="361" y="175" type="curve"/>
			<point x="355" y="178" type="line"/>
			<point x="329" y="194"/>
			<point x="297" y="207"/>
			<point x="259" y="220" type="curve" smooth="yes"/>
			<point x="168" y="251"/>
			<point x="141" y="283"/>
			<point x="141" y="328" type="curve" smooth="yes"/>
			<point x="141" y="371"/>
			<point x="158" y="400"/>
			<point x="174" y="413" type="curve"/>
			<point x="142" y="432" type="line"/>
			<point x="138" y="401" type="line"/>
			<point x="89" y="381"/>
			<point x="45" y="351"/>
			<point x="45" y="285" type="curve" smooth="yes"/>
			<point x="45" y="198"/>
			<point x="120" y="158"/>
			<point x="227" y="120" type="curve" smooth="yes"/>
			<point x="307" y="91"/>
			<point x="339" y="65"/>
			<point x="339" y="18" type="curve" smooth="yes"/>
			<point x="339" y="-29"/>
			<point x="304" y="-63"/>
			<point x="239" y="-63" type="curve" smooth="yes"/>
			<point x="205" y="-63"/>
			<point x="179" y="-59"/>
			<point x="163" y="-55" type="curve"/>
			<point x="201" y="-77" type="line"/>
			<point x="181" y="-16" type="line" smooth="yes"/>
			<point x="167" y="33"/>
			<point x="141" y="48"/>
			<point x="106" y="48" type="curve" smooth="yes"/>
			<point x="75" y="48"/>
			<point x="56" y="31"/>
			<point x="48" y="1" type="curve"/>
			<point x="64" y="-63"/>
			<point x="132" y="-108"/>
		</contour>
		<contour>
			<point x="263" y="680" type="curve" smooth="yes"/>
			<point x="153" y="680"/>
			<point x="68" y="627"/>
			<point x="68" y="531" type="curve" smooth="yes"/>
			<point x="68" y="479"/>
			<point x="94" y="444"/>
			<point x="146" y="414" type="curve"/>
			<point x="154" y="410" type="line"/>
			<point x="180" y="395"/>
			<point x="213" y="382"/>
			<point x="251" y="369" type="curve" smooth="yes"/>
			<point x="341" y="339"/>
			<point x="369" y="307"/>
			<point x="369" y="261" type="curve" smooth="yes"/>
			<point x="369" y="219"/>
			<point x="351" y="189"/>
			<point x="335" y="176" type="curve"/>
			<point x="367" y="158" type="line"/>
			<point x="371" y="189" type="line"/>
			<point x="420" y="208"/>
			<point x="464" y="238"/>
			<point x="464" y="305" type="curve" smooth="yes"/>
			<point x="464" y="391"/>
			<point x="389" y="432"/>
			<point x="283" y="469" type="curve" smooth="yes"/>
			<point x="203" y="498"/>
			<point x="170" y="519"/>
			<point x="170" y="562" type="curve" smooth="yes"/>
			<point x="170" y="605"/>
			<point x="205" y="635"/>
			<point x="267" y="635" type="curve" smooth="yes"/>
			<point x="296" y="635"/>
			<point x="323" y="631"/>
			<point x="339" y="627" type="curve"/>
			<point x="301" y="649" type="line"/>
			<point x="320" y="588" type="line" smooth="yes"/>
			<point x="334" y="539"/>
			<point x="360" y="524"/>
			<point x="395" y="524" type="curve" smooth="yes"/>
			<point x="426" y="524"/>
			<point x="445" y="541"/>
			<point x="453" y="571" type="curve"/>
			<point x="437" y="635"/>
			<point x="369" y="680"/>
		</contour>
	</outline>
</glyph>
<glyph name="copyright" format="2">
	<unicode hex="00A9"/>
	<advance width="751"/>
	<outline>
		<contour>
			<point x="376" y="-16" type="curve" smooth="yes"/>
			<point x="565" y="-16"/>
			<point x="721" y="116"/>
			<point x="721" y="331" type="curve" smooth="yes"/>
			<point x="721" y="547"/>
			<point x="565" y="680"/>
			<point x="376" y="680" type="curve" smooth="yes"/>
			<point x="186" y="680"/>
			<point x="30" y="547"/>
			<point x="30" y="331" type="curve" smooth="yes"/>
			<point x="30" y="116"/>
			<point x="186" y="-16"/>
		</contour>
		<contour>
			<point x="376" y="35" type="curve" smooth="yes"/>
			<point x="217" y="35"/>
			<point x="91" y="148"/>
			<point x="91" y="331" type="curve" smooth="yes"/>
			<point x="91" y="515"/>
			<point x="217" y="629"/>
			<point x="376" y="629" type="curve" smooth="yes"/>
			<point x="535" y="629"/>
			<point x="661" y="516"/>
			<point x="661" y="331" type="curve" smooth="yes"/>
			<point x="661" y="148"/>
			<point x="535" y="35"/>
		</contour>
		<contour>
			<point x="393" y="130" type="curve" smooth="yes"/>
			<point x="440" y="130"/>
			<point x="480" y="140"/>
			<point x="515" y="157" type="curve"/>
			<point x="517" y="269" type="line"/>
			<point x="465" y="269" type="line"/>
			<point x="449" y="157" type="line"/>
			<point x="495" y="204" type="line"/>
			<point x="467" y="188"/>
			<point x="429" y="183"/>
			<point x="405" y="183" type="curve" smooth="yes"/>
			<point x="332" y="183"/>
			<point x="280" y="236"/>
			<point x="280" y="334" type="curve" smooth="yes"/>
			<point x="280" y="434"/>
			<point x="338" y="487"/>
			<point x="407" y="487" type="curve" smooth="yes"/>
			<point x="433" y="487"/>
			<point x="461" y="481"/>
			<point x="490" y="464" type="curve"/>
			<point x="444" y="510" type="line"/>
			<point x="461" y="399" type="line"/>
			<point x="512" y="399" type="line"/>
			<point x="510" y="511" type="line"/>
			<point x="473" y="531"/>
			<point x="441" y="538"/>
			<point x="394" y="538" type="curve" smooth="yes"/>
			<point x="282" y="538"/>
			<point x="190" y="459"/>
			<point x="190" y="334" type="curve" smooth="yes"/>
			<point x="190" y="208"/>
			<point x="277" y="130"/>
		</contour>
	</outline>
</glyph>
<glyph name="registered" format="2">
	<unicode hex="00AE"/>
	<advance width="465"/>
	<outline>
		<contour>
			<point x="337" y="444" type="line"/>
			<point x="288" y="444" type="line"/>
			<point x="317" y="433" type="line"/>
			<point x="307" y="476" type="line" smooth="yes"/>
			<point x="299" y="504"/>
			<point x="288" y="509"/>
			<point x="232" y="509" type="curve"/>
			<point x="232" y="519" type="line"/>
			<point x="288" y="519"/>
			<point x="317" y="532"/>
			<point x="317" y="567" type="curve" smooth="yes"/>
			<point x="317" y="599"/>
			<point x="288" y="619"/>
			<point x="232" y="619" type="curve" smooth="yes"/>
			<point x="195" y="619" type="line"/>
			<point x="195" y="593" type="line"/>
			<point x="227" y="593" type="line" smooth="yes"/>
			<point x="253" y="593"/>
			<point x="264" y="581"/>
			<point x="264" y="561" type="curve" smooth="yes"/>
			<point x="264" y="541"/>
			<point x="253" y="526"/>
			<point x="227" y="525" type="curve" smooth="yes"/>
			<point x="195" y="525" type="line"/>
			<point x="195" y="503" type="line"/>
			<point x="227" y="503" type="line" smooth="yes"/>
			<point x="245" y="502"/>
			<point x="251" y="497"/>
			<point x="255" y="480" type="curve" smooth="yes"/>
			<point x="260" y="451" type="line" smooth="yes"/>
			<point x="265" y="423"/>
			<point x="276" y="412"/>
			<point x="309" y="412" type="curve" smooth="yes"/>
			<point x="323" y="412"/>
			<point x="331" y="414"/>
			<point x="337" y="415" type="curve"/>
		</contour>
		<contour>
			<point x="177" y="444" type="line"/>
			<point x="135" y="444" type="line"/>
			<point x="135" y="415" type="line"/>
			<point x="236" y="415" type="line"/>
			<point x="236" y="444" type="line"/>
			<point x="193" y="444" type="line"/>
		</contour>
		<contour>
			<point x="176" y="589" type="line"/>
			<point x="184" y="589" type="line"/>
			<point x="184" y="619" type="line"/>
			<point x="135" y="619" type="line"/>
			<point x="135" y="589" type="line"/>
		</contour>
		<contour>
			<point x="73" y="514" type="curve" smooth="yes"/>
			<point x="73" y="614"/>
			<point x="145" y="674"/>
			<point x="232" y="674" type="curve" smooth="yes"/>
			<point x="319" y="674"/>
			<point x="390" y="614"/>
			<point x="390" y="514" type="curve" smooth="yes"/>
			<point x="390" y="415"/>
			<point x="319" y="352"/>
			<point x="232" y="352" type="curve" smooth="yes"/>
			<point x="145" y="352"/>
			<point x="73" y="415"/>
		</contour>
		<contour>
			<point x="160" y="415" type="line"/>
			<point x="211" y="415" type="line"/>
			<point x="211" y="619" type="line"/>
			<point x="160" y="619" type="line"/>
		</contour>
		<contour>
			<point x="30" y="514" type="curve" smooth="yes"/>
			<point x="30" y="390"/>
			<point x="121" y="314"/>
			<point x="232" y="314" type="curve" smooth="yes"/>
			<point x="341" y="314"/>
			<point x="433" y="390"/>
			<point x="433" y="514" type="curve" smooth="yes"/>
			<point x="433" y="639"/>
			<point x="340" y="713"/>
			<point x="232" y="713" type="curve" smooth="yes"/>
			<point x="124" y="713"/>
			<point x="30" y="639"/>
		</contour>
	</outline>
</glyph>
<glyph name="degree" format="2">
	<unicode hex="00B0"/>
	<advance width="360"/>
	<outline>
		<contour>
			<point x="180" y="451" type="curve" smooth="yes"/>
			<point x="129" y="451"/>
			<point x="93" y="486"/>
			<point x="93" y="541" type="curve" smooth="yes"/>
			<point x="93" y="595"/>
			<point x="129" y="632"/>
			<point x="180" y="632" type="curve" smooth="yes"/>
			<point x="231" y="632"/>
			<point x="267" y="595"/>
			<point x="267" y="541" type="curve" smooth="yes"/>
			<point x="267" y="486"/>
			<point x="231" y="451"/>
		</contour>
		<contour>
			<point x="180" y="403" type="curve" smooth="yes"/>
			<point x="261" y="403"/>
			<point x="323" y="456"/>
			<point x="323" y="541" type="curve" smooth="yes"/>
			<point x="323" y="625"/>
			<point x="261" y="680"/>
			<point x="180" y="680" type="curve" smooth="yes"/>
			<point x="99" y="680"/>
			<point x="37" y="625"/>
			<point x="37" y="541" type="curve" smooth="yes"/>
			<point x="37" y="456"/>
			<point x="99" y="403"/>
		</contour>
	</outline>
</glyph>
<glyph name="two.sups" format="2">
	<unicode hex="00B2"/>
	<advance width="408"/>
	<outline>
		<contour>
			<point x="45" y="422" type="line"/>
			<point x="365" y="422" type="line"/>
			<point x="365" y="507" type="line"/>
			<point x="111" y="507" type="line"/>
			<point x="111" y="527" type="line"/>
			<point x="100" y="513" type="line"/>
			<point x="206" y="564" type="line" smooth="yes"/>
			<point x="317" y="615"/>
			<point x="356" y="672"/>
			<point x="356" y="739" type="curve" smooth="yes"/>
			<point x="356" y="811"/>
			<point x="293" y="857"/>
			<point x="194" y="857" type="curve" smooth="yes"/>
			<point x="110" y="857"/>
			<point x="50" y="815"/>
			<point x="40" y="747" type="curve"/>
			<point x="44" y="729"/>
			<point x="60" y="712"/>
			<point x="87" y="712" type="curve" smooth="yes"/>
			<point x="120" y="712"/>
			<point x="137" y="732"/>
			<point x="144" y="768" type="curve" smooth="yes"/>
			<point x="156" y="836" type="line"/>
			<point x="103" y="811" type="line"/>
			<point x="118" y="813"/>
			<point x="135" y="816"/>
			<point x="164" y="816" type="curve" smooth="yes"/>
			<point x="220" y="816"/>
			<point x="249" y="790"/>
			<point x="249" y="737" type="curve" smooth="yes"/>
			<point x="249" y="689"/>
			<point x="227" y="640"/>
			<point x="145" y="571" type="curve" smooth="yes"/>
			<point x="45" y="487" type="line"/>
		</contour>
	</outline>
</glyph>
<glyph name="three.sups" format="2">
	<unicode hex="00B3"/>
	<advance width="408"/>
	<outline>
		<contour>
			<point x="186" y="413" type="curve" smooth="yes"/>
			<point x="312" y="413"/>
			<point x="371" y="468"/>
			<point x="371" y="534" type="curve" smooth="yes"/>
			<point x="371" y="605"/>
			<point x="319" y="635"/>
			<point x="219" y="637" type="curve"/>
			<point x="219" y="650" type="line"/>
			<point x="305" y="652"/>
			<point x="360" y="691"/>
			<point x="360" y="753" type="curve" smooth="yes"/>
			<point x="360" y="815"/>
			<point x="302" y="857"/>
			<point x="200" y="857" type="curve" smooth="yes"/>
			<point x="115" y="857"/>
			<point x="65" y="821"/>
			<point x="54" y="761" type="curve"/>
			<point x="59" y="742"/>
			<point x="72" y="729"/>
			<point x="98" y="729" type="curve" smooth="yes"/>
			<point x="127" y="729"/>
			<point x="143" y="743"/>
			<point x="150" y="776" type="curve" smooth="yes"/>
			<point x="159" y="837" type="line"/>
			<point x="118" y="811" type="line"/>
			<point x="133" y="813"/>
			<point x="148" y="816"/>
			<point x="175" y="816" type="curve" smooth="yes"/>
			<point x="230" y="816"/>
			<point x="256" y="794"/>
			<point x="256" y="742" type="curve" smooth="yes"/>
			<point x="256" y="692"/>
			<point x="229" y="663"/>
			<point x="163" y="663" type="curve" smooth="yes"/>
			<point x="139" y="663" type="line"/>
			<point x="139" y="620" type="line"/>
			<point x="165" y="620" type="line" smooth="yes"/>
			<point x="235" y="620"/>
			<point x="265" y="589"/>
			<point x="265" y="539" type="curve" smooth="yes"/>
			<point x="265" y="487"/>
			<point x="235" y="454"/>
			<point x="168" y="454" type="curve" smooth="yes"/>
			<point x="139" y="454"/>
			<point x="119" y="457"/>
			<point x="105" y="459" type="curve"/>
			<point x="142" y="433" type="line"/>
			<point x="135" y="499" type="line" smooth="yes"/>
			<point x="129" y="536"/>
			<point x="108" y="551"/>
			<point x="81" y="551" type="curve" smooth="yes"/>
			<point x="56" y="551"/>
			<point x="42" y="535"/>
			<point x="37" y="509" type="curve"/>
			<point x="51" y="447"/>
			<point x="100" y="413"/>
		</contour>
	</outline>
</glyph>
<glyph name="paragraph" format="2">
	<unicode hex="00B6"/>
	<advance width="629"/>
	<outline>
		<contour>
			<point x="315" y="132" type="curve"/>
			<point x="315" y="595" type="line"/>
			<point x="427" y="595" type="line"/>
			<point x="427" y="664" type="line"/>
			<point x="336" y="664" type="line" smooth="yes"/>
			<point x="140" y="664"/>
			<point x="23" y="567"/>
			<point x="23" y="399" type="curve" smooth="yes"/>
			<point x="23" y="231"/>
			<point x="143" y="132"/>
		</contour>
		<contour>
			<point x="400" y="-125" type="curve"/>
			<point x="506" y="-125" type="line"/>
			<point x="506" y="-21"/>
			<point x="506" y="83"/>
			<point x="506" y="187" type="curve" smooth="yes"/>
			<point x="506" y="353" type="line" smooth="yes"/>
			<point x="506" y="457"/>
			<point x="506" y="560"/>
			<point x="506" y="664" type="curve"/>
			<point x="400" y="664" type="line"/>
			<point x="400" y="187" type="line" smooth="yes"/>
			<point x="400" y="83"/>
			<point x="400" y="-21"/>
		</contour>
		<contour>
			<point x="469" y="595" type="line"/>
			<point x="485" y="595" type="line"/>
			<point x="594" y="595" type="line"/>
			<point x="594" y="664" type="line"/>
			<point x="469" y="664" type="line"/>
		</contour>
	</outline>
</glyph>
<glyph name="one.sups" format="2">
	<unicode hex="00B9"/>
	<advance width="408"/>
	<outline>
		<contour>
			<point x="65" y="422" type="line"/>
			<point x="345" y="422" type="line"/>
			<point x="345" y="471" type="line"/>
			<point x="230" y="471" type="line"/>
			<point x="176" y="471" type="line"/>
			<point x="65" y="471" type="line"/>
		</contour>
		<contour>
			<point x="153" y="422" type="line"/>
			<point x="260" y="422" type="line"/>
			<point x="260" y="847" type="line"/>
			<point x="223" y="847" type="line"/>
			<point x="77" y="802" type="line"/>
			<point x="77" y="754" type="line"/>
			<point x="153" y="765" type="line"/>
		</contour>
	</outline>
</glyph>
<glyph name="multiply" format="2">
	<unicode hex="00D7"/>
	<advance width="557"/>
	<outline>
		<contour>
			<point x="446" y="100" type="line"/>
			<point x="505" y="159" type="line"/>
			<point x="110" y="554" type="line"/>
			<point x="51" y="496" type="line"/>
		</contour>
		<contour>
			<point x="504" y="497" type="line"/>
			<point x="447" y="553" type="line"/>
			<point x="52" y="158" type="line"/>
			<point x="109" y="101" type="line"/>
		</contour>
	</outline>
</glyph>
<glyph name="Thorn" format="2">
	<unicode hex="00DE"/>
	<advance width="660"/>
	<outline>
		<contour>
			<point x="218" y="148" type="line"/>
			<point x="322" y="148" type="line" smooth="yes"/>
			<point x="527" y="148"/>
			<point x="624" y="227"/>
			<point x="624" y="347" type="curve" smooth="yes"/>
			<point x="624" y="463"/>
			<point x="527" y="529"/>
			<point x="333" y="529" type="curve" smooth="yes"/>
			<point x="234" y="529" type="line"/>
			<point x="234" y="464" type="line"/>
			<point x="325" y="464" type="line" smooth="yes"/>
			<point x="434" y="464"/>
			<point x="477" y="424"/>
			<point x="477" y="343" type="curve" smooth="yes"/>
			<point x="477" y="260"/>
			<point x="434" y="212"/>
			<point x="312" y="212" type="curve" smooth="yes"/>
			<point x="218" y="212" type="line"/>
		</contour>
		<contour>
			<point x="125" y="0" type="curve"/>
			<point x="269" y="0" type="line"/>
			<point x="269" y="101"/>
			<point x="269" y="202"/>
			<point x="269" y="303" type="curve" smooth="yes"/>
			<point x="269" y="363" type="line" smooth="yes"/>
			<point x="269" y="464"/>
			<point x="269" y="563"/>
			<point x="269" y="664" type="curve"/>
			<point x="125" y="664" type="line"/>
			<point x="125" y="563"/>
			<point x="125" y="464"/>
			<point x="125" y="363" type="curve" smooth="yes"/>
			<point x="125" y="303" type="line" smooth="yes"/>
			<point x="125" y="202"/>
			<point x="125" y="101"/>
		</contour>
		<contour>
			<point x="179" y="595" type="line"/>
			<point x="248" y="595" type="line"/>
			<point x="380" y="595" type="line"/>
			<point x="380" y="664" type="line"/>
			<point x="31" y="664" type="line"/>
			<point x="31" y="595" type="line"/>
		</contour>
		<contour>
			<point x="31" y="0" type="line"/>
			<point x="380" y="0" type="line"/>
			<point x="380" y="69" type="line"/>
			<point x="232" y="69" type="line"/>
			<point x="163" y="69" type="line"/>
			<point x="31" y="69" type="line"/>
		</contour>
	</outline>
</glyph>
<glyph name="germandbls" format="2">
	<unicode hex="00DF"/>
	<advance width="689"/>
	<outline>
		<contour>
			<point x="35" y="0" type="line"/>
			<point x="221" y="0" type="line"/>
			<point x="221" y="65" type="line"/>
			<point x="132" y="65" type="line"/>
			<point x="35" y="65" type="line"/>
		</contour>
		<contour>
			<point x="111" y="0" type="curve"/>
			<point x="242" y="0" type="line"/>
			<point x="242" y="73"/>
			<point x="242" y="147"/>
			<point x="242" y="220" type="curve" smooth="yes"/>
			<point x="242" y="508" type="line" smooth="yes"/>
			<point x="242" y="570"/>
			<point x="256" y="603"/>
			<point x="280" y="631" type="curve" smooth="yes"/>
			<point x="304" y="658"/>
			<point x="338" y="673"/>
			<point x="381" y="673" type="curve" smooth="yes"/>
			<point x="449" y="673"/>
			<point x="484" y="635"/>
			<point x="484" y="586" type="curve" smooth="yes"/>
			<point x="484" y="537"/>
			<point x="457" y="508"/>
			<point x="420" y="473" type="curve" smooth="yes"/>
			<point x="383" y="439"/>
			<point x="348" y="404"/>
			<point x="348" y="349" type="curve" smooth="yes"/>
			<point x="348" y="285"/>
			<point x="389" y="253"/>
			<point x="460" y="215" type="curve" smooth="yes"/>
			<point x="521" y="180"/>
			<point x="543" y="159"/>
			<point x="543" y="119" type="curve" smooth="yes"/>
			<point x="543" y="79"/>
			<point x="516" y="45"/>
			<point x="459" y="45" type="curve" smooth="yes"/>
			<point x="420" y="45"/>
			<point x="383" y="53"/>
			<point x="353" y="67" type="curve"/>
			<point x="412" y="13" type="line"/>
			<point x="396" y="152" type="line"/>
			<point x="331" y="152" type="line"/>
			<point x="328" y="13" type="line"/>
			<point x="351" y="3"/>
			<point x="401" y="-13"/>
			<point x="463" y="-13" type="curve" smooth="yes"/>
			<point x="590" y="-13"/>
			<point x="658" y="55"/>
			<point x="658" y="141" type="curve" smooth="yes"/>
			<point x="658" y="217"/>
			<point x="605" y="262"/>
			<point x="536" y="302" type="curve" smooth="yes"/>
			<point x="475" y="339"/>
			<point x="450" y="360"/>
			<point x="450" y="393" type="curve" smooth="yes"/>
			<point x="450" y="425"/>
			<point x="472" y="452"/>
			<point x="514" y="483" type="curve" smooth="yes"/>
			<point x="557" y="513"/>
			<point x="597" y="537"/>
			<point x="597" y="603" type="curve" smooth="yes"/>
			<point x="597" y="683"/>
			<point x="521" y="735"/>
			<point x="388" y="735" type="curve" smooth="yes"/>
			<point x="327" y="735"/>
			<point x="265" y="721"/>
			<point x="218" y="688" type="curve" smooth="yes"/>
			<point x="151" y="642"/>
			<point x="111" y="575"/>
			<point x="111" y="452" type="curve" smooth="yes"/>
			<point x="111" y="220" type="line" smooth="yes"/>
			<point x="111" y="147"/>
			<point x="111" y="73"/>
		</contour>
	</outline>
</glyph>
<glyph name="ae" format="2">
	<unicode hex="00E6"/>
	<advance width="874"/>
	<outline>
		<contour>
			<point x="194" y="-16" type="curve" smooth="yes"/>
			<point x="293" y="-16"/>
			<point x="343" y="33"/>
			<point x="383" y="94" type="curve"/>
			<point x="416" y="94" type="line"/>
			<point x="400" y="153" type="line"/>
			<point x="352" y="109"/>
			<point x="314" y="74"/>
			<point x="256" y="74" type="curve" smooth="yes"/>
			<point x="198" y="74"/>
			<point x="168" y="106"/>
			<point x="168" y="151" type="curve" smooth="yes"/>
			<point x="168" y="192"/>
			<point x="188" y="218"/>
			<point x="250" y="237" type="curve" smooth="yes"/>
			<point x="297" y="251"/>
			<point x="344" y="265"/>
			<point x="388" y="278" type="curve"/>
			<point x="388" y="325" type="line"/>
			<point x="332" y="310"/>
			<point x="276" y="296"/>
			<point x="219" y="282" type="curve" smooth="yes"/>
			<point x="99" y="253"/>
			<point x="44" y="204"/>
			<point x="44" y="119" type="curve" smooth="yes"/>
			<point x="44" y="35"/>
			<point x="105" y="-16"/>
		</contour>
		<contour>
			<point x="615" y="-13" type="curve" smooth="yes"/>
			<point x="730" y="-13"/>
			<point x="789" y="35"/>
			<point x="836" y="103" type="curve"/>
			<point x="791" y="139" type="line"/>
			<point x="756" y="95"/>
			<point x="715" y="71"/>
			<point x="648" y="71" type="curve" smooth="yes"/>
			<point x="554" y="71"/>
			<point x="488" y="140"/>
			<point x="488" y="264" type="curve" smooth="yes"/>
			<point x="488" y="391"/>
			<point x="533" y="463"/>
			<point x="610" y="463" type="curve" smooth="yes"/>
			<point x="671" y="463"/>
			<point x="706" y="418"/>
			<point x="706" y="345" type="curve" smooth="yes"/>
			<point x="706" y="324"/>
			<point x="704" y="310"/>
			<point x="702" y="293" type="curve" smooth="yes"/>
			<point x="456" y="293" type="line"/>
			<point x="456" y="240" type="line"/>
			<point x="820" y="240" type="line"/>
			<point x="824" y="256"/>
			<point x="827" y="283"/>
			<point x="827" y="312" type="curve" smooth="yes"/>
			<point x="827" y="452"/>
			<point x="749" y="524"/>
			<point x="615" y="524" type="curve" smooth="yes"/>
			<point x="552" y="524"/>
			<point x="485" y="496"/>
			<point x="451" y="435" type="curve"/>
			<point x="436" y="435" type="line"/>
			<point x="409" y="499"/>
			<point x="358" y="524"/>
			<point x="283" y="524" type="curve" smooth="yes"/>
			<point x="165" y="524"/>
			<point x="73" y="464"/>
			<point x="57" y="375" type="curve"/>
			<point x="63" y="347"/>
			<point x="83" y="324"/>
			<point x="122" y="324" type="curve" smooth="yes"/>
			<point x="161" y="324"/>
			<point x="187" y="348"/>
			<point x="190" y="407" type="curve" smooth="yes"/>
			<point x="195" y="497" type="line"/>
			<point x="162" y="445" type="line"/>
			<point x="183" y="456"/>
			<point x="212" y="464"/>
			<point x="254" y="464" type="curve" smooth="yes"/>
			<point x="322" y="464"/>
			<point x="356" y="431"/>
			<point x="356" y="351" type="curve" smooth="yes"/>
			<point x="356" y="249" type="line" smooth="yes"/>
			<point x="356" y="89"/>
			<point x="453" y="-13"/>
		</contour>
	</outline>
	<anchor name="aboveLC" x="447" y="531"/>
	<anchor name="belowLC" x="409" y="-20"/>
</glyph>
<glyph name="divide" format="2">
	<unicode hex="00F7"/>
	<advance width="558"/>
	<outline>
		<contour>
			<point x="279" y="67" type="curve" smooth="yes"/>
			<point x="318" y="67"/>
			<point x="350" y="95"/>
			<point x="350" y="135" type="curve" smooth="yes"/>
			<point x="350" y="175"/>
			<point x="318" y="203"/>
			<point x="279" y="203" type="curve" smooth="yes"/>
			<point x="240" y="203"/>
			<point x="209" y="175"/>
			<point x="209" y="135" type="curve" smooth="yes"/>
			<point x="209" y="95"/>
			<point x="240" y="67"/>
		</contour>
		<contour>
			<point x="279" y="450" type="curve" smooth="yes"/>
			<point x="318" y="450"/>
			<point x="350" y="479"/>
			<point x="350" y="518" type="curve" smooth="yes"/>
			<point x="350" y="558"/>
			<point x="318" y="586"/>
			<point x="279" y="586" type="curve" smooth="yes"/>
			<point x="240" y="586"/>
			<point x="209" y="558"/>
			<point x="209" y="518" type="curve" smooth="yes"/>
			<point x="209" y="479"/>
			<point x="240" y="450"/>
		</contour>
		<component base="minus"/>
	</outline>
</glyph>
<glyph name="oslash" format="2">
	<unicode hex="00F8"/>
	<advance width="623"/>
	<outline>
		<contour>
			<point x="565" y="487" type="line"/>
			<point x="526" y="523" type="line"/>
			<point x="57" y="24" type="line"/>
			<point x="96" y="-12" type="line"/>
		</contour>
		<contour>
			<point x="311" y="-13" type="curve" smooth="yes"/>
			<point x="453" y="-13"/>
			<point x="578" y="87"/>
			<point x="578" y="259" type="curve" smooth="yes"/>
			<point x="578" y="431"/>
			<point x="453" y="524"/>
			<point x="311" y="524" type="curve" smooth="yes"/>
			<point x="169" y="524"/>
			<point x="44" y="427"/>
			<point x="44" y="253" type="curve" smooth="yes"/>
			<point x="44" y="80"/>
			<point x="169" y="-13"/>
		</contour>
		<contour>
			<point x="311" y="47" type="curve" smooth="yes"/>
			<point x="225" y="47"/>
			<point x="174" y="109"/>
			<point x="174" y="257" type="curve" smooth="yes"/>
			<point x="174" y="400"/>
			<point x="226" y="464"/>
			<point x="311" y="464" type="curve" smooth="yes"/>
			<point x="397" y="464"/>
			<point x="449" y="401"/>
			<point x="449" y="253" type="curve" smooth="yes"/>
			<point x="449" y="109"/>
			<point x="396" y="47"/>
		</contour>
	</outline>
	<anchor name="aboveLC" x="312" y="531"/>
</glyph>
<glyph name="aogonek" format="2">
	<unicode hex="0105"/>
	<advance width="589"/>
	<outline>
		<contour>
			<point x="185" y="-16" type="curve" smooth="yes"/>
			<point x="273" y="-16"/>
			<point x="312" y="37"/>
			<point x="334" y="80" type="curve"/>
			<point x="377" y="80" type="line"/>
			<point x="377" y="139" type="line"/>
			<point x="340" y="105"/>
			<point x="304" y="74"/>
			<point x="253" y="74" type="curve" smooth="yes"/>
			<point x="198" y="74"/>
			<point x="168" y="106"/>
			<point x="168" y="151" type="curve" smooth="yes"/>
			<point x="168" y="192"/>
			<point x="188" y="218"/>
			<point x="250" y="237" type="curve" smooth="yes"/>
			<point x="297" y="251"/>
			<point x="344" y="265"/>
			<point x="388" y="278" type="curve"/>
			<point x="388" y="325" type="line"/>
			<point x="332" y="310"/>
			<point x="276" y="296"/>
			<point x="219" y="282" type="curve" smooth="yes"/>
			<point x="99" y="253"/>
			<point x="44" y="204"/>
			<point x="44" y="119" type="curve" smooth="yes"/>
			<point x="44" y="35"/>
			<point x="105" y="-16"/>
		</contour>
		<contour>
			<point x="461" y="-227" type="curve" smooth="yes"/>
			<point x="519" y="-227"/>
			<point x="550" y="-205"/>
			<point x="568" y="-189" type="curve"/>
			<point x="546" y="-142" type="line"/>
			<point x="533" y="-149"/>
			<point x="520" y="-154"/>
			<point x="497" y="-154" type="curve" smooth="yes"/>
			<point x="460" y="-154"/>
			<point x="436" y="-131"/>
			<point x="436" y="-97" type="curve" smooth="yes"/>
			<point x="436" y="-54"/>
			<point x="464" y="-33"/>
			<point x="523" y="-7" type="curve" smooth="yes"/>
			<point x="554" y="7"/>
			<point x="569" y="17"/>
			<point x="582" y="29" type="curve"/>
			<point x="570" y="82" type="line"/>
			<point x="558" y="79"/>
			<point x="544" y="76"/>
			<point x="529" y="76" type="curve" smooth="yes"/>
			<point x="502" y="76"/>
			<point x="488" y="90"/>
			<point x="488" y="123" type="curve" smooth="yes"/>
			<point x="488" y="347" type="line" smooth="yes"/>
			<point x="488" y="473"/>
			<point x="408" y="524"/>
			<point x="284" y="524" type="curve" smooth="yes"/>
			<point x="165" y="524"/>
			<point x="73" y="464"/>
			<point x="58" y="375" type="curve"/>
			<point x="64" y="347"/>
			<point x="83" y="324"/>
			<point x="123" y="324" type="curve" smooth="yes"/>
			<point x="161" y="324"/>
			<point x="188" y="348"/>
			<point x="191" y="407" type="curve" smooth="yes"/>
			<point x="196" y="497" type="line"/>
			<point x="163" y="445" type="line"/>
			<point x="184" y="456"/>
			<point x="213" y="464"/>
			<point x="251" y="464" type="curve" smooth="yes"/>
			<point x="319" y="464"/>
			<point x="356" y="432"/>
			<point x="356" y="352" type="curve" smooth="yes"/>
			<point x="356" y="101" type="line"/>
			<point x="363" y="101" type="line" smooth="yes"/>
			<point x="371" y="43"/>
			<point x="404" y="17"/>
			<point x="452" y="4" type="curve" smooth="yes"/>
			<point x="452" y="-6"/>
			<point x="452" y="-16"/>
			<point x="452" y="-26" type="curve"/>
			<point x="460" y="-13" type="line"/>
			<point x="386" y="-36"/>
			<point x="348" y="-72"/>
			<point x="348" y="-128" type="curve" smooth="yes"/>
			<point x="348" y="-190"/>
			<point x="393" y="-227"/>
		</contour>
	</outline>
	<anchor name="aboveLC" x="288" y="531"/>
	<anchor name="belowLC" x="295" y="-20"/>
</glyph>
<glyph name="Hbar" format="2">
	<unicode hex="0126"/>
	<advance width="840"/>
	<outline>
		<contour>
			<point x="125" y="0" type="curve"/>
			<point x="269" y="0" type="line"/>
			<point x="269" y="101"/>
			<point x="269" y="202"/>
			<point x="269" y="303" type="curve" smooth="yes"/>
			<point x="269" y="328" type="line" smooth="yes"/>
			<point x="269" y="464"/>
			<point x="269" y="563"/>
			<point x="269" y="664" type="curve"/>
			<point x="125" y="664" type="line"/>
			<point x="125" y="563"/>
			<point x="125" y="464"/>
			<point x="125" y="363" type="curve" smooth="yes"/>
			<point x="125" y="303" type="line" smooth="yes"/>
			<point x="125" y="202"/>
			<point x="125" y="101"/>
		</contour>
		<contour>
			<point x="571" y="0" type="curve"/>
			<point x="715" y="0" type="line"/>
			<point x="715" y="101"/>
			<point x="715" y="202"/>
			<point x="715" y="303" type="curve" smooth="yes"/>
			<point x="715" y="363" type="line" smooth="yes"/>
			<point x="715" y="464"/>
			<point x="715" y="563"/>
			<point x="715" y="664" type="curve"/>
			<point x="571" y="664" type="line"/>
			<point x="571" y="563"/>
			<point x="571" y="464"/>
			<point x="571" y="328" type="curve" smooth="yes"/>
			<point x="571" y="303" type="line" smooth="yes"/>
			<point x="571" y="202"/>
			<point x="571" y="101"/>
		</contour>
		<contour>
			<point x="31" y="0" type="line"/>
			<point x="361" y="0" type="line"/>
			<point x="361" y="69" type="line"/>
			<point x="232" y="69" type="line"/>
			<point x="163" y="69" type="line"/>
			<point x="31" y="69" type="line"/>
		</contour>
		<contour>
			<point x="31" y="595" type="line"/>
			<point x="163" y="595" type="line"/>
			<point x="232" y="595" type="line"/>
			<point x="361" y="595" type="line"/>
			<point x="361" y="664" type="line"/>
			<point x="31" y="664" type="line"/>
		</contour>
		<contour>
			<point x="479" y="0" type="line"/>
			<point x="809" y="0" type="line"/>
			<point x="809" y="69" type="line"/>
			<point x="677" y="69" type="line"/>
			<point x="608" y="69" type="line"/>
			<point x="479" y="69" type="line"/>
		</contour>
		<contour>
			<point x="479" y="595" type="line"/>
			<point x="608" y="595" type="line"/>
			<point x="677" y="595" type="line"/>
			<point x="809" y="595" type="line"/>
			<point x="809" y="664" type="line"/>
			<point x="479" y="664" type="line"/>
		</contour>
		<contour>
			<point x="31" y="443" type="line"/>
			<point x="809" y="443" type="line"/>
			<point x="809" y="504" type="line"/>
			<point x="31" y="504" type="line"/>
		</contour>
		<contour>
			<point x="205" y="273" type="line"/>
			<point x="635" y="273" type="line"/>
			<point x="635" y="343" type="line"/>
			<point x="205" y="343" type="line"/>
		</contour>
	</outline>
</glyph>
<glyph name="dotlessi" format="2">
	<unicode hex="0131"/>
	<advance width="365"/>
	<outline>
		<contour>
			<point x="41" y="0" type="line"/>
			<point x="325" y="0" type="line"/>
			<point x="325" y="65" type="line"/>
			<point x="212" y="65" type="line"/>
			<point x="155" y="65" type="line"/>
			<point x="41" y="65" type="line"/>
		</contour>
		<contour>
			<point x="117" y="0" type="curve"/>
			<point x="249" y="0" type="line"/>
			<point x="249" y="73"/>
			<point x="249" y="147"/>
			<point x="249" y="220" type="curve" smooth="yes"/>
			<point x="249" y="390" type="line"/>
			<point x="249" y="511" type="line"/>
			<point x="201" y="511" type="line"/>
			<point x="37" y="464" type="line"/>
			<point x="37" y="405" type="line"/>
			<point x="117" y="405" type="line"/>
			<point x="117" y="362"/>
			<point x="117" y="319"/>
			<point x="117" y="276" type="curve" smooth="yes"/>
			<point x="117" y="220" type="line" smooth="yes"/>
			<point x="117" y="147"/>
			<point x="117" y="73"/>
		</contour>
	</outline>
	<anchor name="aboveLC" x="184" y="531"/>
	<anchor name="belowLC" x="186" y="-20"/>
	<anchor name="ogonek" x="229" y="0"/>
</glyph>
<glyph name="kgreenlandic" format="2">
	<unicode hex="0138"/>
	<advance width="660"/>
	<outline>
		<contour>
			<point x="37" y="0" type="line"/>
			<point x="319" y="0" type="line"/>
			<point x="319" y="65" type="line"/>
			<point x="208" y="65" type="line"/>
			<point x="151" y="65" type="line"/>
			<point x="37" y="65" type="line"/>
		</contour>
		<contour>
			<point x="113" y="0" type="curve"/>
			<point x="245" y="0" type="line"/>
			<point x="245" y="73"/>
			<point x="245" y="147"/>
			<point x="245" y="220" type="curve" smooth="yes"/>
			<point x="245" y="390" type="line"/>
			<point x="245" y="511" type="line"/>
			<point x="197" y="511" type="line"/>
			<point x="33" y="464" type="line"/>
			<point x="33" y="405" type="line"/>
			<point x="113" y="405" type="line"/>
			<point x="113" y="362"/>
			<point x="113" y="319"/>
			<point x="113" y="276" type="curve" smooth="yes"/>
			<point x="113" y="220" type="line" smooth="yes"/>
			<point x="113" y="147"/>
			<point x="113" y="73"/>
		</contour>
		<contour>
			<point x="213" y="144" type="line"/>
			<point x="617" y="505" type="line"/>
			<point x="515" y="505" type="line"/>
			<point x="389" y="382" type="line"/>
			<point x="264" y="229" type="line"/>
			<point x="213" y="229" type="line"/>
		</contour>
		<contour>
			<point x="459" y="0" type="line"/>
			<point x="644" y="0" type="line"/>
			<point x="644" y="63" type="line"/>
			<point x="551" y="69" type="line"/>
			<point x="580" y="58" type="line"/>
			<point x="397" y="361" type="line"/>
			<point x="315" y="277" type="line"/>
		</contour>
		<contour>
			<point x="483" y="439" type="line"/>
			<point x="504" y="439" type="line"/>
			<point x="636" y="449" type="line"/>
			<point x="636" y="511" type="line"/>
			<point x="359" y="511" type="line"/>
			<point x="359" y="449" type="line"/>
		</contour>
	</outline>
</glyph>
<glyph name="Lslash" format="2">
	<unicode hex="0141"/>
	<advance width="644"/>
	<outline>
		<contour>
			<point x="451" y="484" type="line"/>
			<point x="231" y="363" type="line"/>
			<point x="231" y="294" type="line"/>
			<point x="451" y="415" type="line"/>
		</contour>
		<contour>
			<point x="186" y="349" type="line"/>
			<point x="38" y="268" type="line"/>
			<point x="38" y="199" type="line"/>
			<point x="186" y="279" type="line"/>
		</contour>
		<component base="L"/>
	</outline>
</glyph>
<glyph name="lslash" format="2">
	<unicode hex="0142"/>
	<advance width="364"/>
	<outline>
		<contour>
			<point x="190" y="421" type="line"/>
			<point x="42" y="340" type="line"/>
			<point x="42" y="279" type="line"/>
			<point x="190" y="359" type="line"/>
		</contour>
		<contour>
			<point x="325" y="483" type="line"/>
			<point x="174" y="400" type="line"/>
			<point x="174" y="340" type="line"/>
			<point x="325" y="421" type="line"/>
		</contour>
		<component base="l"/>
	</outline>
</glyph>
<glyph name="oe" format="2">
	<unicode hex="0153"/>
	<advance width="953"/>
	<outline>
		<contour>
			<point x="306" y="-13" type="curve" smooth="yes"/>
			<point x="389" y="-13"/>
			<point x="456" y="28"/>
			<point x="493" y="94" type="curve"/>
			<point x="507" y="94" type="line"/>
			<point x="540" y="27"/>
			<point x="614" y="-13"/>
			<point x="694" y="-13" type="curve" smooth="yes"/>
			<point x="810" y="-13"/>
			<point x="869" y="40"/>
			<point x="915" y="103" type="curve"/>
			<point x="870" y="139" type="line"/>
			<point x="837" y="99"/>
			<point x="797" y="71"/>
			<point x="727" y="71" type="curve" smooth="yes"/>
			<point x="634" y="71"/>
			<point x="568" y="140"/>
			<point x="568" y="264" type="curve" smooth="yes"/>
			<point x="568" y="391"/>
			<point x="612" y="463"/>
			<point x="689" y="463" type="curve" smooth="yes"/>
			<point x="750" y="463"/>
			<point x="786" y="418"/>
			<point x="786" y="345" type="curve" smooth="yes"/>
			<point x="786" y="324"/>
			<point x="784" y="310"/>
			<point x="782" y="293" type="curve" smooth="yes"/>
			<point x="536" y="293" type="line"/>
			<point x="536" y="240" type="line"/>
			<point x="899" y="240" type="line"/>
			<point x="903" y="256"/>
			<point x="907" y="283"/>
			<point x="907" y="312" type="curve" smooth="yes"/>
			<point x="907" y="448"/>
			<point x="828" y="524"/>
			<point x="696" y="524" type="curve" smooth="yes"/>
			<point x="617" y="524"/>
			<point x="542" y="482"/>
			<point x="509" y="414" type="curve"/>
			<point x="495" y="414" type="line"/>
			<point x="457" y="484"/>
			<point x="387" y="524"/>
			<point x="306" y="524" type="curve" smooth="yes"/>
			<point x="164" y="524"/>
			<point x="44" y="427"/>
			<point x="44" y="253" type="curve" smooth="yes"/>
			<point x="44" y="78"/>
			<point x="163" y="-13"/>
		</contour>
		<contour>
			<point x="311" y="52" type="curve" smooth="yes"/>
			<point x="230" y="52"/>
			<point x="183" y="115"/>
			<point x="183" y="257" type="curve" smooth="yes"/>
			<point x="183" y="397"/>
			<point x="230" y="459"/>
			<point x="311" y="459" type="curve" smooth="yes"/>
			<point x="392" y="459"/>
			<point x="439" y="396"/>
			<point x="439" y="253" type="curve" smooth="yes"/>
			<point x="439" y="112"/>
			<point x="392" y="52"/>
		</contour>
	</outline>
	<anchor name="aboveLC" x="464" y="531"/>
</glyph>
<glyph name="tbar" format="2">
	<unicode hex="0167"/>
	<advance width="396"/>
	<outline>
		<contour>
			<point x="20" y="250" type="line"/>
			<point x="364" y="250" type="line"/>
			<point x="364" y="301" type="line"/>
			<point x="20" y="301" type="line"/>
		</contour>
		<component base="t"/>
	</outline>
</glyph>
<glyph name="Uogonek" format="2">
	<unicode hex="0172"/>
	<advance width="785"/>
	<outline>
		<contour>
			<point x="145" y="595" type="line"/>
			<point x="236" y="595" type="line"/>
			<point x="365" y="595" type="line"/>
			<point x="365" y="664" type="line"/>
			<point x="24" y="664" type="line"/>
			<point x="24" y="595" type="line"/>
		</contour>
		<contour>
			<point x="497" y="-227" type="curve" smooth="yes"/>
			<point x="550" y="-227"/>
			<point x="576" y="-209"/>
			<point x="594" y="-196" type="curve"/>
			<point x="579" y="-147" type="line"/>
			<point x="567" y="-151"/>
			<point x="552" y="-154"/>
			<point x="533" y="-154" type="curve" smooth="yes"/>
			<point x="496" y="-154"/>
			<point x="472" y="-131"/>
			<point x="472" y="-98" type="curve" smooth="yes"/>
			<point x="472" y="-59"/>
			<point x="488" y="-28"/>
			<point x="539" y="5" type="curve" smooth="yes"/>
			<point x="619" y="56"/>
			<point x="669" y="127"/>
			<point x="669" y="256" type="curve" smooth="yes"/>
			<point x="669" y="664" type="line"/>
			<point x="596" y="664" type="line"/>
			<point x="596" y="260" type="line" smooth="yes"/>
			<point x="596" y="119"/>
			<point x="533" y="57"/>
			<point x="429" y="57" type="curve" smooth="yes"/>
			<point x="325" y="57"/>
			<point x="262" y="119"/>
			<point x="262" y="260" type="curve" smooth="yes"/>
			<point x="262" y="363" type="line" smooth="yes"/>
			<point x="262" y="464"/>
			<point x="262" y="563"/>
			<point x="262" y="664" type="curve"/>
			<point x="119" y="664" type="line"/>
			<point x="119" y="563"/>
			<point x="119" y="464"/>
			<point x="119" y="363" type="curve" smooth="yes"/>
			<point x="119" y="248" type="line" smooth="yes"/>
			<point x="119" y="72"/>
			<point x="227" y="-11"/>
			<point x="384" y="-11" type="curve" smooth="yes"/>
			<point x="423" y="-11"/>
			<point x="453" y="-4"/>
			<point x="470" y="3" type="curve"/>
			<point x="476" y="-11" type="line"/>
			<point x="421" y="-36"/>
			<point x="384" y="-73"/>
			<point x="384" y="-129" type="curve" smooth="yes"/>
			<point x="384" y="-190"/>
			<point x="427" y="-227"/>
		</contour>
		<contour>
			<point x="617" y="595" type="line"/>
			<point x="648" y="595" type="line"/>
			<point x="761" y="595" type="line"/>
			<point x="761" y="664" type="line"/>
			<point x="493" y="664" type="line"/>
			<point x="493" y="595" type="line"/>
		</contour>
	</outline>
	<anchor name="aboveUC" x="428" y="684"/>
</glyph>
<glyph name="uogonek" format="2">
	<unicode hex="0173"/>
	<advance width="685"/>
	<outline>
		<contour>
			<point x="353" y="-130" type="curve" smooth="yes"/>
			<point x="353" y="-190"/>
			<point x="397" y="-227"/>
			<point x="465" y="-227" type="curve" smooth="yes"/>
			<point x="524" y="-227"/>
			<point x="556" y="-205"/>
			<point x="573" y="-189" type="curve"/>
			<point x="552" y="-142" type="line"/>
			<point x="538" y="-149"/>
			<point x="525" y="-154"/>
			<point x="502" y="-154" type="curve" smooth="yes"/>
			<point x="465" y="-154"/>
			<point x="441" y="-131"/>
			<point x="441" y="-99" type="curve" smooth="yes"/>
			<point x="441" y="-61"/>
			<point x="462" y="-29"/>
			<point x="504" y="11" type="curve"/>
			<point x="464" y="11" type="line"/>
			<point x="409" y="-19"/>
			<point x="353" y="-59"/>
		</contour>
		<component base="u"/>
	</outline>
	<anchor name="aboveLC" x="343" y="531"/>
	<anchor name="belowLC" x="343" y="-20"/>
</glyph>
<glyph name="longs" format="2">
	<unicode hex="017F"/>
	<advance width="381"/>
	<outline>
		<contour>
			<point x="36" y="0" type="line"/>
			<point x="336" y="0" type="line"/>
			<point x="336" y="65" type="line"/>
			<point x="223" y="65" type="line"/>
			<point x="133" y="65" type="line"/>
			<point x="36" y="65" type="line"/>
		</contour>
		<contour>
			<point x="112" y="0" type="curve"/>
			<point x="244" y="0" type="line"/>
			<point x="244" y="73"/>
			<point x="244" y="147"/>
			<point x="244" y="220" type="curve" smooth="yes"/>
			<point x="244" y="481" type="line" smooth="yes"/>
			<point x="244" y="592"/>
			<point x="255" y="639"/>
			<point x="281" y="693" type="curve" smooth="yes"/>
			<point x="282" y="699"/>
			<point x="284" y="703"/>
			<point x="286" y="709" type="curve"/>
			<point x="263" y="691" type="line"/>
			<point x="323" y="691" type="line"/>
			<point x="292" y="709" type="line"/>
			<point x="325" y="663" type="line" smooth="yes"/>
			<point x="351" y="633"/>
			<point x="374" y="612"/>
			<point x="414" y="612" type="curve" smooth="yes"/>
			<point x="456" y="612"/>
			<point x="476" y="638"/>
			<point x="477" y="671" type="curve"/>
			<point x="460" y="716"/>
			<point x="418" y="735"/>
			<point x="351" y="735" type="curve" smooth="yes"/>
			<point x="291" y="735"/>
			<point x="242" y="717"/>
			<point x="207" y="688" type="curve" smooth="yes"/>
			<point x="148" y="638"/>
			<point x="112" y="574"/>
			<point x="112" y="442" type="curve" smooth="yes"/>
			<point x="112" y="220" type="line" smooth="yes"/>
			<point x="112" y="147"/>
			<point x="112" y="73"/>
		</contour>
	</outline>
</glyph>
<glyph name="florin" format="2">
	<unicode hex="0192"/>
	<advance width="557"/>
	<outline>
		<contour>
			<point x="125" y="-101" type="curve" smooth="yes"/>
			<point x="181" y="-101"/>
			<point x="220" y="-80"/>
			<point x="249" y="-51" type="curve" smooth="yes"/>
			<point x="278" y="-21"/>
			<point x="320" y="25"/>
			<point x="333" y="189" type="curve" smooth="yes"/>
			<point x="347" y="384" type="line" smooth="yes"/>
			<point x="357" y="507"/>
			<point x="368" y="557"/>
			<point x="378" y="582" type="curve" smooth="yes"/>
			<point x="387" y="603"/>
			<point x="393" y="611"/>
			<point x="400" y="619" type="curve"/>
			<point x="475" y="619" type="line"/>
			<point x="419" y="631" type="line"/>
			<point x="435" y="586" type="line" smooth="yes"/>
			<point x="447" y="551"/>
			<point x="467" y="535"/>
			<point x="501" y="535" type="curve" smooth="yes"/>
			<point x="538" y="535"/>
			<point x="556" y="564"/>
			<point x="560" y="591" type="curve"/>
			<point x="546" y="620"/>
			<point x="515" y="653"/>
			<point x="435" y="653" type="curve" smooth="yes"/>
			<point x="379" y="653"/>
			<point x="340" y="632"/>
			<point x="311" y="603" type="curve" smooth="yes"/>
			<point x="281" y="573"/>
			<point x="240" y="527"/>
			<point x="227" y="363" type="curve" smooth="yes"/>
			<point x="212" y="168" type="line" smooth="yes"/>
			<point x="202" y="45"/>
			<point x="192" y="-8"/>
			<point x="183" y="-29" type="curve" smooth="yes"/>
			<point x="173" y="-51"/>
			<point x="167" y="-59"/>
			<point x="160" y="-67" type="curve" smooth="yes"/>
			<point x="85" y="-67" type="line"/>
			<point x="141" y="-79" type="line"/>
			<point x="125" y="-33" type="line" smooth="yes"/>
			<point x="113" y="1"/>
			<point x="93" y="17"/>
			<point x="59" y="17" type="curve" smooth="yes"/>
			<point x="21" y="17"/>
			<point x="4" y="-12"/>
			<point x="0" y="-39" type="curve"/>
			<point x="13" y="-68"/>
			<point x="45" y="-101"/>
		</contour>
		<contour>
			<point x="120" y="340" type="line"/>
			<point x="474" y="340" type="line"/>
			<point x="474" y="393" type="line"/>
			<point x="120" y="393" type="line"/>
		</contour>
	</outline>
</glyph>
<glyph name="Uhorn" format="2">
	<unicode hex="01AF"/>
	<advance width="785"/>
	<outline>
		<contour>
			<point x="397" y="-16" type="curve" smooth="yes"/>
			<point x="573" y="-16"/>
			<point x="669" y="81"/>
			<point x="669" y="256" type="curve" smooth="yes"/>
			<point x="669" y="664" type="line"/>
			<point x="596" y="664" type="line"/>
			<point x="596" y="260" type="line" smooth="yes"/>
			<point x="596" y="119"/>
			<point x="533" y="56"/>
			<point x="429" y="56" type="curve" smooth="yes"/>
			<point x="325" y="56"/>
			<point x="262" y="119"/>
			<point x="262" y="260" type="curve" smooth="yes"/>
			<point x="262" y="363" type="line" smooth="yes"/>
			<point x="262" y="464"/>
			<point x="262" y="563"/>
			<point x="262" y="664" type="curve"/>
			<point x="119" y="664" type="line"/>
			<point x="119" y="563"/>
			<point x="119" y="464"/>
			<point x="119" y="363" type="curve" smooth="yes"/>
			<point x="119" y="248" type="line" smooth="yes"/>
			<point x="119" y="71"/>
			<point x="227" y="-16"/>
		</contour>
		<contour>
			<point x="641" y="614" type="line"/>
			<point x="751" y="615"/>
			<point x="800" y="662"/>
			<point x="800" y="745" type="curve" smooth="yes"/>
			<point x="800" y="777"/>
			<point x="793" y="803"/>
			<point x="785" y="817" type="curve"/>
			<point x="775" y="821"/>
			<point x="761" y="827"/>
			<point x="743" y="827" type="curve" smooth="yes"/>
			<point x="706" y="827"/>
			<point x="689" y="807"/>
			<point x="689" y="775" type="curve" smooth="yes"/>
			<point x="689" y="735"/>
			<point x="714" y="719"/>
			<point x="714" y="691" type="curve" smooth="yes"/>
			<point x="714" y="670"/>
			<point x="688" y="664"/>
			<point x="641" y="664" type="curve"/>
		</contour>
		<contour>
			<point x="24" y="595" type="line"/>
			<point x="145" y="595" type="line"/>
			<point x="236" y="595" type="line"/>
			<point x="365" y="595" type="line"/>
			<point x="365" y="664" type="line"/>
			<point x="24" y="664" type="line"/>
		</contour>
		<contour>
			<point x="493" y="595" type="line"/>
			<point x="612" y="595" type="line"/>
			<point x="628" y="595" type="line"/>
			<point x="628" y="664" type="line"/>
			<point x="493" y="664" type="line"/>
		</contour>
	</outline>
	<anchor name="aboveUC" x="426" y="684"/>
	<anchor name="belowLC" x="401" y="-20"/>
</glyph>
<glyph name="uhorn" format="2">
	<unicode hex="01B0"/>
	<advance width="685"/>
	<outline>
		<contour>
			<point x="255" y="-13" type="curve" smooth="yes"/>
			<point x="339" y="-13"/>
			<point x="386" y="37"/>
			<point x="421" y="93" type="curve"/>
			<point x="464" y="93" type="line"/>
			<point x="464" y="149" type="line"/>
			<point x="413" y="113"/>
			<point x="363" y="90"/>
			<point x="313" y="90" type="curve" smooth="yes"/>
			<point x="256" y="90"/>
			<point x="230" y="119"/>
			<point x="230" y="185" type="curve" smooth="yes"/>
			<point x="230" y="388" type="line"/>
			<point x="230" y="511" type="line"/>
			<point x="182" y="511" type="line"/>
			<point x="16" y="487" type="line"/>
			<point x="16" y="434" type="line"/>
			<point x="141" y="408" type="line"/>
			<point x="100" y="459" type="line"/>
			<point x="99" y="157" type="line" smooth="yes"/>
			<point x="98" y="47"/>
			<point x="152" y="-13"/>
		</contour>
		<contour>
			<point x="464" y="-9" type="line"/>
			<point x="654" y="0" type="line"/>
			<point x="654" y="57" type="line"/>
			<point x="574" y="73" type="line"/>
			<point x="574" y="388" type="line"/>
			<point x="574" y="511" type="line"/>
			<point x="541" y="475" type="line"/>
			<point x="629" y="478"/>
			<point x="675" y="535"/>
			<point x="675" y="615" type="curve" smooth="yes"/>
			<point x="675" y="643"/>
			<point x="669" y="672"/>
			<point x="660" y="687" type="curve"/>
			<point x="648" y="693"/>
			<point x="637" y="697"/>
			<point x="618" y="697" type="curve" smooth="yes"/>
			<point x="583" y="697"/>
			<point x="564" y="675"/>
			<point x="564" y="645" type="curve" smooth="yes"/>
			<point x="564" y="603"/>
			<point x="592" y="592"/>
			<point x="592" y="555" type="curve" smooth="yes"/>
			<point x="592" y="529"/>
			<point x="576" y="517"/>
			<point x="526" y="511" type="curve" smooth="yes"/>
			<point x="360" y="487" type="line"/>
			<point x="360" y="434" type="line"/>
			<point x="443" y="417" type="line"/>
			<point x="443" y="101" type="line"/>
			<point x="453" y="101" type="line"/>
		</contour>
	</outline>
	<anchor name="aboveLC" x="333" y="531"/>
	<anchor name="belowLC" x="352" y="-20"/>
</glyph>
<glyph name="dotlessj" format="2">
	<unicode hex="0237"/>
	<advance width="335"/>
	<outline>
		<contour>
			<point x="41" y="-235" type="curve" smooth="yes"/>
			<point x="117" y="-235"/>
			<point x="166" y="-199"/>
			<point x="195" y="-146" type="curve" smooth="yes"/>
			<point x="226" y="-91"/>
			<point x="240" y="-28"/>
			<point x="240" y="96" type="curve" smooth="yes"/>
			<point x="240" y="391" type="line"/>
			<point x="240" y="511" type="line"/>
			<point x="192" y="511" type="line"/>
			<point x="28" y="464" type="line"/>
			<point x="28" y="405" type="line"/>
			<point x="108" y="405" type="line"/>
			<point x="108" y="362"/>
			<point x="108" y="319"/>
			<point x="108" y="276" type="curve" smooth="yes"/>
			<point x="108" y="133" type="line" smooth="yes"/>
			<point x="108" y="5"/>
			<point x="112" y="-72"/>
			<point x="108" y="-127" type="curve" smooth="yes"/>
			<point x="104" y="-159"/>
			<point x="102" y="-176"/>
			<point x="95" y="-198" type="curve"/>
			<point x="112" y="-185" type="line"/>
			<point x="69" y="-185" type="line"/>
			<point x="95" y="-197" type="line"/>
			<point x="80" y="-164" type="line" smooth="yes"/>
			<point x="66" y="-131"/>
			<point x="43" y="-108"/>
			<point x="0" y="-108" type="curve" smooth="yes"/>
			<point x="-44" y="-108"/>
			<point x="-67" y="-134"/>
			<point x="-73" y="-171" type="curve"/>
			<point x="-63" y="-202"/>
			<point x="-30" y="-235"/>
		</contour>
	</outline>
	<anchor name="aboveLC" x="176" y="531"/>
	<anchor name="belowLC" x="104" y="-243"/>
</glyph>
<glyph name="gscript" format="2">
	<unicode hex="0261"/>
	<advance width="656"/>
	<outline>
		<contour>
			<point x="278" y="-235" type="curve" smooth="yes"/>
			<point x="347" y="-235"/>
			<point x="409" y="-220"/>
			<point x="456" y="-189" type="curve" smooth="yes"/>
			<point x="517" y="-147"/>
			<point x="552" y="-78"/>
			<point x="552" y="25" type="curve"/>
			<point x="552" y="395" type="line"/>
			<point x="552" y="513" type="line"/>
			<point x="489" y="513" type="line"/>
			<point x="427" y="411" type="line"/>
			<point x="420" y="411" type="line"/>
			<point x="420" y="111" type="line"/>
			<point x="428" y="111" type="line"/>
			<point x="427" y="74"/>
			<point x="425" y="27"/>
			<point x="424" y="-10" type="curve" smooth="yes"/>
			<point x="422" y="-65"/>
			<point x="408" y="-108"/>
			<point x="379" y="-136" type="curve" smooth="yes"/>
			<point x="353" y="-162"/>
			<point x="316" y="-177"/>
			<point x="266" y="-177" type="curve" smooth="yes"/>
			<point x="228" y="-177"/>
			<point x="195" y="-173"/>
			<point x="163" y="-166" type="curve"/>
			<point x="208" y="-188" type="line"/>
			<point x="196" y="-129" type="line" smooth="yes"/>
			<point x="186" y="-79"/>
			<point x="167" y="-47"/>
			<point x="123" y="-47" type="curve" smooth="yes"/>
			<point x="91" y="-47"/>
			<point x="73" y="-67"/>
			<point x="64" y="-92" type="curve"/>
			<point x="76" y="-185"/>
			<point x="141" y="-235"/>
		</contour>
		<contour>
			<point x="249" y="-7" type="curve" smooth="yes"/>
			<point x="337" y="-7"/>
			<point x="369" y="45"/>
			<point x="395" y="99" type="curve"/>
			<point x="452" y="99" type="line"/>
			<point x="452" y="176" type="line"/>
			<point x="406" y="119"/>
			<point x="365" y="85"/>
			<point x="307" y="85" type="curve" smooth="yes"/>
			<point x="233" y="85"/>
			<point x="182" y="139"/>
			<point x="182" y="261" type="curve" smooth="yes"/>
			<point x="182" y="382"/>
			<point x="233" y="436"/>
			<point x="307" y="436" type="curve" smooth="yes"/>
			<point x="367" y="436"/>
			<point x="407" y="402"/>
			<point x="452" y="345" type="curve"/>
			<point x="452" y="424" type="line"/>
			<point x="402" y="424" type="line"/>
			<point x="373" y="480"/>
			<point x="337" y="524"/>
			<point x="251" y="524" type="curve" smooth="yes"/>
			<point x="134" y="524"/>
			<point x="44" y="430"/>
			<point x="44" y="254" type="curve" smooth="yes"/>
			<point x="44" y="86"/>
			<point x="132" y="-7"/>
		</contour>
	</outline>
	<anchor name="aboveLC" x="325" y="531"/>
	<anchor name="belowLC" x="295" y="-243"/>
</glyph>
<glyph name="h.sups" format="2">
	<unicode hex="02B0"/>
	<advance width="483"/>
	<outline>
		<contour>
			<point x="79" y="422" type="line"/>
			<point x="182" y="422" type="line"/>
			<point x="182" y="687" type="line"/>
			<point x="180" y="687" type="line"/>
			<point x="182" y="901" type="line"/>
			<point x="146" y="901" type="line"/>
			<point x="27" y="881" type="line"/>
			<point x="27" y="844" type="line"/>
			<point x="79" y="831" type="line"/>
		</contour>
		<contour>
			<point x="311" y="422" type="line"/>
			<point x="413" y="422" type="line"/>
			<point x="413" y="657" type="line" smooth="yes"/>
			<point x="413" y="733"/>
			<point x="377" y="775"/>
			<point x="309" y="775" type="curve" smooth="yes"/>
			<point x="251" y="775"/>
			<point x="221" y="736"/>
			<point x="204" y="702" type="curve"/>
			<point x="165" y="702" type="line"/>
			<point x="165" y="660" type="line"/>
			<point x="197" y="682"/>
			<point x="228" y="694"/>
			<point x="259" y="694" type="curve" smooth="yes"/>
			<point x="295" y="694"/>
			<point x="311" y="677"/>
			<point x="311" y="638" type="curve" smooth="yes"/>
		</contour>
		<contour>
			<point x="30" y="422" type="line"/>
			<point x="224" y="422" type="line"/>
			<point x="224" y="469" type="line"/>
			<point x="154" y="469" type="line"/>
			<point x="106" y="469" type="line"/>
			<point x="30" y="469" type="line"/>
		</contour>
		<contour>
			<point x="269" y="422" type="line"/>
			<point x="462" y="422" type="line"/>
			<point x="462" y="469" type="line"/>
			<point x="386" y="469" type="line"/>
			<point x="338" y="469" type="line"/>
			<point x="269" y="469" type="line"/>
		</contour>
	</outline>
</glyph>
<glyph name="j.sups" format="2">
	<unicode hex="02B2"/>
	<advance width="224"/>
	<outline>
		<contour>
			<point x="-1" y="257" type="curve" smooth="yes"/>
			<point x="64" y="257"/>
			<point x="100" y="282"/>
			<point x="126" y="317" type="curve" smooth="yes"/>
			<point x="151" y="352"/>
			<point x="168" y="392"/>
			<point x="168" y="476" type="curve" smooth="yes"/>
			<point x="168" y="747" type="line"/>
			<point x="129" y="747" type="line"/>
			<point x="9" y="711" type="line"/>
			<point x="9" y="667" type="line"/>
			<point x="58" y="667" type="line"/>
			<point x="58" y="476" type="line" smooth="yes"/>
			<point x="58" y="398"/>
			<point x="71" y="357"/>
			<point x="71" y="330" type="curve" smooth="yes"/>
			<point x="70" y="312"/>
			<point x="68" y="299"/>
			<point x="67" y="294" type="curve"/>
			<point x="27" y="294" type="line"/>
			<point x="51" y="280" type="line"/>
			<point x="31" y="313" type="line" smooth="yes"/>
			<point x="20" y="336"/>
			<point x="-1" y="352"/>
			<point x="-33" y="352" type="curve" smooth="yes"/>
			<point x="-69" y="352"/>
			<point x="-89" y="331"/>
			<point x="-95" y="305" type="curve"/>
			<point x="-87" y="284"/>
			<point x="-58" y="257"/>
		</contour>
		<contour>
			<point x="113" y="786" type="curve" smooth="yes"/>
			<point x="151" y="786"/>
			<point x="179" y="812"/>
			<point x="179" y="847" type="curve" smooth="yes"/>
			<point x="179" y="882"/>
			<point x="151" y="909"/>
			<point x="113" y="909" type="curve" smooth="yes"/>
			<point x="76" y="909"/>
			<point x="48" y="882"/>
			<point x="48" y="847" type="curve" smooth="yes"/>
			<point x="48" y="812"/>
			<point x="76" y="786"/>
		</contour>
	</outline>
</glyph>
<glyph name="w.sups" format="2">
	<unicode hex="02B7"/>
	<advance width="611"/>
	<outline>
		<contour>
			<point x="145" y="405" type="line"/>
			<point x="261" y="405" type="line"/>
			<point x="308" y="619" type="line"/>
			<point x="321" y="619" type="line"/>
			<point x="362" y="405" type="line"/>
			<point x="470" y="405" type="line"/>
			<point x="577" y="747" type="line"/>
			<point x="508" y="747" type="line"/>
			<point x="452" y="478" type="line"/>
			<point x="431" y="478" type="line"/>
			<point x="376" y="735" type="line"/>
			<point x="291" y="735" type="line"/>
			<point x="237" y="478" type="line"/>
			<point x="217" y="478" type="line"/>
			<point x="153" y="747" type="line"/>
			<point x="35" y="747" type="line"/>
		</contour>
		<contour>
			<point x="11" y="702" type="line"/>
			<point x="84" y="693" type="line"/>
			<point x="133" y="693" type="line"/>
			<point x="208" y="702" type="line"/>
			<point x="208" y="747" type="line"/>
			<point x="11" y="747" type="line"/>
		</contour>
		<contour>
			<point x="239" y="702" type="line"/>
			<point x="306" y="695" type="line"/>
			<point x="364" y="695" type="line"/>
			<point x="425" y="702" type="line"/>
			<point x="425" y="747" type="line"/>
			<point x="239" y="747" type="line"/>
		</contour>
		<contour>
			<point x="457" y="702" type="line"/>
			<point x="514" y="693" type="line"/>
			<point x="541" y="693" type="line"/>
			<point x="599" y="702" type="line"/>
			<point x="599" y="747" type="line"/>
			<point x="457" y="747" type="line"/>
		</contour>
	</outline>
</glyph>
<glyph name="y.sups" format="2">
	<unicode hex="02B8"/>
	<advance width="454"/>
	<outline>
		<contour>
			<point x="102" y="249" type="curve" smooth="yes"/>
			<point x="193" y="249"/>
			<point x="238" y="308"/>
			<point x="274" y="397" type="curve" smooth="yes"/>
			<point x="410" y="748" type="line"/>
			<point x="349" y="748" type="line"/>
			<point x="257" y="458" type="line"/>
			<point x="229" y="393" type="line" smooth="yes"/>
			<point x="207" y="344"/>
			<point x="185" y="309"/>
			<point x="160" y="287" type="curve"/>
			<point x="128" y="287" type="line"/>
			<point x="147" y="278" type="line"/>
			<point x="132" y="303" type="line" smooth="yes"/>
			<point x="118" y="323"/>
			<point x="102" y="341"/>
			<point x="68" y="341" type="curve" smooth="yes"/>
			<point x="38" y="341"/>
			<point x="20" y="321"/>
			<point x="14" y="298" type="curve"/>
			<point x="21" y="274"/>
			<point x="50" y="249"/>
		</contour>
		<contour>
			<point x="21" y="704" type="line"/>
			<point x="91" y="696" type="line"/>
			<point x="155" y="696" type="line"/>
			<point x="229" y="704" type="line"/>
			<point x="229" y="748" type="line"/>
			<point x="21" y="748" type="line"/>
		</contour>
		<contour>
			<point x="280" y="704" type="line"/>
			<point x="348" y="696" type="line"/>
			<point x="368" y="696" type="line"/>
			<point x="433" y="704" type="line"/>
			<point x="433" y="748" type="line"/>
			<point x="280" y="748" type="line"/>
		</contour>
		<contour>
			<point x="210" y="339" type="line"/>
			<point x="279" y="466" type="line"/>
			<point x="243" y="466" type="line"/>
			<point x="159" y="748" type="line"/>
			<point x="46" y="748" type="line"/>
		</contour>
	</outline>
</glyph>
<glyph name="ringhalfrightmod" format="2">
	<unicode hex="02BE"/>
	<advance width="171"/>
	<outline>
		<contour>
			<point x="23" y="547" type="line"/>
			<point x="97" y="547"/>
			<point x="148" y="585"/>
			<point x="148" y="655" type="curve" smooth="yes"/>
			<point x="148" y="725"/>
			<point x="97" y="763"/>
			<point x="23" y="763" type="curve"/>
			<point x="23" y="709" type="line"/>
			<point x="61" y="709"/>
			<point x="84" y="689"/>
			<point x="84" y="655" type="curve" smooth="yes"/>
			<point x="84" y="621"/>
			<point x="61" y="601"/>
			<point x="23" y="601" type="curve"/>
		</contour>
	</outline>
</glyph>
<glyph name="ringhalfleftmod" format="2">
	<unicode hex="02BF"/>
	<advance width="207"/>
	<outline>
		<contour>
			<point x="42" y="624" type="curve" smooth="yes"/>
			<point x="42" y="554"/>
			<point x="93" y="516"/>
			<point x="167" y="516" type="curve"/>
			<point x="167" y="570" type="line"/>
			<point x="129" y="570"/>
			<point x="106" y="590"/>
			<point x="106" y="624" type="curve" smooth="yes"/>
			<point x="106" y="658"/>
			<point x="129" y="678"/>
			<point x="167" y="678" type="curve"/>
			<point x="167" y="732" type="line"/>
			<point x="93" y="732"/>
			<point x="42" y="694"/>
		</contour>
	</outline>
</glyph>
<glyph name="verticallinemod" format="2">
	<unicode hex="02C8"/>
	<advance width="205"/>
	<outline>
		<contour>
			<point x="59" y="533" type="line"/>
			<point x="146" y="533" type="line"/>
			<point x="157" y="732" type="line"/>
			<point x="48" y="732" type="line"/>
		</contour>
	</outline>
</glyph>
<glyph name="colontriangularmod" format="2">
	<unicode hex="02D0"/>
	<advance width="300"/>
	<outline>
		<contour>
			<point x="61" y="483" type="line"/>
			<point x="145" y="339" type="line"/>
			<point x="155" y="339" type="line"/>
			<point x="239" y="483" type="line"/>
			<point x="233" y="492" type="line"/>
			<point x="67" y="492" type="line"/>
		</contour>
		<contour>
			<point x="61" y="9" type="line"/>
			<point x="67" y="0" type="line"/>
			<point x="233" y="0" type="line"/>
			<point x="239" y="9" type="line"/>
			<point x="155" y="153" type="line"/>
			<point x="145" y="153" type="line"/>
		</contour>
	</outline>
</glyph>
<glyph name="l.sups" format="2">
	<unicode hex="02E1"/>
	<advance width="243"/>
	<outline>
		<contour>
			<point x="21" y="405" type="line"/>
			<point x="222" y="405" type="line"/>
			<point x="222" y="454" type="line"/>
			<point x="146" y="454" type="line"/>
			<point x="97" y="454" type="line"/>
			<point x="21" y="454" type="line"/>
		</contour>
		<contour>
			<point x="66" y="405" type="line"/>
			<point x="177" y="405" type="line"/>
			<point x="177" y="891" type="line"/>
			<point x="138" y="891" type="line"/>
			<point x="17" y="870" type="line"/>
			<point x="17" y="831" type="line"/>
			<point x="66" y="816" type="line"/>
		</contour>
	</outline>
</glyph>
<glyph name="s.sups" format="2">
	<unicode hex="02E2"/>
	<advance width="338"/>
	<outline>
		<contour>
			<point x="155" y="397" type="curve" smooth="yes"/>
			<point x="251" y="397"/>
			<point x="315" y="441"/>
			<point x="315" y="512" type="curve" smooth="yes"/>
			<point x="315" y="575"/>
			<point x="265" y="604"/>
			<point x="193" y="624" type="curve" smooth="yes"/>
			<point x="182" y="627" type="line" smooth="yes"/>
			<point x="136" y="640"/>
			<point x="123" y="652"/>
			<point x="123" y="674" type="curve" smooth="yes"/>
			<point x="123" y="695"/>
			<point x="140" y="711"/>
			<point x="180" y="711" type="curve" smooth="yes"/>
			<point x="204" y="711"/>
			<point x="230" y="707"/>
			<point x="249" y="699" type="curve"/>
			<point x="209" y="733" type="line"/>
			<point x="237" y="651" type="line"/>
			<point x="293" y="651" type="line"/>
			<point x="293" y="734" type="line"/>
			<point x="263" y="746"/>
			<point x="219" y="755"/>
			<point x="177" y="755" type="curve" smooth="yes"/>
			<point x="84" y="755"/>
			<point x="23" y="714"/>
			<point x="23" y="648" type="curve" smooth="yes"/>
			<point x="23" y="587"/>
			<point x="70" y="560"/>
			<point x="141" y="538" type="curve" smooth="yes"/>
			<point x="152" y="535" type="line" smooth="yes"/>
			<point x="196" y="523"/>
			<point x="212" y="510"/>
			<point x="212" y="487" type="curve" smooth="yes"/>
			<point x="212" y="462"/>
			<point x="195" y="441"/>
			<point x="153" y="441" type="curve" smooth="yes"/>
			<point x="117" y="441"/>
			<point x="83" y="450"/>
			<point x="63" y="460" type="curve"/>
			<point x="110" y="425" type="line"/>
			<point x="79" y="507" type="line"/>
			<point x="23" y="507" type="line"/>
			<point x="26" y="419" type="line"/>
			<point x="52" y="408"/>
			<point x="102" y="397"/>
		</contour>
	</outline>
</glyph>
<glyph name="x.sups" format="2">
	<unicode hex="02E3"/>
	<advance width="436"/>
	<outline>
		<contour>
			<point x="21" y="422" type="line"/>
			<point x="171" y="422" type="line"/>
			<point x="171" y="469" type="line"/>
			<point x="115" y="469" type="line"/>
			<point x="88" y="469" type="line"/>
			<point x="21" y="469" type="line"/>
		</contour>
		<contour>
			<point x="25" y="721" type="line"/>
			<point x="96" y="713" type="line"/>
			<point x="154" y="713" type="line"/>
			<point x="221" y="721" type="line"/>
			<point x="221" y="765" type="line"/>
			<point x="25" y="765" type="line"/>
		</contour>
		<contour>
			<point x="296" y="422" type="line"/>
			<point x="408" y="422" type="line"/>
			<point x="246" y="621" type="line"/>
			<point x="142" y="765" type="line"/>
			<point x="31" y="765" type="line"/>
			<point x="182" y="581" type="line"/>
		</contour>
		<contour>
			<point x="215" y="422" type="line"/>
			<point x="415" y="422" type="line"/>
			<point x="415" y="469" type="line"/>
			<point x="345" y="469" type="line"/>
			<point x="278" y="469" type="line"/>
			<point x="215" y="469" type="line"/>
		</contour>
		<contour>
			<point x="259" y="721" type="line"/>
			<point x="317" y="713" type="line"/>
			<point x="335" y="713" type="line"/>
			<point x="404" y="721" type="line"/>
			<point x="404" y="765" type="line"/>
			<point x="259" y="765" type="line"/>
		</contour>
		<contour>
			<point x="31" y="426" type="line"/>
			<point x="100" y="426" type="line"/>
			<point x="183" y="564" type="line"/>
			<point x="219" y="564" type="line"/>
			<point x="185" y="622" type="line"/>
		</contour>
		<contour>
			<point x="248" y="581" type="line"/>
			<point x="396" y="758" type="line"/>
			<point x="331" y="758" type="line"/>
			<point x="249" y="633" type="line"/>
			<point x="218" y="633" type="line"/>
		</contour>
	</outline>
</glyph>
<glyph name="gravecmb" format="2">
	<unicode hex="0300"/>
	<outline>
		<contour>
			<point x="65" y="605" type="line"/>
			<point x="37" y="647"/>
			<point x="9" y="690"/>
			<point x="-19" y="731" type="curve" smooth="yes"/>
			<point x="-42" y="767"/>
			<point x="-59" y="781"/>
			<point x="-87" y="781" type="curve" smooth="yes"/>
			<point x="-115" y="781"/>
			<point x="-136" y="763"/>
			<point x="-136" y="735" type="curve" smooth="yes"/>
			<point x="-136" y="707"/>
			<point x="-123" y="693"/>
			<point x="-93" y="668" type="curve" smooth="yes"/>
			<point x="-56" y="635"/>
			<point x="-18" y="603"/>
			<point x="19" y="571" type="curve"/>
		</contour>
	</outline>
	<anchor name="_aboveLC" x="0" y="531"/>
	<anchor name="aboveLC" x="0" y="781"/>
</glyph>
<glyph name="acutecmb" format="2">
	<unicode hex="0301"/>
	<outline>
		<contour>
			<point x="-67" y="605" type="curve"/>
			<point x="-22" y="571" type="line"/>
			<point x="15" y="603"/>
			<point x="53" y="635"/>
			<point x="91" y="668" type="curve" smooth="yes"/>
			<point x="120" y="693"/>
			<point x="133" y="707"/>
			<point x="133" y="735" type="curve" smooth="yes"/>
			<point x="133" y="763"/>
			<point x="112" y="781"/>
			<point x="84" y="781" type="curve" smooth="yes"/>
			<point x="56" y="781"/>
			<point x="39" y="767"/>
			<point x="16" y="731" type="curve" smooth="yes"/>
			<point x="-12" y="690"/>
			<point x="-40" y="647"/>
		</contour>
	</outline>
	<anchor name="_aboveLC" x="0" y="531"/>
	<anchor name="aboveLC" x="0" y="781"/>
</glyph>
<glyph name="tildecmb" format="2">
	<unicode hex="0303"/>
	<outline>
		<contour>
			<point x="-189" y="600" type="curve"/>
			<point x="-125" y="588" type="line"/>
			<point x="-114" y="643"/>
			<point x="-98" y="655"/>
			<point x="-73" y="655" type="curve" smooth="yes"/>
			<point x="-48" y="655"/>
			<point x="-29" y="635"/>
			<point x="-5" y="619" type="curve" smooth="yes"/>
			<point x="23" y="601"/>
			<point x="45" y="584"/>
			<point x="84" y="584" type="curve" smooth="yes"/>
			<point x="141" y="584"/>
			<point x="181" y="622"/>
			<point x="189" y="728" type="curve"/>
			<point x="125" y="740" type="line"/>
			<point x="115" y="685"/>
			<point x="98" y="673"/>
			<point x="75" y="673" type="curve" smooth="yes"/>
			<point x="48" y="673"/>
			<point x="29" y="693"/>
			<point x="5" y="709" type="curve" smooth="yes"/>
			<point x="-21" y="727"/>
			<point x="-44" y="744"/>
			<point x="-79" y="744" type="curve" smooth="yes"/>
			<point x="-142" y="744"/>
			<point x="-182" y="707"/>
		</contour>
	</outline>
	<anchor name="_aboveLC" x="0" y="531"/>
	<anchor name="aboveLC" x="1" y="745"/>
</glyph>
<glyph name="brevecmb" format="2">
	<unicode hex="0306"/>
	<outline>
		<contour>
			<point x="0" y="586" type="curve" smooth="yes"/>
			<point x="96" y="586"/>
			<point x="147" y="650"/>
			<point x="161" y="740" type="curve"/>
			<point x="105" y="749" type="line"/>
			<point x="91" y="696"/>
			<point x="59" y="664"/>
			<point x="0" y="664" type="curve" smooth="yes"/>
			<point x="-59" y="664"/>
			<point x="-91" y="696"/>
			<point x="-105" y="749" type="curve"/>
			<point x="-161" y="740" type="line"/>
			<point x="-147" y="650"/>
			<point x="-96" y="586"/>
		</contour>
	</outline>
	<anchor name="_aboveLC" x="0" y="531"/>
	<anchor name="aboveLC" x="0" y="749"/>
</glyph>
<glyph name="hoicmb" format="2">
	<unicode hex="0309"/>
	<outline>
		<contour>
			<point x="-25" y="557" type="line"/>
			<point x="48" y="567"/>
			<point x="91" y="599"/>
			<point x="91" y="661" type="curve" smooth="yes"/>
			<point x="91" y="724"/>
			<point x="43" y="762"/>
			<point x="-53" y="771" type="curve"/>
			<point x="-63" y="689" type="line"/>
			<point x="-3" y="682"/>
			<point x="16" y="667"/>
			<point x="16" y="643" type="curve" smooth="yes"/>
			<point x="16" y="619"/>
			<point x="-3" y="609"/>
			<point x="-37" y="603" type="curve"/>
		</contour>
	</outline>
	<anchor name="_aboveLC" x="0" y="531"/>
	<anchor name="aboveLC" x="1" y="771"/>
</glyph>
<glyph name="hungarumlautcmb" format="2">
	<unicode hex="030B"/>
	<outline>
		<contour>
			<point x="-136" y="596" type="line"/>
			<point x="-85" y="569" type="line"/>
			<point x="-3" y="683" type="line" smooth="yes"/>
			<point x="15" y="708"/>
			<point x="25" y="724"/>
			<point x="25" y="747" type="curve" smooth="yes"/>
			<point x="25" y="772"/>
			<point x="7" y="791"/>
			<point x="-23" y="791" type="curve" smooth="yes"/>
			<point x="-53" y="791"/>
			<point x="-71" y="773"/>
			<point x="-88" y="727" type="curve" smooth="yes"/>
		</contour>
		<contour>
			<point x="41" y="596" type="line"/>
			<point x="92" y="569" type="line"/>
			<point x="175" y="683" type="line" smooth="yes"/>
			<point x="193" y="708"/>
			<point x="203" y="724"/>
			<point x="203" y="747" type="curve" smooth="yes"/>
			<point x="203" y="772"/>
			<point x="184" y="791"/>
			<point x="154" y="791" type="curve" smooth="yes"/>
			<point x="124" y="791"/>
			<point x="106" y="773"/>
			<point x="89" y="727" type="curve" smooth="yes"/>
		</contour>
	</outline>
	<anchor name="_aboveLC" x="0" y="531"/>
	<anchor name="aboveLC" x="0" y="791"/>
</glyph>
<glyph name="caroncmb" format="2">
	<unicode hex="030C"/>
	<outline>
		<contour>
			<point x="-117" y="778" type="line"/>
			<point x="-156" y="747" type="line"/>
			<point x="-35" y="588" type="line"/>
			<point x="35" y="588" type="line"/>
			<point x="156" y="747" type="line"/>
			<point x="117" y="778" type="line"/>
			<point x="-48" y="636" type="line"/>
			<point x="48" y="636" type="line"/>
		</contour>
	</outline>
	<anchor name="_aboveLC" x="0" y="531"/>
	<anchor name="aboveLC" x="0" y="778"/>
</glyph>
<glyph name="horncmb" format="2">
	<unicode hex="031B"/>
	<outline>
		<contour>
			<point x="0" y="511" type="line"/>
			<point x="88" y="518"/>
			<point x="139" y="579"/>
			<point x="139" y="668" type="curve" smooth="yes"/>
			<point x="139" y="695"/>
			<point x="132" y="725"/>
			<point x="124" y="739" type="curve"/>
			<point x="112" y="746"/>
			<point x="101" y="750"/>
			<point x="82" y="750" type="curve" smooth="yes"/>
			<point x="47" y="750"/>
			<point x="27" y="727"/>
			<point x="27" y="697" type="curve" smooth="yes"/>
			<point x="27" y="655"/>
			<point x="55" y="644"/>
			<point x="55" y="607" type="curve" smooth="yes"/>
			<point x="55" y="572"/>
			<point x="34" y="552"/>
			<point x="0" y="546" type="curve"/>
		</contour>
	</outline>
	<anchor name="_hornLC" x="0" y="511"/>
</glyph>
<glyph name="commabelowcmb" format="2">
	<unicode hex="0326"/>
	<outline>
		<contour>
			<point x="65" y="-127" type="curve" smooth="yes"/>
			<point x="65" y="-93"/>
			<point x="60" y="-76"/>
			<point x="55" y="-63" type="curve"/>
			<point x="45" y="-55"/>
			<point x="27" y="-48"/>
			<point x="4" y="-48" type="curve" smooth="yes"/>
			<point x="-37" y="-48"/>
			<point x="-64" y="-74"/>
			<point x="-64" y="-112" type="curve" smooth="yes"/>
			<point x="-64" y="-148"/>
			<point x="-41" y="-172"/>
			<point x="10" y="-195" type="curve"/>
			<point x="3" y="-158" type="line"/>
			<point x="-10" y="-192"/>
			<point x="-34" y="-211"/>
			<point x="-73" y="-222" type="curve"/>
			<point x="-56" y="-266" type="line"/>
			<point x="17" y="-245"/>
			<point x="65" y="-200"/>
		</contour>
	</outline>
	<anchor name="_belowLC" x="0" y="-20"/>
	<anchor name="belowLC" x="0" y="-268"/>
</glyph>
<glyph name="Lambda" format="2">
	<unicode hex="039B"/>
	<advance width="755"/>
	<outline>
		<contour>
			<point x="17" y="0" type="line"/>
			<point x="261" y="0" type="line"/>
			<point x="261" y="69" type="line"/>
			<point x="145" y="69" type="line"/>
			<point x="121" y="69" type="line"/>
			<point x="17" y="69" type="line"/>
		</contour>
		<contour>
			<point x="69" y="0" type="line"/>
			<point x="148" y="0" type="line"/>
			<point x="287" y="416" type="line"/>
			<point x="315" y="575" type="line"/>
			<point x="332" y="575" type="line"/>
			<point x="528" y="0" type="line"/>
			<point x="680" y="0" type="line"/>
			<point x="437" y="667" type="line"/>
			<point x="307" y="667" type="line"/>
		</contour>
		<contour>
			<point x="408" y="0" type="line"/>
			<point x="737" y="0" type="line"/>
			<point x="737" y="69" type="line"/>
			<point x="605" y="69" type="line"/>
			<point x="542" y="69" type="line"/>
			<point x="408" y="69" type="line"/>
		</contour>
	</outline>
</glyph>
<glyph name="Phi" format="2">
	<unicode hex="03A6"/>
	<advance width="806"/>
	<outline>
		<contour>
			<point x="37" y="333" type="curve" smooth="yes"/>
			<point x="37" y="201"/>
			<point x="141" y="135"/>
			<point x="329" y="135" type="curve" smooth="yes"/>
			<point x="353" y="135" type="line"/>
			<point x="353" y="195" type="line"/>
			<point x="334" y="195" type="line" smooth="yes"/>
			<point x="234" y="195"/>
			<point x="180" y="241"/>
			<point x="180" y="336" type="curve" smooth="yes"/>
			<point x="180" y="431"/>
			<point x="234" y="477"/>
			<point x="334" y="477" type="curve" smooth="yes"/>
			<point x="353" y="477" type="line"/>
			<point x="353" y="536" type="line"/>
			<point x="329" y="536" type="line"/>
			<point x="141" y="536"/>
			<point x="37" y="466"/>
		</contour>
		<contour>
			<point x="454" y="135" type="line"/>
			<point x="478" y="135" type="line" smooth="yes"/>
			<point x="666" y="135"/>
			<point x="770" y="206"/>
			<point x="770" y="339" type="curve" smooth="yes"/>
			<point x="770" y="471"/>
			<point x="666" y="536"/>
			<point x="478" y="536" type="curve"/>
			<point x="454" y="536" type="line"/>
			<point x="454" y="477" type="line"/>
			<point x="472" y="477" type="line" smooth="yes"/>
			<point x="572" y="477"/>
			<point x="626" y="431"/>
			<point x="626" y="336" type="curve" smooth="yes"/>
			<point x="626" y="241"/>
			<point x="572" y="195"/>
			<point x="472" y="195" type="curve" smooth="yes"/>
			<point x="454" y="195" type="line"/>
		</contour>
		<contour>
			<point x="337" y="0" type="curve"/>
			<point x="470" y="0" type="line"/>
			<point x="470" y="101"/>
			<point x="470" y="202"/>
			<point x="470" y="303" type="curve" smooth="yes"/>
			<point x="470" y="363" type="line" smooth="yes"/>
			<point x="470" y="464"/>
			<point x="470" y="571"/>
			<point x="470" y="672" type="curve"/>
			<point x="337" y="672" type="line"/>
			<point x="337" y="571"/>
			<point x="337" y="464"/>
			<point x="337" y="363" type="curve" smooth="yes"/>
			<point x="337" y="303" type="line" smooth="yes"/>
			<point x="337" y="202"/>
			<point x="337" y="101"/>
		</contour>
		<contour>
			<point x="239" y="604" type="line"/>
			<point x="371" y="604" type="line"/>
			<point x="435" y="604" type="line"/>
			<point x="567" y="604" type="line"/>
			<point x="567" y="672" type="line"/>
			<point x="239" y="672" type="line"/>
		</contour>
		<contour>
			<point x="239" y="0" type="line"/>
			<point x="567" y="0" type="line"/>
			<point x="567" y="68" type="line"/>
			<point x="435" y="68" type="line"/>
			<point x="371" y="68" type="line"/>
			<point x="239" y="68" type="line"/>
		</contour>
	</outline>
</glyph>
<glyph name="gamma" format="2">
	<unicode hex="03B3"/>
	<advance width="585"/>
	<outline>
		<contour>
			<point x="217" y="-172" type="line"/>
			<point x="249" y="-193" type="line"/>
			<point x="368" y="-165" type="line"/>
			<point x="345" y="43" type="line"/>
			<point x="311" y="43" type="line"/>
			<point x="297" y="157"/>
			<point x="279" y="281"/>
			<point x="252" y="393" type="curve" smooth="yes"/>
			<point x="228" y="495"/>
			<point x="188" y="524"/>
			<point x="121" y="524" type="curve" smooth="yes"/>
			<point x="67" y="524"/>
			<point x="29" y="495"/>
			<point x="8" y="472" type="curve"/>
			<point x="32" y="423" type="line"/>
			<point x="42" y="429"/>
			<point x="54" y="435"/>
			<point x="71" y="435" type="curve" smooth="yes"/>
			<point x="100" y="435"/>
			<point x="112" y="421"/>
			<point x="136" y="350" type="curve" smooth="yes"/>
			<point x="173" y="235"/>
			<point x="208" y="113"/>
			<point x="240" y="-25" type="curve"/>
			<point x="243" y="41" type="line"/>
		</contour>
		<contour>
			<point x="344" y="-29" type="line"/>
			<point x="461" y="144"/>
			<point x="548" y="313"/>
			<point x="548" y="452" type="curve" smooth="yes"/>
			<point x="548" y="481"/>
			<point x="546" y="501"/>
			<point x="542" y="515" type="curve"/>
			<point x="534" y="520"/>
			<point x="520" y="524"/>
			<point x="500" y="524" type="curve" smooth="yes"/>
			<point x="449" y="524"/>
			<point x="415" y="493"/>
			<point x="415" y="436" type="curve" smooth="yes"/>
			<point x="415" y="385"/>
			<point x="435" y="345"/>
			<point x="475" y="260" type="curve"/>
			<point x="472" y="364" type="line"/>
			<point x="437" y="241"/>
			<point x="392" y="133"/>
			<point x="331" y="27" type="curve"/>
		</contour>
	</outline>
</glyph>
<glyph name="delta" format="2">
	<unicode hex="03B4"/>
	<advance width="607"/>
	<outline>
		<contour>
			<point x="300" y="-12" type="curve" smooth="yes"/>
			<point x="445" y="-12"/>
			<point x="562" y="72"/>
			<point x="562" y="216" type="curve" smooth="yes"/>
			<point x="562" y="338"/>
			<point x="485" y="415"/>
			<point x="373" y="486" type="curve" smooth="yes"/>
			<point x="263" y="556"/>
			<point x="239" y="577"/>
			<point x="239" y="619" type="curve" smooth="yes"/>
			<point x="239" y="662"/>
			<point x="270" y="691"/>
			<point x="335" y="691" type="curve" smooth="yes"/>
			<point x="357" y="691"/>
			<point x="383" y="689"/>
			<point x="393" y="685" type="curve"/>
			<point x="393" y="708" type="line"/>
			<point x="320" y="708" type="line"/>
			<point x="387" y="635" type="line" smooth="yes"/>
			<point x="417" y="601"/>
			<point x="439" y="591"/>
			<point x="475" y="591" type="curve" smooth="yes"/>
			<point x="511" y="591"/>
			<point x="531" y="612"/>
			<point x="535" y="647" type="curve"/>
			<point x="511" y="695"/>
			<point x="435" y="735"/>
			<point x="331" y="735" type="curve" smooth="yes"/>
			<point x="200" y="735"/>
			<point x="135" y="673"/>
			<point x="135" y="585" type="curve" smooth="yes"/>
			<point x="135" y="500"/>
			<point x="200" y="464"/>
			<point x="290" y="406" type="curve" smooth="yes"/>
			<point x="362" y="360"/>
			<point x="427" y="296"/>
			<point x="427" y="205" type="curve" smooth="yes"/>
			<point x="427" y="109"/>
			<point x="381" y="51"/>
			<point x="303" y="51" type="curve" smooth="yes"/>
			<point x="224" y="51"/>
			<point x="182" y="104"/>
			<point x="182" y="203" type="curve" smooth="yes"/>
			<point x="182" y="298"/>
			<point x="236" y="381"/>
			<point x="348" y="420" type="curve"/>
			<point x="269" y="441" type="line"/>
			<point x="261" y="404" type="line"/>
			<point x="121" y="385"/>
			<point x="44" y="314"/>
			<point x="44" y="200" type="curve" smooth="yes"/>
			<point x="44" y="61"/>
			<point x="155" y="-12"/>
		</contour>
	</outline>
</glyph>
<glyph name="iota" format="2">
	<unicode hex="03B9"/>
	<advance width="333"/>
	<outline>
		<contour>
			<point x="205" y="-13" type="curve" smooth="yes"/>
			<point x="264" y="-13"/>
			<point x="301" y="13"/>
			<point x="323" y="36" type="curve"/>
			<point x="299" y="84" type="line"/>
			<point x="288" y="77"/>
			<point x="274" y="71"/>
			<point x="255" y="71" type="curve" smooth="yes"/>
			<point x="228" y="71"/>
			<point x="214" y="87"/>
			<point x="214" y="116" type="curve" smooth="yes"/>
			<point x="214" y="145"/>
			<point x="222" y="324"/>
			<point x="230" y="503" type="curve"/>
			<point x="204" y="524" type="line"/>
			<point x="83" y="496" type="line"/>
			<point x="88" y="104" type="line" smooth="yes"/>
			<point x="89" y="27"/>
			<point x="131" y="-13"/>
		</contour>
	</outline>
	<anchor name="aboveLC" x="163" y="531"/>
</glyph>
<glyph name="kappa" format="2">
	<unicode hex="03BA"/>
	<advance width="624"/>
	<outline>
		<contour>
			<point x="123" y="-13" type="line"/>
			<point x="238" y="3" type="line"/>
			<point x="241" y="53"/>
			<point x="243" y="132"/>
			<point x="244" y="197" type="curve"/>
			<point x="241" y="197" type="line"/>
			<point x="245" y="265"/>
			<point x="247" y="343"/>
			<point x="247" y="411" type="curve" smooth="yes"/>
			<point x="247" y="485"/>
			<point x="202" y="524"/>
			<point x="127" y="524" type="curve" smooth="yes"/>
			<point x="68" y="524"/>
			<point x="31" y="497"/>
			<point x="9" y="475" type="curve"/>
			<point x="33" y="427" type="line"/>
			<point x="43" y="433"/>
			<point x="57" y="440"/>
			<point x="77" y="440" type="curve" smooth="yes"/>
			<point x="103" y="440"/>
			<point x="116" y="425"/>
			<point x="116" y="397" type="curve" smooth="yes"/>
			<point x="116" y="191" type="line"/>
			<point x="96" y="8" type="line"/>
		</contour>
		<contour>
			<point x="231" y="96" type="line"/>
			<point x="250" y="149"/>
			<point x="280" y="213"/>
			<point x="310" y="270" type="curve"/>
			<point x="323" y="270" type="line"/>
			<point x="372" y="345"/>
			<point x="423" y="395"/>
			<point x="481" y="435" type="curve"/>
			<point x="399" y="389" type="line"/>
			<point x="496" y="389" type="line" smooth="yes"/>
			<point x="563" y="389"/>
			<point x="597" y="419"/>
			<point x="597" y="464" type="curve" smooth="yes"/>
			<point x="597" y="496"/>
			<point x="577" y="515"/>
			<point x="555" y="524" type="curve"/>
			<point x="505" y="517"/>
			<point x="463" y="496"/>
			<point x="423" y="460" type="curve" smooth="yes"/>
			<point x="390" y="432"/>
			<point x="346" y="388"/>
			<point x="310" y="334" type="curve"/>
			<point x="252" y="211" type="line"/>
			<point x="208" y="211" type="line"/>
		</contour>
		<contour>
			<point x="503" y="-13" type="curve" smooth="yes"/>
			<point x="557" y="-13"/>
			<point x="586" y="25"/>
			<point x="605" y="62" type="curve"/>
			<point x="581" y="100" type="line"/>
			<point x="572" y="96"/>
			<point x="560" y="92"/>
			<point x="542" y="92" type="curve" smooth="yes"/>
			<point x="494" y="92"/>
			<point x="457" y="122"/>
			<point x="342" y="331" type="curve"/>
			<point x="313" y="296" type="line"/>
			<point x="383" y="43"/>
			<point x="420" y="-13"/>
		</contour>
	</outline>
</glyph>
<glyph name="lambda" format="2">
	<unicode hex="03BB"/>
	<advance width="616"/>
	<outline>
		<contour>
			<point x="35" y="-4" type="line"/>
			<point x="162" y="-12" type="line"/>
			<point x="324" y="410" type="line"/>
			<point x="273" y="525" type="line"/>
			<point x="27" y="12" type="line"/>
		</contour>
		<contour>
			<point x="497" y="-16" type="curve" smooth="yes"/>
			<point x="552" y="-16"/>
			<point x="583" y="19"/>
			<point x="604" y="56" type="curve"/>
			<point x="580" y="105" type="line"/>
			<point x="565" y="98"/>
			<point x="549" y="91"/>
			<point x="524" y="91" type="curve" smooth="yes"/>
			<point x="473" y="91"/>
			<point x="447" y="119"/>
			<point x="417" y="215" type="curve" smooth="yes"/>
			<point x="298" y="584" type="line" smooth="yes"/>
			<point x="263" y="696"/>
			<point x="226" y="735"/>
			<point x="156" y="735" type="curve" smooth="yes"/>
			<point x="89" y="735"/>
			<point x="49" y="695"/>
			<point x="20" y="648" type="curve"/>
			<point x="54" y="602" type="line"/>
			<point x="77" y="619"/>
			<point x="102" y="628"/>
			<point x="139" y="628" type="curve" smooth="yes"/>
			<point x="196" y="628"/>
			<point x="231" y="615"/>
			<point x="259" y="524" type="curve" smooth="yes"/>
			<point x="303" y="369" type="line"/>
			<point x="326" y="369" type="line"/>
			<point x="366" y="137" type="line" smooth="yes"/>
			<point x="382" y="34"/>
			<point x="418" y="-16"/>
		</contour>
	</outline>
</glyph>
<glyph name="xi" format="2">
	<unicode hex="03BE"/>
	<advance width="469"/>
	<outline>
		<contour>
			<point x="312" y="-204" type="curve"/>
			<point x="379" y="-204" type="line"/>
			<point x="405" y="-167"/>
			<point x="440" y="-121"/>
			<point x="440" y="-57" type="curve" smooth="yes"/>
			<point x="440" y="9"/>
			<point x="400" y="47"/>
			<point x="309" y="75" type="curve" smooth="yes"/>
			<point x="211" y="105"/>
			<point x="165" y="135"/>
			<point x="165" y="199" type="curve" smooth="yes"/>
			<point x="165" y="263"/>
			<point x="208" y="320"/>
			<point x="320" y="320" type="curve" smooth="yes"/>
			<point x="360" y="320"/>
			<point x="395" y="316"/>
			<point x="411" y="312" type="curve"/>
			<point x="411" y="404" type="line"/>
			<point x="387" y="403"/>
			<point x="362" y="401"/>
			<point x="331" y="401" type="curve" smooth="yes"/>
			<point x="237" y="401"/>
			<point x="192" y="431"/>
			<point x="192" y="497" type="curve" smooth="yes"/>
			<point x="192" y="567"/>
			<point x="240" y="615"/>
			<point x="451" y="641" type="curve"/>
			<point x="451" y="723" type="line"/>
			<point x="60" y="731" type="line"/>
			<point x="60" y="639" type="line"/>
			<point x="371" y="665" type="line"/>
			<point x="371" y="638" type="line"/>
			<point x="381" y="649" type="line"/>
			<point x="172" y="629"/>
			<point x="83" y="589"/>
			<point x="83" y="492" type="curve" smooth="yes"/>
			<point x="83" y="397"/>
			<point x="160" y="359"/>
			<point x="304" y="359" type="curve"/>
			<point x="304" y="339" type="line"/>
			<point x="125" y="336"/>
			<point x="43" y="277"/>
			<point x="43" y="175" type="curve" smooth="yes"/>
			<point x="43" y="68"/>
			<point x="136" y="17"/>
			<point x="243" y="-16" type="curve" smooth="yes"/>
			<point x="323" y="-41"/>
			<point x="344" y="-65"/>
			<point x="344" y="-103" type="curve" smooth="yes"/>
			<point x="344" y="-143"/>
			<point x="328" y="-167"/>
		</contour>
	</outline>
</glyph>
<glyph name="pi" format="2">
	<unicode hex="03C0"/>
	<advance width="667"/>
	<outline>
		<contour>
			<point x="120" y="-13" type="curve" smooth="yes"/>
			<point x="170" y="-13"/>
			<point x="196" y="8"/>
			<point x="212" y="41" type="curve" smooth="yes"/>
			<point x="228" y="75"/>
			<point x="255" y="133"/>
			<point x="260" y="467" type="curve"/>
			<point x="199" y="467" type="line"/>
			<point x="185" y="173"/>
			<point x="161" y="112"/>
			<point x="133" y="50" type="curve"/>
			<point x="208" y="106" type="line"/>
			<point x="154" y="108"/>
			<point x="100" y="110"/>
			<point x="47" y="112" type="curve"/>
			<point x="40" y="99"/>
			<point x="35" y="83"/>
			<point x="35" y="61" type="curve" smooth="yes"/>
			<point x="35" y="19"/>
			<point x="64" y="-13"/>
		</contour>
		<contour>
			<point x="31" y="391" type="line"/>
			<point x="219" y="423" type="line"/>
			<point x="447" y="423" type="line"/>
			<point x="644" y="407" type="line"/>
			<point x="633" y="511" type="line"/>
			<point x="252" y="511" type="line" smooth="yes"/>
			<point x="119" y="511"/>
			<point x="49" y="476"/>
			<point x="12" y="447" type="curve"/>
		</contour>
		<contour>
			<point x="519" y="-13" type="curve" smooth="yes"/>
			<point x="584" y="-13"/>
			<point x="623" y="13"/>
			<point x="647" y="36" type="curve"/>
			<point x="623" y="84" type="line"/>
			<point x="611" y="77"/>
			<point x="594" y="71"/>
			<point x="571" y="71" type="curve" smooth="yes"/>
			<point x="536" y="71"/>
			<point x="521" y="90"/>
			<point x="517" y="127" type="curve" smooth="yes"/>
			<point x="485" y="460" type="line"/>
			<point x="409" y="460" type="line"/>
			<point x="401" y="321"/>
			<point x="391" y="210"/>
			<point x="391" y="115" type="curve" smooth="yes"/>
			<point x="391" y="29"/>
			<point x="433" y="-13"/>
		</contour>
	</outline>
</glyph>
<glyph name="sigma" format="2">
	<unicode hex="03C3"/>
	<advance width="639"/>
	<outline>
		<contour>
			<point x="309" y="-13" type="curve" smooth="yes"/>
			<point x="457" y="-13"/>
			<point x="578" y="76"/>
			<point x="578" y="220" type="curve" smooth="yes"/>
			<point x="578" y="379"/>
			<point x="440" y="434"/>
			<point x="346" y="455" type="curve"/>
			<point x="317" y="438" type="line"/>
			<point x="380" y="418"/>
			<point x="440" y="359"/>
			<point x="440" y="240" type="curve" smooth="yes"/>
			<point x="440" y="108"/>
			<point x="391" y="52"/>
			<point x="312" y="52" type="curve" smooth="yes"/>
			<point x="233" y="52"/>
			<point x="182" y="111"/>
			<point x="182" y="237" type="curve" smooth="yes"/>
			<point x="182" y="356"/>
			<point x="248" y="424"/>
			<point x="352" y="433" type="curve"/>
			<point x="361" y="471" type="line"/>
			<point x="637" y="408" type="line"/>
			<point x="632" y="521" type="line"/>
			<point x="337" y="511" type="line" smooth="yes"/>
			<point x="168" y="504"/>
			<point x="43" y="406"/>
			<point x="44" y="235" type="curve" smooth="yes"/>
			<point x="45" y="74"/>
			<point x="159" y="-13"/>
		</contour>
	</outline>
</glyph>
<glyph name="tau" format="2">
	<unicode hex="03C4"/>
	<advance width="525"/>
	<outline>
		<contour>
			<point x="27" y="394" type="line"/>
			<point x="237" y="423" type="line"/>
			<point x="504" y="407" type="line"/>
			<point x="493" y="511" type="line"/>
			<point x="248" y="511" type="line" smooth="yes"/>
			<point x="120" y="511"/>
			<point x="48" y="481"/>
			<point x="8" y="449" type="curve"/>
		</contour>
		<contour>
			<point x="299" y="-15" type="curve" smooth="yes"/>
			<point x="364" y="-15"/>
			<point x="403" y="12"/>
			<point x="427" y="35" type="curve"/>
			<point x="403" y="83" type="line"/>
			<point x="391" y="76"/>
			<point x="375" y="69"/>
			<point x="351" y="69" type="curve" smooth="yes"/>
			<point x="317" y="69"/>
			<point x="299" y="89"/>
			<point x="297" y="126" type="curve" smooth="yes"/>
			<point x="297" y="450" type="line"/>
			<point x="221" y="450" type="line"/>
			<point x="181" y="221"/>
			<point x="171" y="167"/>
			<point x="171" y="113" type="curve" smooth="yes"/>
			<point x="171" y="28"/>
			<point x="213" y="-15"/>
		</contour>
	</outline>
</glyph>
<glyph name="phi" format="2">
	<unicode hex="03C6"/>
	<advance width="790"/>
	<outline>
		<contour>
			<point x="324" y="-172" type="line"/>
			<point x="351" y="-193" type="line"/>
			<point x="466" y="-169" type="line"/>
			<point x="445" y="17" type="line"/>
			<point x="432" y="665" type="line"/>
			<point x="359" y="665" type="line"/>
			<point x="345" y="17" type="line"/>
		</contour>
		<contour>
			<point x="371" y="-1" type="curve"/>
			<point x="371" y="57" type="line"/>
			<point x="241" y="57"/>
			<point x="180" y="125"/>
			<point x="180" y="255" type="curve" smooth="yes"/>
			<point x="180" y="385"/>
			<point x="241" y="453"/>
			<point x="371" y="453" type="curve"/>
			<point x="371" y="512" type="line"/>
			<point x="164" y="512"/>
			<point x="44" y="416"/>
			<point x="44" y="252" type="curve" smooth="yes"/>
			<point x="44" y="88"/>
			<point x="164" y="-1"/>
		</contour>
		<contour>
			<point x="420" y="-1" type="line"/>
			<point x="626" y="-1"/>
			<point x="746" y="95"/>
			<point x="746" y="259" type="curve" smooth="yes"/>
			<point x="746" y="423"/>
			<point x="626" y="512"/>
			<point x="420" y="512" type="curve"/>
			<point x="420" y="453" type="line"/>
			<point x="549" y="453"/>
			<point x="611" y="385"/>
			<point x="611" y="255" type="curve" smooth="yes"/>
			<point x="611" y="125"/>
			<point x="549" y="57"/>
			<point x="420" y="57" type="curve"/>
		</contour>
	</outline>
</glyph>
<glyph name="psi" format="2">
	<unicode hex="03C8"/>
	<advance width="807"/>
	<outline>
		<contour>
			<point x="388" y="-193" type="line"/>
			<point x="504" y="-169" type="line"/>
			<point x="482" y="17" type="line"/>
			<point x="469" y="665" type="line"/>
			<point x="396" y="665" type="line"/>
			<point x="383" y="17" type="line"/>
			<point x="361" y="-172" type="line"/>
		</contour>
		<contour>
			<point x="407" y="0" type="curve"/>
			<point x="407" y="60" type="line"/>
			<point x="278" y="60"/>
			<point x="225" y="108"/>
			<point x="225" y="197" type="curve" smooth="yes"/>
			<point x="225" y="264"/>
			<point x="246" y="343"/>
			<point x="246" y="412" type="curve" smooth="yes"/>
			<point x="246" y="484"/>
			<point x="201" y="524"/>
			<point x="124" y="524" type="curve" smooth="yes"/>
			<point x="67" y="524"/>
			<point x="29" y="497"/>
			<point x="8" y="475" type="curve"/>
			<point x="32" y="427" type="line"/>
			<point x="43" y="433"/>
			<point x="56" y="440"/>
			<point x="75" y="440" type="curve" smooth="yes"/>
			<point x="104" y="440"/>
			<point x="120" y="424"/>
			<point x="120" y="389" type="curve" smooth="yes"/>
			<point x="120" y="343"/>
			<point x="104" y="267"/>
			<point x="104" y="197" type="curve" smooth="yes"/>
			<point x="104" y="63"/>
			<point x="196" y="0"/>
		</contour>
		<contour>
			<point x="456" y="0" type="line"/>
			<point x="634" y="0"/>
			<point x="737" y="85"/>
			<point x="737" y="307" type="curve" smooth="yes"/>
			<point x="737" y="390"/>
			<point x="731" y="470"/>
			<point x="717" y="514" type="curve"/>
			<point x="707" y="520"/>
			<point x="693" y="524"/>
			<point x="673" y="524" type="curve" smooth="yes"/>
			<point x="628" y="524"/>
			<point x="599" y="497"/>
			<point x="599" y="447" type="curve" smooth="yes"/>
			<point x="599" y="399"/>
			<point x="619" y="366"/>
			<point x="683" y="256" type="curve"/>
			<point x="683" y="344" type="line"/>
			<point x="659" y="344" type="line"/>
			<point x="663" y="317"/>
			<point x="667" y="285"/>
			<point x="667" y="248" type="curve" smooth="yes"/>
			<point x="667" y="127"/>
			<point x="605" y="60"/>
			<point x="456" y="60" type="curve"/>
		</contour>
	</outline>
</glyph>
<glyph name="kai" format="2">
	<unicode hex="03D7"/>
	<advance width="683"/>
	<outline>
		<contour>
			<point x="321" y="-214" type="curve" smooth="yes"/>
			<point x="491" y="-214"/>
			<point x="605" y="-120"/>
			<point x="664" y="63" type="curve"/>
			<point x="640" y="100" type="line"/>
			<point x="631" y="96"/>
			<point x="619" y="92"/>
			<point x="602" y="92" type="curve" smooth="yes"/>
			<point x="554" y="92"/>
			<point x="517" y="122"/>
			<point x="402" y="331" type="curve"/>
			<point x="372" y="296" type="line"/>
			<point x="442" y="42"/>
			<point x="478" y="-13"/>
			<point x="557" y="-13" type="curve" smooth="yes"/>
			<point x="587" y="-13"/>
			<point x="605" y="-1"/>
			<point x="628" y="27" type="curve"/>
			<point x="600" y="32" type="line"/>
			<point x="622" y="0" type="line"/>
			<point x="557" y="-76"/>
			<point x="456" y="-113"/>
			<point x="335" y="-113" type="curve" smooth="yes"/>
			<point x="193" y="-113"/>
			<point x="101" y="-63"/>
			<point x="61" y="37" type="curve"/>
			<point x="15" y="24" type="line"/>
			<point x="31" y="-106"/>
			<point x="130" y="-214"/>
		</contour>
		<contour>
			<point x="182" y="-13" type="line"/>
			<point x="297" y="3" type="line"/>
			<point x="301" y="53"/>
			<point x="302" y="132"/>
			<point x="303" y="197" type="curve"/>
			<point x="300" y="197" type="line"/>
			<point x="304" y="265"/>
			<point x="306" y="343"/>
			<point x="306" y="411" type="curve" smooth="yes"/>
			<point x="306" y="485"/>
			<point x="262" y="524"/>
			<point x="186" y="524" type="curve" smooth="yes"/>
			<point x="127" y="524"/>
			<point x="90" y="497"/>
			<point x="69" y="475" type="curve"/>
			<point x="93" y="427" type="line"/>
			<point x="102" y="433"/>
			<point x="117" y="440"/>
			<point x="137" y="440" type="curve" smooth="yes"/>
			<point x="163" y="440"/>
			<point x="175" y="425"/>
			<point x="175" y="397" type="curve" smooth="yes"/>
			<point x="175" y="191" type="line"/>
			<point x="155" y="8" type="line"/>
		</contour>
		<contour>
			<point x="290" y="96" type="line"/>
			<point x="309" y="149"/>
			<point x="339" y="213"/>
			<point x="369" y="270" type="curve"/>
			<point x="382" y="270" type="line"/>
			<point x="431" y="345"/>
			<point x="482" y="395"/>
			<point x="541" y="435" type="curve"/>
			<point x="458" y="389" type="line"/>
			<point x="555" y="389" type="line" smooth="yes"/>
			<point x="622" y="389"/>
			<point x="656" y="419"/>
			<point x="656" y="464" type="curve" smooth="yes"/>
			<point x="656" y="496"/>
			<point x="637" y="515"/>
			<point x="614" y="524" type="curve"/>
			<point x="565" y="517"/>
			<point x="522" y="496"/>
			<point x="482" y="460" type="curve" smooth="yes"/>
			<point x="449" y="432"/>
			<point x="405" y="388"/>
			<point x="369" y="334" type="curve"/>
			<point x="311" y="211" type="line"/>
			<point x="268" y="211" type="line"/>
		</contour>
	</outline>
</glyph>
<glyph name="stigma" format="2">
	<unicode hex="03DB"/>
	<advance width="460"/>
	<outline>
		<contour>
			<point x="299" y="-205" type="curve"/>
			<point x="349" y="-205" type="line"/>
			<point x="394" y="-140"/>
			<point x="414" y="-100"/>
			<point x="414" y="-52" type="curve" smooth="yes"/>
			<point x="414" y="15"/>
			<point x="382" y="55"/>
			<point x="266" y="87" type="curve" smooth="yes"/>
			<point x="142" y="121"/>
			<point x="101" y="164"/>
			<point x="101" y="236" type="curve" smooth="yes"/>
			<point x="101" y="316"/>
			<point x="142" y="360"/>
			<point x="234" y="368" type="curve" smooth="yes"/>
			<point x="298" y="373" type="line" smooth="yes"/>
			<point x="380" y="379"/>
			<point x="412" y="401"/>
			<point x="438" y="510" type="curve" smooth="yes"/>
			<point x="454" y="578" type="line"/>
			<point x="406" y="585" type="line"/>
			<point x="392" y="544" type="line" smooth="yes"/>
			<point x="379" y="506"/>
			<point x="364" y="484"/>
			<point x="315" y="479" type="curve" smooth="yes"/>
			<point x="243" y="472" type="line" smooth="yes"/>
			<point x="132" y="460"/>
			<point x="36" y="386"/>
			<point x="36" y="222" type="curve" smooth="yes"/>
			<point x="36" y="82"/>
			<point x="97" y="28"/>
			<point x="224" y="-8" type="curve" smooth="yes"/>
			<point x="309" y="-33"/>
			<point x="329" y="-50"/>
			<point x="329" y="-95" type="curve" smooth="yes"/>
			<point x="329" y="-129"/>
			<point x="317" y="-163"/>
		</contour>
	</outline>
</glyph>
<glyph name="digamma" format="2">
	<unicode hex="03DD"/>
	<advance width="480"/>
	<outline>
		<contour>
			<point x="59" y="-172" type="line"/>
			<point x="85" y="-193" type="line"/>
			<point x="212" y="-169" type="line"/>
			<point x="190" y="116" type="line"/>
			<point x="193" y="240"/>
			<point x="196" y="363"/>
			<point x="198" y="487" type="curve"/>
			<point x="180" y="465" type="line"/>
			<point x="448" y="439" type="line"/>
			<point x="448" y="524" type="line"/>
			<point x="56" y="511" type="line"/>
			<point x="80" y="156" type="line"/>
		</contour>
		<contour>
			<point x="145" y="176" type="line"/>
			<point x="424" y="159" type="line"/>
			<point x="424" y="244" type="line"/>
			<point x="145" y="227" type="line"/>
		</contour>
	</outline>
	<anchor name="aboveLC" x="267" y="531"/>
</glyph>
<glyph name="Ieukran" format="2">
	<unicode hex="0404"/>
	<advance width="657"/>
	<outline>
		<contour>
			<point x="404" y="-16" type="curve" smooth="yes"/>
			<point x="503" y="-16"/>
			<point x="572" y="3"/>
			<point x="611" y="19" type="curve"/>
			<point x="615" y="181" type="line"/>
			<point x="543" y="181" type="line"/>
			<point x="505" y="29" type="line"/>
			<point x="580" y="29" type="line"/>
			<point x="580" y="93" type="line"/>
			<point x="540" y="69"/>
			<point x="487" y="53"/>
			<point x="422" y="53" type="curve" smooth="yes"/>
			<point x="286" y="53"/>
			<point x="196" y="117"/>
			<point x="196" y="333" type="curve" smooth="yes"/>
			<point x="196" y="550"/>
			<point x="294" y="611"/>
			<point x="423" y="611" type="curve" smooth="yes"/>
			<point x="482" y="611"/>
			<point x="533" y="596"/>
			<point x="571" y="572" type="curve"/>
			<point x="571" y="636" type="line"/>
			<point x="496" y="636" type="line"/>
			<point x="533" y="487" type="line"/>
			<point x="605" y="487" type="line"/>
			<point x="601" y="647" type="line"/>
			<point x="567" y="663"/>
			<point x="497" y="680"/>
			<point x="411" y="680" type="curve" smooth="yes"/>
			<point x="208" y="680"/>
			<point x="47" y="560"/>
			<point x="47" y="329" type="curve" smooth="yes"/>
			<point x="47" y="99"/>
			<point x="200" y="-16"/>
		</contour>
		<contour>
			<point x="173" y="305" type="line"/>
			<point x="427" y="305" type="line"/>
			<point x="427" y="372" type="line"/>
			<point x="173" y="372" type="line"/>
		</contour>
		<contour>
			<point x="399" y="225" type="line"/>
			<point x="465" y="225" type="line"/>
			<point x="465" y="452" type="line"/>
			<point x="399" y="452" type="line"/>
			<point x="375" y="353" type="line"/>
			<point x="375" y="324" type="line"/>
		</contour>
	</outline>
	<anchor name="aboveUC" x="401" y="684"/>
</glyph>
<glyph name="Lje" format="2">
	<unicode hex="0409"/>
	<advance width="999"/>
	<outline>
		<contour>
			<point x="124" y="-16" type="curve" smooth="yes"/>
			<point x="198" y="-16"/>
			<point x="241" y="26"/>
			<point x="277" y="149" type="curve" smooth="yes"/>
			<point x="312" y="264"/>
			<point x="326" y="425"/>
			<point x="331" y="664" type="curve"/>
			<point x="253" y="664" type="line"/>
			<point x="249" y="408"/>
			<point x="235" y="270"/>
			<point x="211" y="174" type="curve" smooth="yes"/>
			<point x="201" y="134"/>
			<point x="188" y="98"/>
			<point x="166" y="53" type="curve"/>
			<point x="180" y="62" type="line"/>
			<point x="137" y="62" type="line"/>
			<point x="153" y="53" type="line"/>
			<point x="142" y="106"/>
			<point x="119" y="123"/>
			<point x="85" y="123" type="curve" smooth="yes"/>
			<point x="48" y="123"/>
			<point x="24" y="102"/>
			<point x="15" y="61" type="curve"/>
			<point x="25" y="8"/>
			<point x="60" y="-16"/>
		</contour>
		<contour>
			<point x="274" y="595" type="line"/>
			<point x="290" y="595" type="line"/>
			<point x="290" y="664" type="line"/>
			<point x="147" y="664" type="line"/>
			<point x="147" y="595" type="line"/>
		</contour>
		<contour>
			<point x="298" y="597" type="line"/>
			<point x="493" y="597" type="line"/>
			<point x="493" y="664" type="line"/>
			<point x="298" y="664" type="line"/>
		</contour>
		<contour>
			<point x="371" y="0" type="line"/>
			<point x="509" y="0" type="line"/>
			<point x="509" y="69" type="line"/>
			<point x="493" y="69" type="line"/>
			<point x="371" y="69" type="line"/>
		</contour>
		<contour>
			<point x="466" y="0" type="curve"/>
			<point x="610" y="0" type="line"/>
			<point x="610" y="101"/>
			<point x="610" y="202"/>
			<point x="610" y="303" type="curve" smooth="yes"/>
			<point x="610" y="363" type="line" smooth="yes"/>
			<point x="610" y="464"/>
			<point x="610" y="563"/>
			<point x="610" y="664" type="curve"/>
			<point x="466" y="664" type="line"/>
			<point x="466" y="563"/>
			<point x="466" y="464"/>
			<point x="466" y="363" type="curve" smooth="yes"/>
			<point x="466" y="303" type="line" smooth="yes"/>
			<point x="466" y="202"/>
			<point x="466" y="101"/>
		</contour>
		<contour>
			<point x="567" y="0" type="line"/>
			<point x="650" y="0" type="line" smooth="yes"/>
			<point x="854" y="0"/>
			<point x="959" y="75"/>
			<point x="959" y="204" type="curve" smooth="yes"/>
			<point x="959" y="333"/>
			<point x="854" y="396"/>
			<point x="674" y="396" type="curve" smooth="yes"/>
			<point x="620" y="396"/>
			<point x="575" y="388"/>
			<point x="546" y="380" type="curve"/>
			<point x="546" y="315" type="line"/>
			<point x="575" y="323"/>
			<point x="612" y="331"/>
			<point x="658" y="331" type="curve" smooth="yes"/>
			<point x="766" y="331"/>
			<point x="813" y="285"/>
			<point x="813" y="200" type="curve" smooth="yes"/>
			<point x="813" y="115"/>
			<point x="766" y="64"/>
			<point x="639" y="64" type="curve" smooth="yes"/>
			<point x="567" y="64" type="line"/>
		</contour>
		<contour>
			<point x="559" y="595" type="line"/>
			<point x="575" y="595" type="line"/>
			<point x="720" y="595" type="line"/>
			<point x="720" y="664" type="line"/>
			<point x="559" y="664" type="line"/>
		</contour>
	</outline>
</glyph>
<glyph name="Tshe" format="2">
	<unicode hex="040B"/>
	<advance width="874"/>
	<outline>
		<contour>
			<point x="24" y="469" type="line"/>
			<point x="95" y="469" type="line"/>
			<point x="140" y="639" type="line"/>
			<point x="85" y="596" type="line"/>
			<point x="594" y="596" type="line"/>
			<point x="540" y="639" type="line"/>
			<point x="585" y="485" type="line"/>
			<point x="656" y="485" type="line"/>
			<point x="649" y="664" type="line"/>
			<point x="31" y="664" type="line"/>
		</contour>
		<contour>
			<point x="257" y="0" type="curve"/>
			<point x="401" y="0" type="line"/>
			<point x="401" y="101"/>
			<point x="401" y="202"/>
			<point x="401" y="303" type="curve" smooth="yes"/>
			<point x="401" y="363" type="line" smooth="yes"/>
			<point x="401" y="464"/>
			<point x="401" y="563"/>
			<point x="401" y="664" type="curve"/>
			<point x="257" y="664" type="line"/>
			<point x="257" y="563"/>
			<point x="257" y="464"/>
			<point x="257" y="363" type="curve" smooth="yes"/>
			<point x="257" y="303" type="line" smooth="yes"/>
			<point x="257" y="202"/>
			<point x="257" y="101"/>
		</contour>
		<contour>
			<point x="621" y="0" type="curve"/>
			<point x="766" y="0" type="line"/>
			<point x="766" y="235" type="line" smooth="yes"/>
			<point x="766" y="359"/>
			<point x="692" y="409"/>
			<point x="540" y="409" type="curve" smooth="yes"/>
			<point x="452" y="409"/>
			<point x="390" y="388"/>
			<point x="356" y="373" type="curve"/>
			<point x="356" y="315" type="line"/>
			<point x="382" y="325"/>
			<point x="428" y="339"/>
			<point x="484" y="339" type="curve" smooth="yes"/>
			<point x="581" y="339"/>
			<point x="621" y="301"/>
			<point x="621" y="216" type="curve" smooth="yes"/>
			<point x="621" y="144"/>
			<point x="621" y="72"/>
		</contour>
		<contour>
			<point x="163" y="0" type="line"/>
			<point x="481" y="0" type="line"/>
			<point x="481" y="69" type="line"/>
			<point x="364" y="69" type="line"/>
			<point x="295" y="69" type="line"/>
			<point x="163" y="69" type="line"/>
		</contour>
		<contour>
			<point x="541" y="0" type="line"/>
			<point x="852" y="0" type="line"/>
			<point x="852" y="69" type="line"/>
			<point x="728" y="69" type="line"/>
			<point x="659" y="69" type="line"/>
			<point x="541" y="69" type="line"/>
		</contour>
	</outline>
</glyph>
<glyph name="Be" format="2">
	<unicode hex="0411"/>
	<advance width="669"/>
	<outline>
		<contour>
			<point x="31" y="0" type="line"/>
			<point x="168" y="0" type="line"/>
			<point x="168" y="69" type="line"/>
			<point x="152" y="69" type="line"/>
			<point x="31" y="69" type="line"/>
		</contour>
		<contour>
			<point x="125" y="0" type="curve"/>
			<point x="269" y="0" type="line"/>
			<point x="269" y="101"/>
			<point x="269" y="202"/>
			<point x="269" y="303" type="curve" smooth="yes"/>
			<point x="269" y="363" type="line" smooth="yes"/>
			<point x="269" y="464"/>
			<point x="269" y="563"/>
			<point x="269" y="664" type="curve"/>
			<point x="125" y="664" type="line"/>
			<point x="125" y="563"/>
			<point x="125" y="464"/>
			<point x="125" y="363" type="curve" smooth="yes"/>
			<point x="125" y="303" type="line" smooth="yes"/>
			<point x="125" y="202"/>
			<point x="125" y="101"/>
		</contour>
		<contour>
			<point x="216" y="0" type="line"/>
			<point x="325" y="0" type="line" smooth="yes"/>
			<point x="532" y="0"/>
			<point x="629" y="80"/>
			<point x="629" y="204" type="curve" smooth="yes"/>
			<point x="629" y="328"/>
			<point x="532" y="396"/>
			<point x="349" y="396" type="curve" smooth="yes"/>
			<point x="296" y="396"/>
			<point x="251" y="388"/>
			<point x="221" y="380" type="curve"/>
			<point x="221" y="315" type="line"/>
			<point x="251" y="323"/>
			<point x="283" y="331"/>
			<point x="328" y="331" type="curve" smooth="yes"/>
			<point x="439" y="331"/>
			<point x="483" y="285"/>
			<point x="483" y="200" type="curve" smooth="yes"/>
			<point x="483" y="115"/>
			<point x="439" y="64"/>
			<point x="315" y="64" type="curve" smooth="yes"/>
			<point x="216" y="64" type="line"/>
		</contour>
		<contour>
			<point x="31" y="595" type="line"/>
			<point x="152" y="595" type="line"/>
			<point x="168" y="595" type="line"/>
			<point x="168" y="664" type="line"/>
			<point x="31" y="664" type="line"/>
		</contour>
		<contour>
			<point x="499" y="477" type="line"/>
			<point x="569" y="477" type="line"/>
			<point x="562" y="664" type="line"/>
			<point x="253" y="664" type="line"/>
			<point x="253" y="596" type="line"/>
			<point x="508" y="596" type="line"/>
			<point x="453" y="639" type="line"/>
		</contour>
	</outline>
</glyph>
<glyph name="De" format="2">
	<unicode hex="0414"/>
	<advance width="763"/>
	<outline>
		<contour>
			<point x="31" y="-185" type="line"/>
			<point x="101" y="-185" type="line"/>
			<point x="136" y="43" type="line"/>
			<point x="84" y="0" type="line"/>
			<point x="686" y="0" type="line"/>
			<point x="637" y="43" type="line"/>
			<point x="671" y="-185" type="line"/>
			<point x="742" y="-185" type="line"/>
			<point x="743" y="69" type="line"/>
			<point x="29" y="69" type="line"/>
		</contour>
		<contour>
			<point x="149" y="595" type="line"/>
			<point x="271" y="595" type="line"/>
			<point x="287" y="595" type="line"/>
			<point x="287" y="664" type="line"/>
			<point x="149" y="664" type="line"/>
		</contour>
		<contour>
			<point x="289" y="599" type="line"/>
			<point x="510" y="599" type="line"/>
			<point x="510" y="664" type="line"/>
			<point x="289" y="664" type="line"/>
		</contour>
		<contour>
			<point x="488" y="0" type="curve"/>
			<point x="632" y="0" type="line"/>
			<point x="632" y="101"/>
			<point x="632" y="202"/>
			<point x="632" y="303" type="curve" smooth="yes"/>
			<point x="632" y="363" type="line" smooth="yes"/>
			<point x="632" y="464"/>
			<point x="632" y="563"/>
			<point x="632" y="664" type="curve"/>
			<point x="488" y="664" type="line"/>
			<point x="488" y="563"/>
			<point x="488" y="464"/>
			<point x="488" y="363" type="curve" smooth="yes"/>
			<point x="488" y="303" type="line" smooth="yes"/>
			<point x="488" y="202"/>
			<point x="488" y="101"/>
		</contour>
		<contour>
			<point x="589" y="595" type="line"/>
			<point x="605" y="595" type="line"/>
			<point x="726" y="595" type="line"/>
			<point x="726" y="664" type="line"/>
			<point x="589" y="664" type="line"/>
		</contour>
		<contour>
			<point x="88" y="48" type="curve"/>
			<point x="160" y="32" type="line"/>
			<point x="160" y="91" type="line"/>
			<point x="218" y="133"/>
			<point x="255" y="196"/>
			<point x="275" y="277" type="curve" smooth="yes"/>
			<point x="300" y="372"/>
			<point x="317" y="498"/>
			<point x="320" y="664" type="curve"/>
			<point x="247" y="664" type="line"/>
			<point x="239" y="335"/>
			<point x="183" y="166"/>
		</contour>
	</outline>
</glyph>
<glyph name="Zhe" format="2">
	<unicode hex="0416"/>
	<advance width="1045"/>
	<outline>
		<contour>
			<point x="372" y="0" type="line"/>
			<point x="673" y="0" type="line"/>
			<point x="673" y="69" type="line"/>
			<point x="557" y="69" type="line"/>
			<point x="488" y="69" type="line"/>
			<point x="372" y="69" type="line"/>
		</contour>
		<contour>
			<point x="372" y="595" type="line"/>
			<point x="488" y="595" type="line"/>
			<point x="557" y="595" type="line"/>
			<point x="673" y="595" type="line"/>
			<point x="673" y="664" type="line"/>
			<point x="372" y="664" type="line"/>
		</contour>
		<contour>
			<point x="451" y="0" type="curve"/>
			<point x="594" y="0" type="line"/>
			<point x="594" y="101"/>
			<point x="594" y="202"/>
			<point x="594" y="313" type="curve" smooth="yes"/>
			<point x="594" y="359" type="line" smooth="yes"/>
			<point x="594" y="464"/>
			<point x="594" y="563"/>
			<point x="594" y="664" type="curve"/>
			<point x="451" y="664" type="line"/>
			<point x="451" y="563"/>
			<point x="451" y="464"/>
			<point x="451" y="359" type="curve" smooth="yes"/>
			<point x="451" y="313" type="line" smooth="yes"/>
			<point x="451" y="202"/>
			<point x="451" y="101"/>
		</contour>
		<contour>
			<point x="769" y="96" type="line" smooth="yes"/>
			<point x="787" y="20"/>
			<point x="830" y="-9"/>
			<point x="916" y="-9" type="curve" smooth="yes"/>
			<point x="956" y="-9"/>
			<point x="992" y="-4"/>
			<point x="1016" y="0" type="curve"/>
			<point x="1016" y="65" type="line"/>
			<point x="869" y="76" type="line"/>
			<point x="933" y="28" type="line"/>
			<point x="885" y="205" type="line" smooth="yes"/>
			<point x="858" y="309"/>
			<point x="805" y="327"/>
			<point x="686" y="332" type="curve"/>
			<point x="686" y="352" type="line"/>
			<point x="737" y="368"/>
			<point x="761" y="392"/>
			<point x="793" y="461" type="curve" smooth="yes"/>
			<point x="822" y="524"/>
			<point x="844" y="563"/>
			<point x="885" y="610" type="curve"/>
			<point x="810" y="591" type="line"/>
			<point x="834" y="572"/>
			<point x="869" y="551"/>
			<point x="914" y="551" type="curve" smooth="yes"/>
			<point x="968" y="551"/>
			<point x="994" y="578"/>
			<point x="994" y="615" type="curve" smooth="yes"/>
			<point x="994" y="649"/>
			<point x="962" y="668"/>
			<point x="932" y="676" type="curve"/>
			<point x="838" y="669"/>
			<point x="785" y="624"/>
			<point x="737" y="493" type="curve" smooth="yes"/>
			<point x="705" y="405"/>
			<point x="670" y="365"/>
			<point x="602" y="365" type="curve" smooth="yes"/>
			<point x="533" y="365" type="line"/>
			<point x="533" y="307" type="line"/>
			<point x="621" y="307" type="line" smooth="yes"/>
			<point x="692" y="307"/>
			<point x="724" y="283"/>
			<point x="741" y="211" type="curve" smooth="yes"/>
		</contour>
		<contour>
			<point x="276" y="96" type="curve" smooth="yes"/>
			<point x="304" y="211" type="line" smooth="yes"/>
			<point x="321" y="283"/>
			<point x="353" y="307"/>
			<point x="424" y="307" type="curve" smooth="yes"/>
			<point x="512" y="307" type="line"/>
			<point x="512" y="365" type="line"/>
			<point x="443" y="365" type="line" smooth="yes"/>
			<point x="375" y="365"/>
			<point x="340" y="405"/>
			<point x="308" y="493" type="curve" smooth="yes"/>
			<point x="260" y="624"/>
			<point x="207" y="669"/>
			<point x="113" y="676" type="curve"/>
			<point x="83" y="668"/>
			<point x="51" y="649"/>
			<point x="51" y="615" type="curve" smooth="yes"/>
			<point x="51" y="578"/>
			<point x="77" y="551"/>
			<point x="131" y="551" type="curve" smooth="yes"/>
			<point x="176" y="551"/>
			<point x="210" y="572"/>
			<point x="234" y="591" type="curve"/>
			<point x="160" y="610" type="line"/>
			<point x="201" y="563"/>
			<point x="223" y="524"/>
			<point x="252" y="461" type="curve" smooth="yes"/>
			<point x="284" y="392"/>
			<point x="308" y="368"/>
			<point x="359" y="352" type="curve"/>
			<point x="359" y="332" type="line"/>
			<point x="240" y="327"/>
			<point x="187" y="309"/>
			<point x="160" y="205" type="curve" smooth="yes"/>
			<point x="112" y="28" type="line"/>
			<point x="176" y="76" type="line"/>
			<point x="29" y="65" type="line"/>
			<point x="29" y="0" type="line"/>
			<point x="53" y="-4"/>
			<point x="89" y="-9"/>
			<point x="129" y="-9" type="curve" smooth="yes"/>
			<point x="214" y="-9"/>
			<point x="258" y="20"/>
		</contour>
	</outline>
	<anchor name="aboveUC" x="523" y="684"/>
</glyph>
<glyph name="Icyr" format="2">
	<unicode hex="0418"/>
	<advance width="813"/>
	<outline>
		<contour>
			<point x="120" y="0" type="curve"/>
			<point x="261" y="0" type="line"/>
			<point x="261" y="363" type="line" smooth="yes"/>
			<point x="261" y="464"/>
			<point x="261" y="563"/>
			<point x="261" y="664" type="curve"/>
			<point x="120" y="664" type="line"/>
			<point x="120" y="563"/>
			<point x="120" y="464"/>
			<point x="120" y="363" type="curve" smooth="yes"/>
			<point x="120" y="303" type="line" smooth="yes"/>
			<point x="120" y="202"/>
			<point x="120" y="101"/>
		</contour>
		<contour>
			<point x="552" y="0" type="curve"/>
			<point x="693" y="0" type="line"/>
			<point x="693" y="101"/>
			<point x="693" y="202"/>
			<point x="693" y="303" type="curve" smooth="yes"/>
			<point x="693" y="363" type="line" smooth="yes"/>
			<point x="693" y="464"/>
			<point x="693" y="563"/>
			<point x="693" y="664" type="curve"/>
			<point x="552" y="664" type="line"/>
			<point x="552" y="303" type="line" smooth="yes"/>
			<point x="552" y="202"/>
			<point x="552" y="101"/>
		</contour>
		<contour>
			<point x="25" y="0" type="line"/>
			<point x="356" y="0" type="line"/>
			<point x="356" y="69" type="line"/>
			<point x="226" y="69" type="line"/>
			<point x="157" y="69" type="line"/>
			<point x="25" y="69" type="line"/>
		</contour>
		<contour>
			<point x="25" y="595" type="line"/>
			<point x="157" y="595" type="line"/>
			<point x="226" y="595" type="line"/>
			<point x="356" y="595" type="line"/>
			<point x="356" y="664" type="line"/>
			<point x="25" y="664" type="line"/>
		</contour>
		<contour>
			<point x="457" y="0" type="line"/>
			<point x="788" y="0" type="line"/>
			<point x="788" y="69" type="line"/>
			<point x="656" y="69" type="line"/>
			<point x="587" y="69" type="line"/>
			<point x="457" y="69" type="line"/>
		</contour>
		<contour>
			<point x="457" y="595" type="line"/>
			<point x="587" y="595" type="line"/>
			<point x="656" y="595" type="line"/>
			<point x="788" y="595" type="line"/>
			<point x="788" y="664" type="line"/>
			<point x="457" y="664" type="line"/>
		</contour>
		<contour>
			<point x="234" y="76" type="line"/>
			<point x="383" y="257" type="line"/>
			<point x="531" y="461" type="line"/>
			<point x="579" y="461" type="line"/>
			<point x="579" y="588" type="line"/>
			<point x="431" y="408" type="line"/>
			<point x="282" y="205" type="line"/>
			<point x="234" y="205" type="line"/>
		</contour>
	</outline>
	<anchor name="aboveUC" x="407" y="684"/>
</glyph>
<glyph name="El" format="2">
	<unicode hex="041B"/>
	<advance width="735"/>
	<outline>
		<contour>
			<point x="15" y="61" type="curve"/>
			<point x="25" y="8"/>
			<point x="60" y="-16"/>
			<point x="124" y="-16" type="curve" smooth="yes"/>
			<point x="198" y="-16"/>
			<point x="241" y="26"/>
			<point x="277" y="149" type="curve" smooth="yes"/>
			<point x="312" y="264"/>
			<point x="326" y="425"/>
			<point x="331" y="664" type="curve"/>
			<point x="253" y="664" type="line"/>
			<point x="249" y="408"/>
			<point x="235" y="270"/>
			<point x="211" y="174" type="curve" smooth="yes"/>
			<point x="201" y="134"/>
			<point x="188" y="98"/>
			<point x="166" y="53" type="curve"/>
			<point x="180" y="62" type="line"/>
			<point x="137" y="62" type="line"/>
			<point x="153" y="53" type="line"/>
			<point x="142" y="106"/>
			<point x="119" y="123"/>
			<point x="85" y="123" type="curve" smooth="yes"/>
			<point x="48" y="123"/>
			<point x="24" y="102"/>
		</contour>
		<contour>
			<point x="466" y="0" type="curve"/>
			<point x="610" y="0" type="line"/>
			<point x="610" y="101"/>
			<point x="610" y="202"/>
			<point x="610" y="303" type="curve" smooth="yes"/>
			<point x="610" y="363" type="line" smooth="yes"/>
			<point x="610" y="464"/>
			<point x="610" y="563"/>
			<point x="610" y="664" type="curve"/>
			<point x="466" y="664" type="line"/>
			<point x="466" y="563"/>
			<point x="466" y="464"/>
			<point x="466" y="363" type="curve" smooth="yes"/>
			<point x="466" y="303" type="line" smooth="yes"/>
			<point x="466" y="202"/>
			<point x="466" y="101"/>
		</contour>
		<contour>
			<point x="371" y="0" type="line"/>
			<point x="704" y="0" type="line"/>
			<point x="704" y="69" type="line"/>
			<point x="587" y="69" type="line"/>
			<point x="489" y="69" type="line"/>
			<point x="371" y="69" type="line"/>
		</contour>
		<contour>
			<point x="147" y="595" type="line"/>
			<point x="274" y="595" type="line"/>
			<point x="290" y="595" type="line"/>
			<point x="290" y="664" type="line"/>
			<point x="147" y="664" type="line"/>
		</contour>
		<contour>
			<point x="567" y="595" type="line"/>
			<point x="583" y="595" type="line"/>
			<point x="704" y="595" type="line"/>
			<point x="704" y="664" type="line"/>
			<point x="567" y="664" type="line"/>
		</contour>
		<contour>
			<point x="298" y="597" type="line"/>
			<point x="493" y="597" type="line"/>
			<point x="493" y="664" type="line"/>
			<point x="298" y="664" type="line"/>
		</contour>
	</outline>
</glyph>
<glyph name="Tse" format="2">
	<unicode hex="0426"/>
	<advance width="811"/>
	<outline>
		<contour>
			<point x="125" y="0" type="curve"/>
			<point x="269" y="0" type="line"/>
			<point x="269" y="101"/>
			<point x="269" y="202"/>
			<point x="269" y="303" type="curve" smooth="yes"/>
			<point x="269" y="363" type="line" smooth="yes"/>
			<point x="269" y="464"/>
			<point x="269" y="563"/>
			<point x="269" y="664" type="curve"/>
			<point x="125" y="664" type="line"/>
			<point x="125" y="563"/>
			<point x="125" y="464"/>
			<point x="125" y="363" type="curve" smooth="yes"/>
			<point x="125" y="303" type="line" smooth="yes"/>
			<point x="125" y="202"/>
			<point x="125" y="101"/>
		</contour>
		<contour>
			<point x="541" y="0" type="curve"/>
			<point x="685" y="0" type="line"/>
			<point x="685" y="101"/>
			<point x="685" y="202"/>
			<point x="685" y="303" type="curve" smooth="yes"/>
			<point x="685" y="363" type="line" smooth="yes"/>
			<point x="685" y="464"/>
			<point x="685" y="563"/>
			<point x="685" y="664" type="curve"/>
			<point x="541" y="664" type="line"/>
			<point x="541" y="563"/>
			<point x="541" y="464"/>
			<point x="541" y="363" type="curve" smooth="yes"/>
			<point x="541" y="303" type="line" smooth="yes"/>
			<point x="541" y="202"/>
			<point x="541" y="101"/>
		</contour>
		<contour>
			<point x="205" y="0" type="line"/>
			<point x="715" y="0" type="line"/>
			<point x="675" y="35" type="line"/>
			<point x="691" y="-179" type="line"/>
			<point x="769" y="-179" type="line"/>
			<point x="780" y="69" type="line"/>
			<point x="205" y="69" type="line"/>
		</contour>
		<contour>
			<point x="31" y="595" type="line"/>
			<point x="163" y="595" type="line"/>
			<point x="232" y="595" type="line"/>
			<point x="359" y="595" type="line"/>
			<point x="359" y="664" type="line"/>
			<point x="31" y="664" type="line"/>
		</contour>
		<contour>
			<point x="452" y="595" type="line"/>
			<point x="579" y="595" type="line"/>
			<point x="648" y="595" type="line"/>
			<point x="780" y="595" type="line"/>
			<point x="780" y="664" type="line"/>
			<point x="452" y="664" type="line"/>
		</contour>
		<contour>
			<point x="31" y="0" type="line"/>
			<point x="179" y="0" type="line"/>
			<point x="179" y="69" type="line"/>
			<point x="163" y="69" type="line"/>
			<point x="31" y="69" type="line"/>
		</contour>
	</outline>
	<anchor name="aboveUC" x="405" y="684"/>
</glyph>
<glyph name="Shcha" format="2">
	<unicode hex="0429"/>
	<advance width="1130"/>
	<outline>
		<contour>
			<point x="125" y="0" type="curve"/>
			<point x="269" y="0" type="line"/>
			<point x="269" y="101"/>
			<point x="269" y="202"/>
			<point x="269" y="303" type="curve" smooth="yes"/>
			<point x="269" y="363" type="line" smooth="yes"/>
			<point x="269" y="464"/>
			<point x="269" y="563"/>
			<point x="269" y="664" type="curve"/>
			<point x="125" y="664" type="line"/>
			<point x="125" y="563"/>
			<point x="125" y="464"/>
			<point x="125" y="363" type="curve" smooth="yes"/>
			<point x="125" y="303" type="line" smooth="yes"/>
			<point x="125" y="202"/>
			<point x="125" y="101"/>
		</contour>
		<contour>
			<point x="493" y="0" type="curve"/>
			<point x="637" y="0" type="line"/>
			<point x="637" y="101"/>
			<point x="637" y="202"/>
			<point x="637" y="303" type="curve" smooth="yes"/>
			<point x="637" y="363" type="line" smooth="yes"/>
			<point x="637" y="464"/>
			<point x="637" y="563"/>
			<point x="637" y="664" type="curve"/>
			<point x="493" y="664" type="line"/>
			<point x="493" y="563"/>
			<point x="493" y="464"/>
			<point x="493" y="363" type="curve" smooth="yes"/>
			<point x="493" y="303" type="line" smooth="yes"/>
			<point x="493" y="202"/>
			<point x="493" y="101"/>
		</contour>
		<contour>
			<point x="861" y="0" type="curve"/>
			<point x="1005" y="0" type="line"/>
			<point x="1005" y="101"/>
			<point x="1005" y="202"/>
			<point x="1005" y="303" type="curve" smooth="yes"/>
			<point x="1005" y="363" type="line" smooth="yes"/>
			<point x="1005" y="464"/>
			<point x="1005" y="563"/>
			<point x="1005" y="664" type="curve"/>
			<point x="861" y="664" type="line"/>
			<point x="861" y="563"/>
			<point x="861" y="464"/>
			<point x="861" y="363" type="curve" smooth="yes"/>
			<point x="861" y="303" type="line" smooth="yes"/>
			<point x="861" y="202"/>
			<point x="861" y="101"/>
		</contour>
		<contour>
			<point x="232" y="0" type="line"/>
			<point x="1004" y="0" type="line"/>
			<point x="997" y="8" type="line"/>
			<point x="1011" y="-179" type="line"/>
			<point x="1089" y="-179" type="line"/>
			<point x="1100" y="69" type="line"/>
			<point x="232" y="69" type="line"/>
		</contour>
		<contour>
			<point x="31" y="595" type="line"/>
			<point x="163" y="595" type="line"/>
			<point x="232" y="595" type="line"/>
			<point x="351" y="595" type="line"/>
			<point x="351" y="664" type="line"/>
			<point x="31" y="664" type="line"/>
		</contour>
		<contour>
			<point x="412" y="595" type="line"/>
			<point x="531" y="595" type="line"/>
			<point x="600" y="595" type="line"/>
			<point x="719" y="595" type="line"/>
			<point x="719" y="664" type="line"/>
			<point x="412" y="664" type="line"/>
		</contour>
		<contour>
			<point x="780" y="595" type="line"/>
			<point x="899" y="595" type="line"/>
			<point x="968" y="595" type="line"/>
			<point x="1100" y="595" type="line"/>
			<point x="1100" y="664" type="line"/>
			<point x="780" y="664" type="line"/>
		</contour>
		<contour>
			<point x="31" y="0" type="line"/>
			<point x="179" y="0" type="line"/>
			<point x="179" y="69" type="line"/>
			<point x="163" y="69" type="line"/>
			<point x="31" y="69" type="line"/>
		</contour>
	</outline>
</glyph>
<glyph name="Ecyr" format="2">
	<unicode hex="042D"/>
	<advance width="668"/>
	<outline>
		<contour>
			<point x="51" y="19" type="line"/>
			<point x="88" y="3"/>
			<point x="160" y="-16"/>
			<point x="252" y="-16" type="curve" smooth="yes"/>
			<point x="471" y="-16"/>
			<point x="621" y="105"/>
			<point x="621" y="336" type="curve" smooth="yes"/>
			<point x="621" y="567"/>
			<point x="481" y="680"/>
			<point x="264" y="680" type="curve" smooth="yes"/>
			<point x="165" y="680"/>
			<point x="96" y="661"/>
			<point x="57" y="645" type="curve"/>
			<point x="53" y="484" type="line"/>
			<point x="125" y="484" type="line"/>
			<point x="163" y="635" type="line"/>
			<point x="88" y="635" type="line"/>
			<point x="88" y="571" type="line"/>
			<point x="128" y="595"/>
			<point x="181" y="611"/>
			<point x="246" y="611" type="curve" smooth="yes"/>
			<point x="407" y="611"/>
			<point x="472" y="549"/>
			<point x="472" y="332" type="curve" smooth="yes"/>
			<point x="472" y="118"/>
			<point x="397" y="53"/>
			<point x="239" y="53" type="curve" smooth="yes"/>
			<point x="175" y="53"/>
			<point x="122" y="70"/>
			<point x="81" y="93" type="curve"/>
			<point x="81" y="29" type="line"/>
			<point x="156" y="29" type="line"/>
			<point x="119" y="179" type="line"/>
			<point x="47" y="179" type="line"/>
		</contour>
		<contour>
			<point x="203" y="225" type="line"/>
			<point x="269" y="225" type="line"/>
			<point x="293" y="324" type="line"/>
			<point x="293" y="353" type="line"/>
			<point x="269" y="452" type="line"/>
			<point x="203" y="452" type="line"/>
		</contour>
		<contour>
			<point x="241" y="305" type="line"/>
			<point x="495" y="305" type="line"/>
			<point x="495" y="372" type="line"/>
			<point x="241" y="372" type="line"/>
		</contour>
	</outline>
	<anchor name="aboveUC" x="289" y="684"/>
</glyph>
<glyph name="be" format="2">
	<unicode hex="0431"/>
	<advance width="608"/>
	<outline>
		<contour>
			<point x="312" y="-12" type="curve" smooth="yes"/>
			<point x="460" y="-12"/>
			<point x="564" y="87"/>
			<point x="564" y="240" type="curve" smooth="yes"/>
			<point x="564" y="393"/>
			<point x="473" y="480"/>
			<point x="324" y="480" type="curve" smooth="yes"/>
			<point x="188" y="480"/>
			<point x="131" y="389"/>
			<point x="115" y="301" type="curve"/>
			<point x="91" y="301" type="line"/>
			<point x="97" y="451"/>
			<point x="135" y="508"/>
			<point x="175" y="540" type="curve" smooth="yes"/>
			<point x="215" y="572"/>
			<point x="260" y="580"/>
			<point x="348" y="588" type="curve" smooth="yes"/>
			<point x="436" y="596"/>
			<point x="470" y="603"/>
			<point x="497" y="611" type="curve" smooth="yes"/>
			<point x="534" y="623"/>
			<point x="549" y="646"/>
			<point x="555" y="762" type="curve"/>
			<point x="499" y="762" type="line"/>
			<point x="479" y="710" type="line"/>
			<point x="462" y="704"/>
			<point x="431" y="697"/>
			<point x="343" y="689" type="curve" smooth="yes"/>
			<point x="255" y="681"/>
			<point x="183" y="665"/>
			<point x="140" y="633" type="curve" smooth="yes"/>
			<point x="97" y="601"/>
			<point x="44" y="528"/>
			<point x="44" y="323" type="curve" smooth="yes"/>
			<point x="44" y="76"/>
			<point x="167" y="-12"/>
		</contour>
		<contour>
			<point x="312" y="52" type="curve" smooth="yes"/>
			<point x="241" y="52"/>
			<point x="188" y="123"/>
			<point x="188" y="239" type="curve" smooth="yes"/>
			<point x="188" y="356"/>
			<point x="233" y="415"/>
			<point x="308" y="415" type="curve" smooth="yes"/>
			<point x="383" y="415"/>
			<point x="428" y="348"/>
			<point x="428" y="231" type="curve" smooth="yes"/>
			<point x="428" y="115"/>
			<point x="383" y="52"/>
		</contour>
	</outline>
</glyph>
<glyph name="ve" format="2">
	<unicode hex="0432"/>
	<advance width="604"/>
	<outline>
		<contour>
			<point x="35" y="0" type="line"/>
			<point x="345" y="0" type="line"/>
			<point x="500" y="0"/>
			<point x="570" y="60"/>
			<point x="570" y="145" type="curve" smooth="yes"/>
			<point x="570" y="231"/>
			<point x="500" y="260"/>
			<point x="383" y="260" type="curve"/>
			<point x="383" y="279" type="line"/>
			<point x="484" y="287"/>
			<point x="549" y="315"/>
			<point x="549" y="393" type="curve" smooth="yes"/>
			<point x="549" y="469"/>
			<point x="484" y="511"/>
			<point x="345" y="511" type="curve"/>
			<point x="35" y="511" type="line"/>
			<point x="35" y="445" type="line"/>
			<point x="148" y="445" type="line"/>
			<point x="205" y="451" type="line"/>
			<point x="324" y="451" type="line"/>
			<point x="393" y="451"/>
			<point x="423" y="421"/>
			<point x="423" y="372" type="curve" smooth="yes"/>
			<point x="423" y="323"/>
			<point x="393" y="293"/>
			<point x="324" y="293" type="curve" smooth="yes"/>
			<point x="225" y="293" type="line"/>
			<point x="225" y="239" type="line"/>
			<point x="324" y="239" type="line" smooth="yes"/>
			<point x="401" y="239"/>
			<point x="439" y="207"/>
			<point x="439" y="149" type="curve" smooth="yes"/>
			<point x="439" y="92"/>
			<point x="401" y="60"/>
			<point x="324" y="60" type="curve"/>
			<point x="204" y="60" type="line"/>
			<point x="148" y="65" type="line"/>
			<point x="35" y="65" type="line"/>
		</contour>
		<contour>
			<point x="111" y="0" type="curve"/>
			<point x="241" y="0" type="line"/>
			<point x="241" y="75"/>
			<point x="241" y="150"/>
			<point x="241" y="225" type="curve" smooth="yes"/>
			<point x="241" y="285" type="line" smooth="yes"/>
			<point x="241" y="360"/>
			<point x="241" y="436"/>
			<point x="241" y="511" type="curve"/>
			<point x="111" y="511" type="line"/>
			<point x="111" y="436"/>
			<point x="111" y="360"/>
			<point x="111" y="285" type="curve" smooth="yes"/>
			<point x="111" y="225" type="line" smooth="yes"/>
			<point x="111" y="150"/>
			<point x="111" y="75"/>
		</contour>
	</outline>
</glyph>
